SplineFontDB: 3.2
FontName: oriya5
FullName: oriya5
FamilyName: oriya5
Weight: Book
Copyright: Copyright 2019 The Baloo 2 Project Authors (https://github.com/EkType/Baloo2)
Version: 1.000
ItalicAngle: 0
UnderlinePosition: -125
UnderlineWidth: 50
Ascent: 800
Descent: 200
InvalidEm: 0
sfntRevision: 0x0001b333
LayerCount: 2
Layer: 0 1 "Back" 1
Layer: 1 1 "Fore" 0
XUID: [1021 467 -1121320856 8208542]
StyleMap: 0x0040
FSType: 0
OS2Version: 4
OS2_WeightWidthSlopeOnly: 0
OS2_UseTypoMetrics: 1
CreationTime: 1585042767
ModificationTime: 1638579028
PfmFamily: 81
TTFWeight: 400
TTFWidth: 5
LineGap: 0
VLineGap: 0
Panose: 0 0 0 0 0 0 0 0 0 0
OS2TypoAscent: 1185
OS2TypoAOffset: 0
OS2TypoDescent: -827
OS2TypoDOffset: 0
OS2TypoLinegap: 0
OS2WinAscent: 1185
OS2WinAOffset: 0
OS2WinDescent: 827
OS2WinDOffset: 0
HheadAscent: 1185
HheadAOffset: 0
HheadDescent: -827
HheadDOffset: 0
OS2SubXSize: 650
OS2SubYSize: 600
OS2SubXOff: 0
OS2SubYOff: 75
OS2SupXSize: 650
OS2SupYSize: 600
OS2SupXOff: 0
OS2SupYOff: 350
OS2StrikeYSize: 50
OS2StrikeYPos: 276
OS2CapHeight: 602
OS2XHeight: 460
OS2Vendor: 'EKTF'
OS2CodePages: 20000193.00000000
OS2UnicodeRanges: a008007f.4000207b.00000000.00000000
Lookup: 1 0 0 "'aalt' Access All Alternates lookup 0" { "'aalt' Access All Alternates lookup 0 subtable"  } ['aalt' ('DFLT' <'dflt' > 'latn' <'AZE ' 'CAT ' 'CRT ' 'KAZ ' 'MOL ' 'NLD ' 'ROM ' 'TAT ' 'TRK ' 'dflt' > 'ory2' <'dflt' > 'orya' <'dflt' > ) ]
Lookup: 3 0 0 "'aalt' Access All Alternates lookup 1" { "'aalt' Access All Alternates lookup 1 subtable"  } ['aalt' ('DFLT' <'dflt' > 'latn' <'AZE ' 'CAT ' 'CRT ' 'KAZ ' 'MOL ' 'NLD ' 'ROM ' 'TAT ' 'TRK ' 'dflt' > 'ory2' <'dflt' > 'orya' <'dflt' > ) ]
Lookup: 6 0 0 "'frac' Diagonal Fractions lookup 2" { "'frac' Diagonal Fractions lookup 2 subtable"  } ['frac' ('DFLT' <'dflt' > 'latn' <'AZE ' 'CAT ' 'CRT ' 'KAZ ' 'MOL ' 'NLD ' 'ROM ' 'TAT ' 'TRK ' 'dflt' > 'ory2' <'dflt' > 'orya' <'dflt' > ) ]

StartChar: exclam
Encoding: 33 33 2
Width: 248
Flags: W
LayerCount: 2
Fore
SplineSet
161 630 m 1,0,-1
 161 630 l 1,1,2
 161 608 161 608 160.5 568 c 128,-1,3
 160 528 160 528 159 478 c 128,-1,4
 158 428 158 428 157 375 c 128,-1,5
 156 322 156 322 154.5 272.5 c 128,-1,6
 153 223 153 223 152 185 c 1,7,8
 146 181 146 181 138 178.5 c 128,-1,9
 130 176 130 176 120 176 c 0,10,11
 107 176 107 176 98 182 c 128,-1,12
 89 188 89 188 88 200 c 0,13,14
 87 225 87 225 85.5 268.5 c 128,-1,15
 84 312 84 312 83 365.5 c 128,-1,16
 82 419 82 419 81.5 474 c 128,-1,17
 81 529 81 529 80.5 577.5 c 128,-1,18
 80 626 80 626 80 659 c 1,19,20
 100 672 100 672 123 672 c 0,21,22
 161 672 161 672 161 630 c 1,0,-1
66 44 m 1,23,-1
 66 44 l 1,24,25
 66 67 66 67 81 83 c 128,-1,26
 96 99 96 99 121 99 c 0,27,28
 147 99 147 99 161.5 83 c 128,-1,29
 176 67 176 67 176 44 c 256,30,31
 176 21 176 21 161.5 5 c 128,-1,32
 147 -11 147 -11 121 -11 c 0,33,34
 96 -11 96 -11 81 5 c 128,-1,35
 66 21 66 21 66 44 c 1,23,-1
EndSplineSet
Substitution2: "'salt' Stylistic Alternatives lookup 78 subtable" exclam_alt
Substitution2: "'ss01' Style Set 1 lookup 77 subtable" exclam_alt
EndChar

StartChar: quotedbl
Encoding: 34 34 3
Width: 265
Flags: W
LayerCount: 2
Fore
SplineSet
99 466 m 1,0,-1
 99 466 l 1,1,2
 92 464 92 464 84.5 462.5 c 128,-1,3
 77 461 77 461 69 461 c 0,4,5
 54 461 54 461 46 468 c 128,-1,6
 38 475 38 475 37 489 c 2,7,-1
 31 662 l 1,8,9
 39 667 39 667 48.5 669.5 c 128,-1,10
 58 672 58 672 69 672 c 0,11,12
 86 672 86 672 95 662.5 c 128,-1,13
 104 653 104 653 104 633 c 0,14,15
 104 617 104 617 103 586 c 128,-1,16
 102 555 102 555 101 522.5 c 128,-1,17
 100 490 100 490 99 466 c 1,0,-1
229 466 m 1,18,-1
 229 466 l 1,19,20
 222 464 222 464 214 462.5 c 128,-1,21
 206 461 206 461 198 461 c 0,22,23
 183 461 183 461 175.5 468 c 128,-1,24
 168 475 168 475 167 489 c 2,25,-1
 161 662 l 1,26,27
 169 667 169 667 178.5 669.5 c 128,-1,28
 188 672 188 672 199 672 c 0,29,30
 216 672 216 672 225 662.5 c 128,-1,31
 234 653 234 653 234 632 c 0,32,33
 234 616 234 616 233 585.5 c 128,-1,34
 232 555 232 555 231 522.5 c 128,-1,35
 230 490 230 490 229 466 c 1,18,-1
EndSplineSet
Substitution2: "'salt' Stylistic Alternatives lookup 78 subtable" quotedbl_alt
Substitution2: "'ss01' Style Set 1 lookup 77 subtable" quotedbl_alt
EndChar

StartChar: numbersign
Encoding: 35 35 4
Width: 667
Flags: W
LayerCount: 2
Fore
SplineSet
566 162 m 2,0,-1
 49 162 l 1,1,2
 47 168 47 168 45 175.5 c 128,-1,3
 43 183 43 183 43 191 c 0,4,5
 43 208 43 208 51.5 216 c 128,-1,6
 60 224 60 224 76 224 c 2,7,-1
 594 224 l 1,8,9
 596 218 596 218 598 210.5 c 128,-1,10
 600 203 600 203 600 194 c 0,11,12
 600 178 600 178 591.5 170 c 128,-1,13
 583 162 583 162 566 162 c 2,0,-1
596 396 m 2,14,-1
 79 396 l 1,15,16
 77 402 77 402 74.5 409 c 128,-1,17
 72 416 72 416 72 425 c 0,18,19
 72 442 72 442 81 450 c 128,-1,20
 90 458 90 458 106 458 c 2,21,-1
 624 458 l 1,22,23
 626 452 626 452 628 444.5 c 128,-1,24
 630 437 630 437 630 428 c 0,25,26
 630 412 630 412 621.5 404 c 128,-1,27
 613 396 613 396 596 396 c 2,14,-1
307 532 m 2,28,-1
 195 -3 l 1,29,30
 190 -4 190 -4 183.5 -4.5 c 128,-1,31
 177 -5 177 -5 170 -5 c 0,32,33
 154 -5 154 -5 144.5 3 c 128,-1,34
 135 11 135 11 135 27 c 0,35,36
 135 37 135 37 138 51.5 c 128,-1,37
 141 66 141 66 144 76 c 2,38,-1
 256 611 l 1,39,40
 261 612 261 612 268 612.5 c 128,-1,41
 275 613 275 613 281 613 c 0,42,43
 297 613 297 613 306.5 605.5 c 128,-1,44
 316 598 316 598 316 581 c 0,45,46
 316 571 316 571 312.5 557 c 128,-1,47
 309 543 309 543 307 532 c 2,28,-1
523 532 m 2,48,-1
 411 -3 l 1,49,50
 406 -4 406 -4 399.5 -4.5 c 128,-1,51
 393 -5 393 -5 386 -5 c 0,52,53
 370 -5 370 -5 360.5 3 c 128,-1,54
 351 11 351 11 351 27 c 0,55,56
 351 37 351 37 354 51.5 c 128,-1,57
 357 66 357 66 359 76 c 2,58,-1
 472 611 l 1,59,60
 477 612 477 612 484 612.5 c 128,-1,61
 491 613 491 613 497 613 c 0,62,63
 513 613 513 613 522.5 605.5 c 128,-1,64
 532 598 532 598 532 581 c 0,65,66
 532 571 532 571 528.5 557 c 128,-1,67
 525 543 525 543 523 532 c 2,48,-1
EndSplineSet
EndChar

StartChar: dollar
Encoding: 36 36 5
Width: 520
Flags: W
LayerCount: 2
Fore
SplineSet
222 41 m 1,0,-1
 292 41 l 1,1,-1
 292 -71 l 1,2,3
 288 -72 288 -72 279.5 -74 c 128,-1,4
 271 -76 271 -76 261 -76 c 0,5,6
 242 -76 242 -76 232 -67.5 c 128,-1,7
 222 -59 222 -59 222 -44 c 2,8,-1
 222 41 l 1,0,-1
292 588 m 1,9,-1
 222 588 l 1,10,-1
 222 715 l 1,11,12
 226 717 226 717 234.5 718.5 c 128,-1,13
 243 720 243 720 253 720 c 0,14,15
 272 720 272 720 282 711.5 c 128,-1,16
 292 703 292 703 292 688 c 2,17,-1
 292 588 l 1,9,-1
257 71 m 1,18,-1
 257 71 l 1,19,20
 325 71 325 71 360 102 c 128,-1,21
 395 133 395 133 395 182 c 0,22,23
 395 224 395 224 368 251 c 128,-1,24
 341 278 341 278 283 295 c 2,25,-1
 195 321 l 2,26,27
 153 334 153 334 123 354.5 c 128,-1,28
 93 375 93 375 76.5 405 c 128,-1,29
 60 435 60 435 60 476 c 0,30,31
 60 552 60 552 115.5 595.5 c 128,-1,32
 171 639 171 639 263 639 c 0,33,34
 317 639 317 639 359.5 627.5 c 128,-1,35
 402 616 402 616 426.5 598.5 c 128,-1,36
 451 581 451 581 451 561 c 0,37,38
 451 548 451 548 444 538 c 128,-1,39
 437 528 437 528 426 522 c 1,40,41
 401 542 401 542 358.5 557.5 c 128,-1,42
 316 573 316 573 266 573 c 0,43,44
 207 573 207 573 172.5 547 c 128,-1,45
 138 521 138 521 138 476 c 0,46,47
 138 440 138 440 163 417.5 c 128,-1,48
 188 395 188 395 244 379 c 2,49,-1
 305 361 l 2,50,51
 383 339 383 339 428.5 297 c 128,-1,52
 474 255 474 255 474 182 c 0,53,54
 474 103 474 103 417.5 54 c 128,-1,55
 361 5 361 5 257 5 c 0,56,57
 196 5 196 5 150.5 18.5 c 128,-1,58
 105 32 105 32 79.5 52.5 c 128,-1,59
 54 73 54 73 54 92 c 0,60,61
 54 109 54 109 64.5 120 c 128,-1,62
 75 131 75 131 89 136 c 1,63,64
 112 114 112 114 154 92.5 c 128,-1,65
 196 71 196 71 257 71 c 1,18,-1
EndSplineSet
Substitution2: "'salt' Stylistic Alternatives lookup 78 subtable" dollar_alt
Substitution2: "'ss01' Style Set 1 lookup 77 subtable" dollar_alt
EndChar

StartChar: percent
Encoding: 37 37 6
Width: 771
Flags: W
LayerCount: 2
Fore
SplineSet
334 528 m 1,0,-1
 334 528 l 1,1,2
 334 463 334 463 293.5 424.5 c 128,-1,3
 253 386 253 386 194 386 c 0,4,5
 136 386 136 386 95 424.5 c 128,-1,6
 54 463 54 463 54 528 c 256,7,8
 54 593 54 593 95 631 c 128,-1,9
 136 669 136 669 194 669 c 0,10,11
 253 669 253 669 293.5 631 c 128,-1,12
 334 593 334 593 334 528 c 1,0,-1
123 528 m 1,13,-1
 123 528 l 1,14,15
 123 488 123 488 143 466.5 c 128,-1,16
 163 445 163 445 194 445 c 0,17,18
 226 445 226 445 245.5 466.5 c 128,-1,19
 265 488 265 488 265 528 c 0,20,21
 265 567 265 567 245.5 588.5 c 128,-1,22
 226 610 226 610 194 610 c 0,23,24
 163 610 163 610 143 588.5 c 128,-1,25
 123 567 123 567 123 528 c 1,13,-1
186 63 m 2,26,-1
 564 669 l 1,27,28
 587 666 587 666 600 658 c 128,-1,29
 613 650 613 650 613 636 c 0,30,31
 613 626 613 626 608.5 617 c 128,-1,32
 604 608 604 608 598 597 c 2,33,-1
 220 -7 l 1,34,35
 199 -5 199 -5 185 4.5 c 128,-1,36
 171 14 171 14 171 27 c 0,37,38
 171 35 171 35 175 43.5 c 128,-1,39
 179 52 179 52 186 63 c 2,26,-1
717 134 m 1,40,-1
 717 134 l 1,41,42
 717 69 717 69 676.5 30.5 c 128,-1,43
 636 -8 636 -8 577 -8 c 0,44,45
 519 -8 519 -8 478 30.5 c 128,-1,46
 437 69 437 69 437 134 c 256,47,48
 437 199 437 199 478 237 c 128,-1,49
 519 275 519 275 577 275 c 0,50,51
 636 275 636 275 676.5 237 c 128,-1,52
 717 199 717 199 717 134 c 1,40,-1
506 134 m 1,53,-1
 506 134 l 1,54,55
 506 94 506 94 526 72.5 c 128,-1,56
 546 51 546 51 577 51 c 0,57,58
 609 51 609 51 628.5 72.5 c 128,-1,59
 648 94 648 94 648 134 c 0,60,61
 648 173 648 173 628.5 194.5 c 128,-1,62
 609 216 609 216 577 216 c 0,63,64
 546 216 546 216 526 194.5 c 128,-1,65
 506 173 506 173 506 134 c 1,53,-1
EndSplineSet
Substitution2: "'salt' Stylistic Alternatives lookup 78 subtable" percent_alt
Substitution2: "'ss01' Style Set 1 lookup 77 subtable" percent_alt
EndChar

StartChar: ampersand
Encoding: 38 38 7
Width: 637
Flags: W
LayerCount: 2
Fore
SplineSet
509 102 m 1,0,-1
 480 68 l 2,1,2
 446 31 446 31 397 8 c 128,-1,3
 348 -15 348 -15 279 -15 c 256,4,5
 210 -15 210 -15 158.5 10 c 128,-1,6
 107 35 107 35 78.5 80.5 c 128,-1,7
 50 126 50 126 50 187 c 0,8,9
 50 238 50 238 70.5 276.5 c 128,-1,10
 91 315 91 315 126 341 c 128,-1,11
 161 367 161 367 204 378 c 1,12,-1
 239 319 l 1,13,14
 212 313 212 313 187.5 296.5 c 128,-1,15
 163 280 163 280 147 252.5 c 128,-1,16
 131 225 131 225 131 186 c 0,17,18
 131 126 131 126 170.5 89.5 c 128,-1,19
 210 53 210 53 280 53 c 0,20,21
 318 53 318 53 358.5 69 c 128,-1,22
 399 85 399 85 433 124 c 1,23,-1
 455 156 l 2,24,25
 473 189 473 189 483.5 239 c 128,-1,26
 494 289 494 289 494 353 c 1,27,28
 503 357 503 357 512.5 359.5 c 128,-1,29
 522 362 522 362 531 362 c 0,30,31
 551 362 551 362 561 350.5 c 128,-1,32
 571 339 571 339 571 317 c 0,33,34
 571 261 571 261 554.5 202 c 128,-1,35
 538 143 538 143 509 102 c 1,0,-1
565 -14 m 1,36,-1
 565 -14 l 1,37,38
 545 -14 545 -14 525 9 c 2,39,-1
 219 329 l 1,40,-1
 194 357 l 2,41,42
 163 389 163 389 148 419.5 c 128,-1,43
 133 450 133 450 133 485 c 0,44,45
 133 526 133 526 151.5 556.5 c 128,-1,46
 170 587 170 587 205.5 604 c 128,-1,47
 241 621 241 621 292 621 c 0,48,49
 345 621 345 621 372.5 606 c 128,-1,50
 400 591 400 591 400 568 c 0,51,52
 400 556 400 556 393.5 546.5 c 128,-1,53
 387 537 387 537 379 532 c 1,54,55
 363 541 363 541 341.5 547 c 128,-1,56
 320 553 320 553 297 553 c 0,57,58
 259 553 259 553 237 534.5 c 128,-1,59
 215 516 215 516 215 484 c 0,60,61
 215 453 215 453 231 429 c 128,-1,62
 247 405 247 405 277 374 c 2,63,-1
 609 29 l 1,64,65
 606 9 606 9 595 -2.5 c 128,-1,66
 584 -14 584 -14 565 -14 c 1,36,-1
EndSplineSet
EndChar

StartChar: quotesingle
Encoding: 39 39 8
Width: 136
Flags: W
LayerCount: 2
Fore
SplineSet
101 466 m 1,0,-1
 101 466 l 1,1,2
 94 464 94 464 85.5 462.5 c 128,-1,3
 77 461 77 461 69 461 c 0,4,5
 54 461 54 461 46 468 c 128,-1,6
 38 475 38 475 37 489 c 2,7,-1
 31 662 l 1,8,9
 39 667 39 667 48 669.5 c 128,-1,10
 57 672 57 672 70 672 c 0,11,12
 88 672 88 672 97 662.5 c 128,-1,13
 106 653 106 653 106 632 c 0,14,15
 106 616 106 616 105 585.5 c 128,-1,16
 104 555 104 555 103 522.5 c 128,-1,17
 102 490 102 490 101 466 c 1,0,-1
EndSplineSet
Substitution2: "'salt' Stylistic Alternatives lookup 78 subtable" quotesingle_alt
Substitution2: "'ss01' Style Set 1 lookup 77 subtable" quotesingle_alt
EndChar

StartChar: parenleft
Encoding: 40 40 9
Width: 252
Flags: W
LayerCount: 2
Fore
SplineSet
203 -65 m 1,0,-1
 203 -65 l 1,1,2
 188 -65 188 -65 175.5 -54 c 128,-1,3
 163 -43 163 -43 149 -24 c 0,4,5
 104 41 104 41 79.5 126.5 c 128,-1,6
 55 212 55 212 55 324 c 256,7,8
 55 436 55 436 83.5 523.5 c 128,-1,9
 112 611 112 611 149 666 c 0,10,11
 162 686 162 686 175 696.5 c 128,-1,12
 188 707 188 707 203 707 c 0,13,14
 217 707 217 707 227 699 c 128,-1,15
 237 691 237 691 242 679 c 1,16,17
 188 610 188 610 158 520.5 c 128,-1,18
 128 431 128 431 128 324 c 0,19,20
 128 218 128 218 154.5 132 c 128,-1,21
 181 46 181 46 242 -37 c 1,22,23
 237 -49 237 -49 227 -57 c 128,-1,24
 217 -65 217 -65 203 -65 c 1,0,-1
EndSplineSet
Substitution2: "'salt' Stylistic Alternatives lookup 78 subtable" parenleft_alt
Substitution2: "'ss01' Style Set 1 lookup 77 subtable" parenleft_alt
Substitution2: "'sinf' Scientific Inferiors lookup 33 subtable" parenleft.inferior
Substitution2: "'subs' Subscript lookup 32 subtable" parenleft.inferior
Substitution2: "'sups' Superscript lookup 31 subtable" parenleft.superior
AlternateSubs2: "'aalt' Access All Alternates lookup 1 subtable" parenleft.superior parenleft.inferior
EndChar

StartChar: parenright
Encoding: 41 41 10
Width: 252
Flags: W
LayerCount: 2
Fore
SplineSet
49 -65 m 1,0,-1
 49 -65 l 1,1,2
 64 -65 64 -65 77 -54 c 128,-1,3
 90 -43 90 -43 103 -24 c 0,4,5
 148 41 148 41 172.5 126.5 c 128,-1,6
 197 212 197 212 197 324 c 256,7,8
 197 436 197 436 168.5 523.5 c 128,-1,9
 140 611 140 611 103 666 c 0,10,11
 90 686 90 686 77 696.5 c 128,-1,12
 64 707 64 707 49 707 c 0,13,14
 35 707 35 707 25 699 c 128,-1,15
 15 691 15 691 10 679 c 1,16,17
 64 610 64 610 94 520.5 c 128,-1,18
 124 431 124 431 124 324 c 0,19,20
 124 218 124 218 97.5 132 c 128,-1,21
 71 46 71 46 10 -37 c 1,22,23
 15 -49 15 -49 25 -57 c 128,-1,24
 35 -65 35 -65 49 -65 c 1,0,-1
EndSplineSet
Substitution2: "'salt' Stylistic Alternatives lookup 78 subtable" parenright_alt
Substitution2: "'ss01' Style Set 1 lookup 77 subtable" parenright_alt
Substitution2: "'sinf' Scientific Inferiors lookup 33 subtable" parenright.inferior
Substitution2: "'subs' Subscript lookup 32 subtable" parenright.inferior
Substitution2: "'sups' Superscript lookup 31 subtable" parenright.superior
AlternateSubs2: "'aalt' Access All Alternates lookup 1 subtable" parenright.superior parenright.inferior
EndChar

StartChar: asterisk
Encoding: 42 42 11
Width: 297
Flags: W
LayerCount: 2
Fore
SplineSet
146 582 m 1,0,-1
 167 527 l 1,1,-1
 23 575 l 1,2,3
 20 586 20 586 20 595 c 0,4,5
 20 609 20 609 28 617.5 c 128,-1,6
 36 626 36 626 49 626 c 0,7,8
 54 626 54 626 59 624 c 128,-1,9
 64 622 64 622 70 620 c 2,10,-1
 146 582 l 1,0,-1
179 558 m 1,11,-1
 99 440 l 2,12,13
 95 439 95 439 92 439 c 128,-1,14
 89 439 89 439 86 439 c 0,15,16
 67 439 67 439 58 447 c 128,-1,17
 49 455 49 455 49 467 c 0,18,19
 49 475 49 475 52.5 481.5 c 128,-1,20
 56 488 56 488 61 493 c 2,21,-1
 113 552 l 1,22,-1
 179 558 l 1,11,-1
135 538 m 1,23,-1
 160 583 l 1,24,-1
 256 469 l 1,25,26
 254 456 254 456 244 447.5 c 128,-1,27
 234 439 234 439 222 439 c 0,28,29
 212 439 212 439 203 447 c 128,-1,30
 194 455 194 455 187 464 c 2,31,-1
 135 538 l 1,23,-1
123 562 m 1,32,-1
 253 635 l 1,33,34
 262 631 262 631 269.5 622 c 128,-1,35
 277 613 277 613 277 601 c 0,36,37
 277 590 277 590 270.5 584 c 128,-1,38
 264 578 264 578 253 573 c 2,39,-1
 168 532 l 1,40,-1
 123 562 l 1,32,-1
174 567 m 1,41,-1
 126 540 l 1,42,-1
 121 687 l 1,43,44
 126 690 126 690 133.5 693 c 128,-1,45
 141 696 141 696 151 696 c 0,46,47
 164 696 164 696 172 690 c 128,-1,48
 180 684 180 684 180 671 c 0,49,50
 180 665 180 665 178.5 643.5 c 128,-1,51
 177 622 177 622 175.5 599.5 c 128,-1,52
 174 577 174 577 174 567 c 1,41,-1
EndSplineSet
Substitution2: "'salt' Stylistic Alternatives lookup 78 subtable" asterisk_alt
Substitution2: "'ss01' Style Set 1 lookup 77 subtable" asterisk_alt
EndChar

StartChar: plus
Encoding: 43 43 12
Width: 548
Flags: W
LayerCount: 2
Fore
SplineSet
462 266 m 2,0,-1
 58 266 l 1,1,2
 55 273 55 273 53 280.5 c 128,-1,3
 51 288 51 288 51 298 c 0,4,5
 51 315 51 315 60.5 323.5 c 128,-1,6
 70 332 70 332 86 332 c 2,7,-1
 490 332 l 1,8,9
 492 326 492 326 494.5 318 c 128,-1,10
 497 310 497 310 497 301 c 0,11,12
 497 285 497 285 488 275.5 c 128,-1,13
 479 266 479 266 462 266 c 2,0,-1
312 488 m 2,14,-1
 312 73 l 1,15,16
 305 70 305 70 297 68 c 128,-1,17
 289 66 289 66 278 66 c 0,18,19
 258 66 258 66 248.5 75 c 128,-1,20
 239 84 239 84 239 106 c 2,21,-1
 239 521 l 1,22,23
 247 524 247 524 255.5 526 c 128,-1,24
 264 528 264 528 276 528 c 0,25,26
 295 528 295 528 303.5 519 c 128,-1,27
 312 510 312 510 312 488 c 2,14,-1
EndSplineSet
EndChar

StartChar: comma
Encoding: 44 44 13
Width: 145
Flags: W
LayerCount: 2
Fore
SplineSet
68 -94 m 1,0,-1
 68 -94 l 1,1,2
 52 -121 52 -121 29 -121 c 0,3,4
 7 -121 7 -121 -7 -104 c 1,5,6
 2 -78 2 -78 13.5 -42.5 c 128,-1,7
 25 -7 25 -7 35 30 c 128,-1,8
 45 67 45 67 50 94 c 1,9,10
 58 98 58 98 67.5 100.5 c 128,-1,11
 77 103 77 103 88 103 c 0,12,13
 106 103 106 103 116 94.5 c 128,-1,14
 126 86 126 86 126 66 c 0,15,16
 126 44 126 44 115.5 11.5 c 128,-1,17
 105 -21 105 -21 91 -50.5 c 128,-1,18
 77 -80 77 -80 68 -94 c 1,0,-1
EndSplineSet
EndChar

StartChar: hyphen
Encoding: 45 45 14
Width: 389
Flags: W
LayerCount: 2
Fore
SplineSet
300 228 m 2,0,-1
 61 228 l 1,1,2
 58 235 58 235 56 242.5 c 128,-1,3
 54 250 54 250 54 260 c 0,4,5
 54 277 54 277 63.5 285.5 c 128,-1,6
 73 294 73 294 89 294 c 2,7,-1
 328 294 l 1,8,9
 330 288 330 288 332.5 280 c 128,-1,10
 335 272 335 272 335 263 c 0,11,12
 335 247 335 247 326 237.5 c 128,-1,13
 317 228 317 228 300 228 c 2,0,-1
EndSplineSet
EndChar

StartChar: period
Encoding: 46 46 15
Width: 141
Flags: W
LayerCount: 2
Fore
SplineSet
16 42 m 1,0,-1
 16 42 l 1,1,2
 16 66 16 66 30.5 82 c 128,-1,3
 45 98 45 98 71 98 c 256,4,5
 97 98 97 98 111 82 c 128,-1,6
 125 66 125 66 125 42 c 0,7,8
 125 19 125 19 111 3 c 128,-1,9
 97 -13 97 -13 71 -13 c 256,10,11
 45 -13 45 -13 30.5 3 c 128,-1,12
 16 19 16 19 16 42 c 1,0,-1
EndSplineSet
EndChar

StartChar: slash
Encoding: 47 47 16
Width: 304
Flags: W
LayerCount: 2
Fore
SplineSet
272 664 m 2,0,-1
 87 -65 l 1,1,2
 82 -66 82 -66 76 -66.5 c 128,-1,3
 70 -67 70 -67 62 -67 c 0,4,5
 44 -67 44 -67 34.5 -57.5 c 128,-1,6
 25 -48 25 -48 25 -32 c 0,7,8
 25 -21 25 -21 28.5 -7 c 128,-1,9
 32 7 32 7 34 16 c 2,10,-1
 219 745 l 1,11,12
 225 746 225 746 231 746.5 c 128,-1,13
 237 747 237 747 244 747 c 0,14,15
 261 747 261 747 271 738.5 c 128,-1,16
 281 730 281 730 281 712 c 0,17,18
 281 702 281 702 278 689 c 128,-1,19
 275 676 275 676 272 664 c 2,0,-1
EndSplineSet
Substitution2: "'salt' Stylistic Alternatives lookup 78 subtable" slash_alt
Substitution2: "'ss01' Style Set 1 lookup 77 subtable" slash_alt
Substitution2: "Single Substitution lookup 3 subtable" fraction
Substitution2: "'aalt' Access All Alternates lookup 0 subtable" fraction
EndChar

StartChar: zero
Encoding: 48 48 17
Width: 579
Flags: W
LayerCount: 2
Fore
SplineSet
450 304 m 1,0,-1
 450 304 l 1,1,2
 450 396 450 396 428 451.5 c 128,-1,3
 406 507 406 507 369.5 532 c 128,-1,4
 333 557 333 557 290 557 c 256,5,6
 247 557 247 557 210 531 c 128,-1,7
 173 505 173 505 151 449.5 c 128,-1,8
 129 394 129 394 129 304 c 0,9,10
 129 182 129 182 171.5 116 c 128,-1,11
 214 50 214 50 290 50 c 256,12,13
 366 50 366 50 408 116 c 128,-1,14
 450 182 450 182 450 304 c 1,0,-1
290 -13 m 1,15,-1
 290 -13 l 1,16,17
 220 -13 220 -13 167 21.5 c 128,-1,18
 114 56 114 56 84.5 126.5 c 128,-1,19
 55 197 55 197 55 304 c 0,20,21
 55 420 55 420 89 489 c 128,-1,22
 123 558 123 558 176.5 589 c 128,-1,23
 230 620 230 620 290 620 c 256,24,25
 350 620 350 620 403.5 588.5 c 128,-1,26
 457 557 457 557 490.5 487.5 c 128,-1,27
 524 418 524 418 524 304 c 0,28,29
 524 198 524 198 494.5 127.5 c 128,-1,30
 465 57 465 57 412.5 22 c 128,-1,31
 360 -13 360 -13 290 -13 c 1,15,-1
EndSplineSet
Substitution2: "'salt' Stylistic Alternatives lookup 78 subtable" zero_alt
Substitution2: "'ss01' Style Set 1 lookup 77 subtable" zero_alt
Substitution2: "'sinf' Scientific Inferiors lookup 33 subtable" zero.inferior
Substitution2: "'subs' Subscript lookup 32 subtable" zero.inferior
Substitution2: "'sups' Superscript lookup 31 subtable" zero.superior
Substitution2: "'dnom' Denominators lookup 30 subtable" zero.dnom
Substitution2: "'numr' Numerators lookup 29 subtable" zero.numr
Substitution2: "'tnum' Tabular Numbers lookup 28 subtable" tabularzero
Substitution2: "Single Substitution lookup 25 subtable" zero.dnom
Substitution2: "Single Substitution lookup 23 subtable" zero.numr
Substitution2: "Single Substitution lookup 21 subtable" zero.numr
Substitution2: "Single Substitution lookup 19 subtable" zero.numr
Substitution2: "Single Substitution lookup 17 subtable" zero.numr
Substitution2: "Single Substitution lookup 15 subtable" zero.numr
Substitution2: "Single Substitution lookup 13 subtable" zero.numr
Substitution2: "Single Substitution lookup 11 subtable" zero.numr
Substitution2: "Single Substitution lookup 9 subtable" zero.numr
Substitution2: "Single Substitution lookup 7 subtable" zero.numr
Substitution2: "Single Substitution lookup 5 subtable" zero.numr
AlternateSubs2: "'aalt' Access All Alternates lookup 1 subtable" tabularzero zero.dnom zero.numr zero.superior zero.inferior
EndChar

StartChar: one
Encoding: 49 49 18
Width: 352
Flags: W
LayerCount: 2
Fore
SplineSet
247 231 m 1,0,-1
 175 231 l 1,1,-1
 175 537 l 1,2,-1
 44 475 l 1,3,4
 31 479 31 479 23 488.5 c 128,-1,5
 15 498 15 498 15 512 c 0,6,7
 15 537 15 537 48 552 c 2,8,-1
 190 615 l 1,9,-1
 208 615 l 2,10,11
 226 615 226 615 236.5 604 c 128,-1,12
 247 593 247 593 247 575 c 2,13,-1
 247 231 l 1,0,-1
175 264 m 1,14,-1
 247 264 l 1,15,-1
 247 -1 l 1,16,17
 243 -3 243 -3 233.5 -5.5 c 128,-1,18
 224 -8 224 -8 213 -8 c 0,19,20
 194 -8 194 -8 184.5 0.5 c 128,-1,21
 175 9 175 9 175 25 c 2,22,-1
 175 264 l 1,14,-1
EndSplineSet
Substitution2: "'salt' Stylistic Alternatives lookup 78 subtable" one_alt
Substitution2: "'ss01' Style Set 1 lookup 77 subtable" one_alt
Substitution2: "'sinf' Scientific Inferiors lookup 33 subtable" one.inferior
Substitution2: "'subs' Subscript lookup 32 subtable" one.inferior
Substitution2: "'sups' Superscript lookup 31 subtable" uni00B9
Substitution2: "'dnom' Denominators lookup 30 subtable" one.dnom
Substitution2: "'numr' Numerators lookup 29 subtable" one.numr
Substitution2: "'tnum' Tabular Numbers lookup 28 subtable" tabularone
Substitution2: "Single Substitution lookup 25 subtable" one.dnom
Substitution2: "Single Substitution lookup 23 subtable" one.numr
Substitution2: "Single Substitution lookup 21 subtable" one.numr
Substitution2: "Single Substitution lookup 19 subtable" one.numr
Substitution2: "Single Substitution lookup 17 subtable" one.numr
Substitution2: "Single Substitution lookup 15 subtable" one.numr
Substitution2: "Single Substitution lookup 13 subtable" one.numr
Substitution2: "Single Substitution lookup 11 subtable" one.numr
Substitution2: "Single Substitution lookup 9 subtable" one.numr
Substitution2: "Single Substitution lookup 7 subtable" one.numr
Substitution2: "Single Substitution lookup 5 subtable" one.numr
AlternateSubs2: "'aalt' Access All Alternates lookup 1 subtable" uni00B9 tabularone one.dnom one.numr one.inferior
EndChar

StartChar: two
Encoding: 50 50 19
Width: 506
Flags: W
LayerCount: 2
Fore
SplineSet
57 547 m 1,0,-1
 57 547 l 1,1,2
 57 564 57 564 80 581 c 128,-1,3
 103 598 103 598 141.5 609 c 128,-1,4
 180 620 180 620 225 620 c 0,5,6
 288 620 288 620 333.5 598.5 c 128,-1,7
 379 577 379 577 404 538 c 128,-1,8
 429 499 429 499 429 446 c 0,9,10
 429 391 429 391 398.5 338 c 128,-1,11
 368 285 368 285 293 215 c 2,12,-1
 128 61 l 1,13,-1
 429 61 l 1,14,15
 432 57 432 57 435 49 c 128,-1,16
 438 41 438 41 438 31 c 0,17,18
 438 18 438 18 430.5 9 c 128,-1,19
 423 0 423 0 409 0 c 2,20,-1
 56 0 l 1,21,22
 48 7 48 7 43 16 c 128,-1,23
 38 25 38 25 38 35 c 0,24,25
 38 49 38 49 43.5 61.5 c 128,-1,26
 49 74 49 74 60 85 c 2,27,-1
 244 261 l 2,28,29
 306 320 306 320 330 361.5 c 128,-1,30
 354 403 354 403 354 447 c 0,31,32
 354 496 354 496 320.5 526.5 c 128,-1,33
 287 557 287 557 221 557 c 0,34,35
 177 557 177 557 142 542 c 128,-1,36
 107 527 107 527 84 510 c 1,37,38
 74 514 74 514 65.5 523.5 c 128,-1,39
 57 533 57 533 57 547 c 1,0,-1
EndSplineSet
Substitution2: "'salt' Stylistic Alternatives lookup 78 subtable" two_alt
Substitution2: "'ss01' Style Set 1 lookup 77 subtable" two_alt
Substitution2: "'sinf' Scientific Inferiors lookup 33 subtable" two.inferior
Substitution2: "'subs' Subscript lookup 32 subtable" two.inferior
Substitution2: "'sups' Superscript lookup 31 subtable" uni00B2
Substitution2: "'dnom' Denominators lookup 30 subtable" two.dnom
Substitution2: "'numr' Numerators lookup 29 subtable" two.numr
Substitution2: "'tnum' Tabular Numbers lookup 28 subtable" tabulartwo
Substitution2: "Single Substitution lookup 25 subtable" two.dnom
Substitution2: "Single Substitution lookup 23 subtable" two.numr
Substitution2: "Single Substitution lookup 21 subtable" two.numr
Substitution2: "Single Substitution lookup 19 subtable" two.numr
Substitution2: "Single Substitution lookup 17 subtable" two.numr
Substitution2: "Single Substitution lookup 15 subtable" two.numr
Substitution2: "Single Substitution lookup 13 subtable" two.numr
Substitution2: "Single Substitution lookup 11 subtable" two.numr
Substitution2: "Single Substitution lookup 9 subtable" two.numr
Substitution2: "Single Substitution lookup 7 subtable" two.numr
Substitution2: "Single Substitution lookup 5 subtable" two.numr
AlternateSubs2: "'aalt' Access All Alternates lookup 1 subtable" uni00B2 tabulartwo two.dnom two.numr two.inferior
EndChar

StartChar: three
Encoding: 51 51 20
Width: 504
Flags: W
LayerCount: 2
Fore
SplineSet
215 621 m 1,0,-1
 215 621 l 1,1,2
 308 621 308 621 367 579.5 c 128,-1,3
 426 538 426 538 426 455 c 0,4,5
 426 415 426 415 409 386.5 c 128,-1,6
 392 358 392 358 369 342 c 128,-1,7
 346 326 346 326 328 321 c 1,8,9
 355 313 355 313 381.5 293.5 c 128,-1,10
 408 274 408 274 426 243.5 c 128,-1,11
 444 213 444 213 444 170 c 0,12,13
 444 110 444 110 415 70 c 128,-1,14
 386 30 386 30 335.5 9.5 c 128,-1,15
 285 -11 285 -11 218 -11 c 0,16,17
 164 -11 164 -11 122 0.5 c 128,-1,18
 80 12 80 12 56 29.5 c 128,-1,19
 32 47 32 47 32 66 c 0,20,21
 32 80 32 80 39.5 89 c 128,-1,22
 47 98 47 98 58 104 c 1,23,24
 84 84 84 84 122 68 c 128,-1,25
 160 52 160 52 220 52 c 0,26,27
 288 52 288 52 330 81.5 c 128,-1,28
 372 111 372 111 372 171 c 0,29,30
 372 224 372 224 333 256.5 c 128,-1,31
 294 289 294 289 220 289 c 2,32,-1
 137 289 l 1,33,34
 133 294 133 294 130.5 302.5 c 128,-1,35
 128 311 128 311 128 320 c 0,36,37
 128 330 128 330 130.5 338 c 128,-1,38
 133 346 133 346 137 351 c 1,39,-1
 212 351 l 2,40,41
 288 351 288 351 321 380 c 128,-1,42
 354 409 354 409 354 455 c 0,43,44
 354 506 354 506 317 532 c 128,-1,45
 280 558 280 558 216 558 c 0,46,47
 168 558 168 558 131 543 c 128,-1,48
 94 528 94 528 70 511 c 1,49,50
 61 516 61 516 53 526 c 128,-1,51
 45 536 45 536 45 549 c 0,52,53
 45 566 45 566 67.5 582.5 c 128,-1,54
 90 599 90 599 129 610 c 128,-1,55
 168 621 168 621 215 621 c 1,0,-1
EndSplineSet
Substitution2: "'salt' Stylistic Alternatives lookup 78 subtable" three_alt
Substitution2: "'ss01' Style Set 1 lookup 77 subtable" three_alt
Substitution2: "'sinf' Scientific Inferiors lookup 33 subtable" three.inferior
Substitution2: "'subs' Subscript lookup 32 subtable" three.inferior
Substitution2: "'sups' Superscript lookup 31 subtable" uni00B3
Substitution2: "'dnom' Denominators lookup 30 subtable" three.dnom
Substitution2: "'numr' Numerators lookup 29 subtable" three.numr
Substitution2: "'tnum' Tabular Numbers lookup 28 subtable" tabularthree
Substitution2: "Single Substitution lookup 25 subtable" three.dnom
Substitution2: "Single Substitution lookup 23 subtable" three.numr
Substitution2: "Single Substitution lookup 21 subtable" three.numr
Substitution2: "Single Substitution lookup 19 subtable" three.numr
Substitution2: "Single Substitution lookup 17 subtable" three.numr
Substitution2: "Single Substitution lookup 15 subtable" three.numr
Substitution2: "Single Substitution lookup 13 subtable" three.numr
Substitution2: "Single Substitution lookup 11 subtable" three.numr
Substitution2: "Single Substitution lookup 9 subtable" three.numr
Substitution2: "Single Substitution lookup 7 subtable" three.numr
Substitution2: "Single Substitution lookup 5 subtable" three.numr
AlternateSubs2: "'aalt' Access All Alternates lookup 1 subtable" uni00B3 tabularthree three.dnom three.numr three.inferior
EndChar

StartChar: four
Encoding: 52 52 21
Width: 543
Flags: W
LayerCount: 2
Fore
SplineSet
30 217 m 2,0,-1
 326 609 l 1,1,2
 335 611 335 611 345.5 612.5 c 128,-1,3
 356 614 356 614 364 614 c 0,4,5
 377 614 377 614 388 610 c 128,-1,6
 399 606 399 606 406 596.5 c 128,-1,7
 413 587 413 587 413 569 c 2,8,-1
 413 211 l 1,9,-1
 515 211 l 1,10,11
 518 207 518 207 520.5 199 c 128,-1,12
 523 191 523 191 523 182 c 0,13,14
 523 168 523 168 516 159 c 128,-1,15
 509 150 509 150 495 150 c 2,16,-1
 413 150 l 1,17,-1
 413 -2 l 1,18,19
 409 -3 409 -3 400.5 -5.5 c 128,-1,20
 392 -8 392 -8 382 -8 c 0,21,22
 363 -8 363 -8 353 0.5 c 128,-1,23
 343 9 343 9 343 24 c 2,24,-1
 343 150 l 1,25,-1
 50 150 l 1,26,27
 40 155 40 155 33.5 166.5 c 128,-1,28
 27 178 27 178 27 193 c 0,29,30
 27 202 27 202 28 207 c 128,-1,31
 29 212 29 212 30 217 c 2,0,-1
343 211 m 1,32,-1
 345 537 l 1,33,-1
 343 537 l 1,34,-1
 113 211 l 1,35,-1
 343 211 l 1,32,-1
EndSplineSet
Substitution2: "'salt' Stylistic Alternatives lookup 78 subtable" four_alt
Substitution2: "'ss01' Style Set 1 lookup 77 subtable" four_alt
Substitution2: "'sinf' Scientific Inferiors lookup 33 subtable" four.inferior
Substitution2: "'subs' Subscript lookup 32 subtable" four.inferior
Substitution2: "'sups' Superscript lookup 31 subtable" four.superior
Substitution2: "'dnom' Denominators lookup 30 subtable" four.dnom
Substitution2: "'numr' Numerators lookup 29 subtable" four.numr
Substitution2: "'tnum' Tabular Numbers lookup 28 subtable" tabularfour
Substitution2: "Single Substitution lookup 25 subtable" four.dnom
Substitution2: "Single Substitution lookup 23 subtable" four.numr
Substitution2: "Single Substitution lookup 21 subtable" four.numr
Substitution2: "Single Substitution lookup 19 subtable" four.numr
Substitution2: "Single Substitution lookup 17 subtable" four.numr
Substitution2: "Single Substitution lookup 15 subtable" four.numr
Substitution2: "Single Substitution lookup 13 subtable" four.numr
Substitution2: "Single Substitution lookup 11 subtable" four.numr
Substitution2: "Single Substitution lookup 9 subtable" four.numr
Substitution2: "Single Substitution lookup 7 subtable" four.numr
Substitution2: "Single Substitution lookup 5 subtable" four.numr
AlternateSubs2: "'aalt' Access All Alternates lookup 1 subtable" tabularfour four.dnom four.numr four.superior four.inferior
EndChar

StartChar: five
Encoding: 53 53 22
Width: 537
Flags: W
LayerCount: 2
Fore
SplineSet
200 608 m 1,0,-1
 172 552 l 1,1,-1
 155 358 l 1,2,3
 172 368 172 368 203.5 377 c 128,-1,4
 235 386 235 386 269 386 c 0,5,6
 328 386 328 386 376 364 c 128,-1,7
 424 342 424 342 453 298.5 c 128,-1,8
 482 255 482 255 482 190 c 0,9,10
 482 132 482 132 455.5 86 c 128,-1,11
 429 40 429 40 379 13.5 c 128,-1,12
 329 -13 329 -13 257 -13 c 0,13,14
 201 -13 201 -13 158 -0.5 c 128,-1,15
 115 12 115 12 91.5 31 c 128,-1,16
 68 50 68 50 68 67 c 0,17,18
 68 81 68 81 78 92.5 c 128,-1,19
 88 104 88 104 98 108 c 1,20,21
 120 89 120 89 160.5 69 c 128,-1,22
 201 49 201 49 259 49 c 0,23,24
 330 49 330 49 369.5 89 c 128,-1,25
 409 129 409 129 409 190 c 0,26,27
 409 254 409 254 368.5 289 c 128,-1,28
 328 324 328 324 263 324 c 0,29,30
 226 324 226 324 196.5 313 c 128,-1,31
 167 302 167 302 141 287 c 1,32,33
 116 289 116 289 100.5 302.5 c 128,-1,34
 85 316 85 316 85 337 c 0,35,36
 85 343 85 343 85.5 353.5 c 128,-1,37
 86 364 86 364 87 371 c 2,38,-1
 104 566 l 2,39,40
 106 586 106 586 116.5 597 c 128,-1,41
 127 608 127 608 146 608 c 2,42,-1
 200 608 l 1,0,-1
160 545 m 1,43,-1
 160 608 l 1,44,-1
 453 608 l 1,45,46
 456 604 456 604 459 596 c 128,-1,47
 462 588 462 588 462 579 c 0,48,49
 462 564 462 564 454.5 554.5 c 128,-1,50
 447 545 447 545 433 545 c 2,51,-1
 160 545 l 1,43,-1
EndSplineSet
Substitution2: "'salt' Stylistic Alternatives lookup 78 subtable" five_alt
Substitution2: "'ss01' Style Set 1 lookup 77 subtable" five_alt
Substitution2: "'sinf' Scientific Inferiors lookup 33 subtable" five.inferior
Substitution2: "'subs' Subscript lookup 32 subtable" five.inferior
Substitution2: "'sups' Superscript lookup 31 subtable" five.superior
Substitution2: "'dnom' Denominators lookup 30 subtable" five.dnom
Substitution2: "'numr' Numerators lookup 29 subtable" five.numr
Substitution2: "'tnum' Tabular Numbers lookup 28 subtable" tabularfive
Substitution2: "Single Substitution lookup 25 subtable" five.dnom
Substitution2: "Single Substitution lookup 23 subtable" five.numr
Substitution2: "Single Substitution lookup 21 subtable" five.numr
Substitution2: "Single Substitution lookup 19 subtable" five.numr
Substitution2: "Single Substitution lookup 17 subtable" five.numr
Substitution2: "Single Substitution lookup 15 subtable" five.numr
Substitution2: "Single Substitution lookup 13 subtable" five.numr
Substitution2: "Single Substitution lookup 11 subtable" five.numr
Substitution2: "Single Substitution lookup 9 subtable" five.numr
Substitution2: "Single Substitution lookup 7 subtable" five.numr
Substitution2: "Single Substitution lookup 5 subtable" five.numr
AlternateSubs2: "'aalt' Access All Alternates lookup 1 subtable" tabularfive five.dnom five.numr five.superior five.inferior
EndChar

StartChar: six
Encoding: 54 54 23
Width: 548
Flags: W
LayerCount: 2
Fore
SplineSet
452 563 m 1,0,-1
 452 563 l 1,1,2
 452 552 452 552 445.5 542.5 c 128,-1,3
 439 533 439 533 429 528 c 1,4,5
 409 539 409 539 381 547.5 c 128,-1,6
 353 556 353 556 320 556 c 0,7,8
 267 556 267 556 224 530.5 c 128,-1,9
 181 505 181 505 155.5 452 c 128,-1,10
 130 399 130 399 129 316 c 1,11,12
 148 336 148 336 190.5 359.5 c 128,-1,13
 233 383 233 383 296 383 c 0,14,15
 384 383 384 383 441 333.5 c 128,-1,16
 498 284 498 284 498 186 c 0,17,18
 498 124 498 124 471.5 79 c 128,-1,19
 445 34 445 34 398 10.5 c 128,-1,20
 351 -13 351 -13 287 -13 c 0,21,22
 221 -13 221 -13 168.5 17 c 128,-1,23
 116 47 116 47 85.5 112.5 c 128,-1,24
 55 178 55 178 55 285 c 0,25,26
 55 380 55 380 77.5 444.5 c 128,-1,27
 100 509 100 509 138 547.5 c 128,-1,28
 176 586 176 586 223.5 603 c 128,-1,29
 271 620 271 620 320 620 c 0,30,31
 354 620 354 620 384 613 c 128,-1,32
 414 606 414 606 433 593.5 c 128,-1,33
 452 581 452 581 452 563 c 1,0,-1
287 49 m 1,34,-1
 287 49 l 1,35,36
 347 49 347 49 385.5 85.5 c 128,-1,37
 424 122 424 122 424 189 c 0,38,39
 424 255 424 255 385 288 c 128,-1,40
 346 321 346 321 289 321 c 0,41,42
 231 321 231 321 189.5 296.5 c 128,-1,43
 148 272 148 272 124 237 c 1,44,-1
 127 246 l 1,45,46
 127 158 127 158 169 103.5 c 128,-1,47
 211 49 211 49 287 49 c 1,34,-1
EndSplineSet
Substitution2: "'salt' Stylistic Alternatives lookup 78 subtable" six_alt
Substitution2: "'ss01' Style Set 1 lookup 77 subtable" six_alt
Substitution2: "'sinf' Scientific Inferiors lookup 33 subtable" six.inferior
Substitution2: "'subs' Subscript lookup 32 subtable" six.inferior
Substitution2: "'sups' Superscript lookup 31 subtable" six.superior
Substitution2: "'dnom' Denominators lookup 30 subtable" six.dnom
Substitution2: "'numr' Numerators lookup 29 subtable" six.numr
Substitution2: "'tnum' Tabular Numbers lookup 28 subtable" tabularsix
Substitution2: "Single Substitution lookup 25 subtable" six.dnom
Substitution2: "Single Substitution lookup 23 subtable" six.numr
Substitution2: "Single Substitution lookup 21 subtable" six.numr
Substitution2: "Single Substitution lookup 19 subtable" six.numr
Substitution2: "Single Substitution lookup 17 subtable" six.numr
Substitution2: "Single Substitution lookup 15 subtable" six.numr
Substitution2: "Single Substitution lookup 13 subtable" six.numr
Substitution2: "Single Substitution lookup 11 subtable" six.numr
Substitution2: "Single Substitution lookup 9 subtable" six.numr
Substitution2: "Single Substitution lookup 7 subtable" six.numr
Substitution2: "Single Substitution lookup 5 subtable" six.numr
AlternateSubs2: "'aalt' Access All Alternates lookup 1 subtable" tabularsix six.dnom six.numr six.superior six.inferior
EndChar

StartChar: seven
Encoding: 55 55 24
Width: 455
Flags: W
LayerCount: 2
Fore
SplineSet
53 608 m 2,0,-1
 414 608 l 1,1,2
 424 602 424 602 429.5 592.5 c 128,-1,3
 435 583 435 583 435 571 c 0,4,5
 435 553 435 553 424 531 c 2,6,-1
 169 -4 l 2,7,8
 165 -5 165 -5 159.5 -5 c 128,-1,9
 154 -5 154 -5 149 -5 c 0,10,11
 131 -5 131 -5 118.5 4 c 128,-1,12
 106 13 106 13 106 28 c 0,13,14
 106 39 106 39 110.5 50 c 128,-1,15
 115 61 115 61 122 74 c 2,16,-1
 353 545 l 1,17,-1
 33 545 l 1,18,19
 30 550 30 550 27 557.5 c 128,-1,20
 24 565 24 565 24 575 c 0,21,22
 24 589 24 589 31.5 598.5 c 128,-1,23
 39 608 39 608 53 608 c 2,0,-1
EndSplineSet
Substitution2: "'salt' Stylistic Alternatives lookup 78 subtable" seven_alt
Substitution2: "'ss01' Style Set 1 lookup 77 subtable" seven_alt
Substitution2: "'sinf' Scientific Inferiors lookup 33 subtable" seven.inferior
Substitution2: "'subs' Subscript lookup 32 subtable" seven.inferior
Substitution2: "'sups' Superscript lookup 31 subtable" seven.superior
Substitution2: "'dnom' Denominators lookup 30 subtable" seven.dnom
Substitution2: "'numr' Numerators lookup 29 subtable" seven.numr
Substitution2: "'tnum' Tabular Numbers lookup 28 subtable" tabularseven
Substitution2: "Single Substitution lookup 25 subtable" seven.dnom
Substitution2: "Single Substitution lookup 23 subtable" seven.numr
Substitution2: "Single Substitution lookup 21 subtable" seven.numr
Substitution2: "Single Substitution lookup 19 subtable" seven.numr
Substitution2: "Single Substitution lookup 17 subtable" seven.numr
Substitution2: "Single Substitution lookup 15 subtable" seven.numr
Substitution2: "Single Substitution lookup 13 subtable" seven.numr
Substitution2: "Single Substitution lookup 11 subtable" seven.numr
Substitution2: "Single Substitution lookup 9 subtable" seven.numr
Substitution2: "Single Substitution lookup 7 subtable" seven.numr
Substitution2: "Single Substitution lookup 5 subtable" seven.numr
AlternateSubs2: "'aalt' Access All Alternates lookup 1 subtable" tabularseven seven.dnom seven.numr seven.superior seven.inferior
EndChar

StartChar: eight
Encoding: 56 56 25
Width: 567
Flags: W
LayerCount: 2
Fore
SplineSet
212 326 m 2,0,-1
 271 336 l 2,1,2
 346 350 346 350 383 378.5 c 128,-1,3
 420 407 420 407 420 454 c 0,4,5
 420 503 420 503 383.5 530.5 c 128,-1,6
 347 558 347 558 284 558 c 0,7,8
 223 558 223 558 185.5 530 c 128,-1,9
 148 502 148 502 148 455 c 0,10,11
 148 416 148 416 169 392 c 128,-1,12
 190 368 190 368 225.5 356.5 c 128,-1,13
 261 345 261 345 304 341 c 1,14,-1
 343 328 l 1,15,16
 385 320 385 320 422.5 299.5 c 128,-1,17
 460 279 460 279 483.5 245 c 128,-1,18
 507 211 507 211 507 160 c 0,19,20
 507 106 507 106 478.5 67 c 128,-1,21
 450 28 450 28 400 7.5 c 128,-1,22
 350 -13 350 -13 284 -13 c 0,23,24
 216 -13 216 -13 165.5 7.5 c 128,-1,25
 115 28 115 28 87.5 67 c 128,-1,26
 60 106 60 106 60 161 c 0,27,28
 60 210 60 210 82.5 244 c 128,-1,29
 105 278 105 278 140 298.5 c 128,-1,30
 175 319 175 319 212 326 c 2,0,-1
344 307 m 2,31,-1
 278 295 l 2,32,33
 214 285 214 285 173.5 251 c 128,-1,34
 133 217 133 217 133 160 c 0,35,36
 133 108 133 108 173.5 78.5 c 128,-1,37
 214 49 214 49 284 49 c 0,38,39
 352 49 352 49 393 78 c 128,-1,40
 434 107 434 107 434 161 c 0,41,42
 434 222 434 222 385 256.5 c 128,-1,43
 336 291 336 291 253 296 c 1,44,-1
 202 309 l 2,45,46
 144 325 144 325 109.5 361 c 128,-1,47
 75 397 75 397 75 455 c 0,48,49
 75 506 75 506 101.5 543 c 128,-1,50
 128 580 128 580 175 600 c 128,-1,51
 222 620 222 620 284 620 c 0,52,53
 381 620 381 620 437 575.5 c 128,-1,54
 493 531 493 531 493 453 c 0,55,56
 493 390 493 390 449.5 354 c 128,-1,57
 406 318 406 318 344 307 c 2,31,-1
EndSplineSet
Substitution2: "'salt' Stylistic Alternatives lookup 78 subtable" eight_alt
Substitution2: "'ss01' Style Set 1 lookup 77 subtable" eight_alt
Substitution2: "'sinf' Scientific Inferiors lookup 33 subtable" eight.inferior
Substitution2: "'subs' Subscript lookup 32 subtable" eight.inferior
Substitution2: "'sups' Superscript lookup 31 subtable" eight.superior
Substitution2: "'dnom' Denominators lookup 30 subtable" eight.dnom
Substitution2: "'numr' Numerators lookup 29 subtable" eight.numr
Substitution2: "'tnum' Tabular Numbers lookup 28 subtable" tabulareight
Substitution2: "Single Substitution lookup 25 subtable" eight.dnom
Substitution2: "Single Substitution lookup 23 subtable" eight.numr
Substitution2: "Single Substitution lookup 21 subtable" eight.numr
Substitution2: "Single Substitution lookup 19 subtable" eight.numr
Substitution2: "Single Substitution lookup 17 subtable" eight.numr
Substitution2: "Single Substitution lookup 15 subtable" eight.numr
Substitution2: "Single Substitution lookup 13 subtable" eight.numr
Substitution2: "Single Substitution lookup 11 subtable" eight.numr
Substitution2: "Single Substitution lookup 9 subtable" eight.numr
Substitution2: "Single Substitution lookup 7 subtable" eight.numr
Substitution2: "Single Substitution lookup 5 subtable" eight.numr
AlternateSubs2: "'aalt' Access All Alternates lookup 1 subtable" tabulareight eight.dnom eight.numr eight.superior eight.inferior
EndChar

StartChar: nine
Encoding: 57 57 26
Width: 550
Flags: W
LayerCount: 2
Fore
SplineSet
82 47 m 1,0,-1
 82 47 l 1,1,2
 82 58 82 58 88 68.5 c 128,-1,3
 94 79 94 79 104 83 c 1,4,5
 123 72 123 72 154 61.5 c 128,-1,6
 185 51 185 51 228 51 c 0,7,8
 281 51 281 51 324.5 74 c 128,-1,9
 368 97 368 97 394.5 149 c 128,-1,10
 421 201 421 201 421 288 c 1,11,12
 413 278 413 278 392.5 262.5 c 128,-1,13
 372 247 372 247 340 235.5 c 128,-1,14
 308 224 308 224 265 224 c 0,15,16
 209 224 209 224 160.5 243.5 c 128,-1,17
 112 263 112 263 82 305.5 c 128,-1,18
 52 348 52 348 52 418 c 0,19,20
 52 482 52 482 80.5 527 c 128,-1,21
 109 572 109 572 156.5 596 c 128,-1,22
 204 620 204 620 261 620 c 0,23,24
 329 620 329 620 381.5 589 c 128,-1,25
 434 558 434 558 464.5 492.5 c 128,-1,26
 495 427 495 427 495 323 c 0,27,28
 495 200 495 200 461 126 c 128,-1,29
 427 52 427 52 367 19.5 c 128,-1,30
 307 -13 307 -13 227 -13 c 0,31,32
 168 -13 168 -13 125 3 c 128,-1,33
 82 19 82 19 82 47 c 1,0,-1
274 286 m 1,34,-1
 274 286 l 1,35,36
 328 286 328 286 369 313 c 128,-1,37
 410 340 410 340 423 372 c 1,38,-1
 422 359 l 1,39,40
 422 451 422 451 379.5 504.5 c 128,-1,41
 337 558 337 558 261 558 c 0,42,43
 203 558 203 558 164.5 521.5 c 128,-1,44
 126 485 126 485 126 420 c 0,45,46
 126 349 126 349 169.5 317.5 c 128,-1,47
 213 286 213 286 274 286 c 1,34,-1
EndSplineSet
Substitution2: "'salt' Stylistic Alternatives lookup 78 subtable" nine_alt
Substitution2: "'ss01' Style Set 1 lookup 77 subtable" nine_alt
Substitution2: "'sinf' Scientific Inferiors lookup 33 subtable" nine.inferior
Substitution2: "'subs' Subscript lookup 32 subtable" nine.inferior
Substitution2: "'sups' Superscript lookup 31 subtable" nine.superior
Substitution2: "'dnom' Denominators lookup 30 subtable" nine.dnom
Substitution2: "'numr' Numerators lookup 29 subtable" nine.numr
Substitution2: "'tnum' Tabular Numbers lookup 28 subtable" tabularnine
Substitution2: "Single Substitution lookup 25 subtable" nine.dnom
Substitution2: "Single Substitution lookup 23 subtable" nine.numr
Substitution2: "Single Substitution lookup 21 subtable" nine.numr
Substitution2: "Single Substitution lookup 19 subtable" nine.numr
Substitution2: "Single Substitution lookup 17 subtable" nine.numr
Substitution2: "Single Substitution lookup 15 subtable" nine.numr
Substitution2: "Single Substitution lookup 13 subtable" nine.numr
Substitution2: "Single Substitution lookup 11 subtable" nine.numr
Substitution2: "Single Substitution lookup 9 subtable" nine.numr
Substitution2: "Single Substitution lookup 7 subtable" nine.numr
Substitution2: "Single Substitution lookup 5 subtable" nine.numr
AlternateSubs2: "'aalt' Access All Alternates lookup 1 subtable" tabularnine nine.dnom nine.numr nine.superior nine.inferior
EndChar

StartChar: colon
Encoding: 58 58 27
Width: 189
Flags: W
LayerCount: 2
Fore
SplineSet
40 392 m 1,0,-1
 40 392 l 1,1,2
 40 416 40 416 54.5 432 c 128,-1,3
 69 448 69 448 94 448 c 0,4,5
 120 448 120 448 134.5 432 c 128,-1,6
 149 416 149 416 149 392 c 256,7,8
 149 368 149 368 134.5 352.5 c 128,-1,9
 120 337 120 337 94 337 c 0,10,11
 69 337 69 337 54.5 352.5 c 128,-1,12
 40 368 40 368 40 392 c 1,0,-1
40 42 m 1,13,-1
 40 42 l 1,14,15
 40 66 40 66 54 82 c 128,-1,16
 68 98 68 98 94 98 c 256,17,18
 120 98 120 98 134.5 82 c 128,-1,19
 149 66 149 66 149 42 c 0,20,21
 149 19 149 19 134.5 3 c 128,-1,22
 120 -13 120 -13 94 -13 c 256,23,24
 68 -13 68 -13 54 3 c 128,-1,25
 40 19 40 19 40 42 c 1,13,-1
EndSplineSet
EndChar

StartChar: semicolon
Encoding: 59 59 28
Width: 202
Flags: W
LayerCount: 2
Fore
SplineSet
46 392 m 1,0,-1
 46 392 l 1,1,2
 46 416 46 416 60 432 c 128,-1,3
 74 448 74 448 100 448 c 256,4,5
 126 448 126 448 140.5 432 c 128,-1,6
 155 416 155 416 155 392 c 256,7,8
 155 368 155 368 140.5 352.5 c 128,-1,9
 126 337 126 337 100 337 c 256,10,11
 74 337 74 337 60 352.5 c 128,-1,12
 46 368 46 368 46 392 c 1,0,-1
89 -94 m 1,13,-1
 89 -94 l 1,14,15
 73 -121 73 -121 50 -121 c 0,16,17
 28 -121 28 -121 14 -104 c 1,18,19
 23 -78 23 -78 34.5 -42.5 c 128,-1,20
 46 -7 46 -7 56 30 c 128,-1,21
 66 67 66 67 71 94 c 1,22,23
 79 98 79 98 88.5 100.5 c 128,-1,24
 98 103 98 103 109 103 c 0,25,26
 127 103 127 103 137 94.5 c 128,-1,27
 147 86 147 86 147 66 c 0,28,29
 147 44 147 44 136.5 11.5 c 128,-1,30
 126 -21 126 -21 112 -50.5 c 128,-1,31
 98 -80 98 -80 89 -94 c 1,13,-1
EndSplineSet
EndChar

StartChar: less
Encoding: 60 60 29
Width: 473
Flags: W
LayerCount: 2
Fore
SplineSet
132 301 m 1,0,-1
 440 141 l 2,1,2
 441 136 441 136 441 132 c 128,-1,3
 441 128 441 128 441 123 c 0,4,5
 441 108 441 108 431 98 c 128,-1,6
 421 88 421 88 404 88 c 0,7,8
 397 88 397 88 388 91.5 c 128,-1,9
 379 95 379 95 369 101 c 2,10,-1
 64 267 l 1,11,12
 54 282 54 282 54 300 c 0,13,14
 54 315 54 315 59 324.5 c 128,-1,15
 64 334 64 334 71 338 c 2,16,-1
 405 509 l 1,17,18
 422 503 422 503 430 493 c 128,-1,19
 438 483 438 483 438 471 c 0,20,21
 438 455 438 455 428 445 c 128,-1,22
 418 435 418 435 402 425 c 2,23,-1
 132 301 l 1,0,-1
EndSplineSet
EndChar

StartChar: equal
Encoding: 61 61 30
Width: 518
Flags: W
LayerCount: 2
Fore
SplineSet
431 363 m 2,0,-1
 58 363 l 1,1,2
 55 369 55 369 53 377 c 128,-1,3
 51 385 51 385 51 394 c 0,4,5
 51 411 51 411 60.5 419.5 c 128,-1,6
 70 428 70 428 86 428 c 2,7,-1
 460 428 l 1,8,9
 462 422 462 422 464 414.5 c 128,-1,10
 466 407 466 407 466 397 c 0,11,12
 466 381 466 381 457 372 c 128,-1,13
 448 363 448 363 431 363 c 2,0,-1
431 161 m 2,14,-1
 58 161 l 1,15,16
 55 167 55 167 53 174.5 c 128,-1,17
 51 182 51 182 51 192 c 0,18,19
 51 209 51 209 60.5 217.5 c 128,-1,20
 70 226 70 226 86 226 c 2,21,-1
 460 226 l 1,22,23
 462 220 462 220 464 212 c 128,-1,24
 466 204 466 204 466 195 c 0,25,26
 466 179 466 179 457 170 c 128,-1,27
 448 161 448 161 431 161 c 2,14,-1
EndSplineSet
EndChar

StartChar: greater
Encoding: 62 62 31
Width: 460
Flags: W
LayerCount: 2
Fore
SplineSet
331 302 m 1,0,-1
 33 459 l 2,1,2
 32 464 32 464 32 468.5 c 128,-1,3
 32 473 32 473 32 477 c 0,4,5
 32 491 32 491 42 501.5 c 128,-1,6
 52 512 52 512 68 512 c 0,7,8
 76 512 76 512 84.5 508.5 c 128,-1,9
 93 505 93 505 103 500 c 2,10,-1
 399 334 l 1,11,12
 409 319 409 319 409 300 c 0,13,14
 409 285 409 285 404.5 276 c 128,-1,15
 400 267 400 267 392 262 c 2,16,-1
 68 92 l 1,17,18
 51 97 51 97 43 107.5 c 128,-1,19
 35 118 35 118 35 130 c 0,20,21
 35 146 35 146 45 156 c 128,-1,22
 55 166 55 166 71 175 c 2,23,-1
 331 302 l 1,0,-1
EndSplineSet
EndChar

StartChar: question
Encoding: 63 63 32
Width: 458
Flags: W
LayerCount: 2
Fore
SplineSet
211 237 m 2,0,-1
 114 207 l 1,1,2
 106 216 106 216 100.5 226.5 c 128,-1,3
 95 237 95 237 95 249 c 0,4,5
 95 263 95 263 102.5 271.5 c 128,-1,6
 110 280 110 280 130 286 c 2,7,-1
 199 307 l 2,8,9
 270 330 270 330 304.5 366.5 c 128,-1,10
 339 403 339 403 339 467 c 0,11,12
 339 523 339 523 301 563 c 128,-1,13
 263 603 263 603 185 603 c 0,14,15
 148 603 148 603 112 590.5 c 128,-1,16
 76 578 76 578 49 555 c 1,17,18
 39 563 39 563 33 573.5 c 128,-1,19
 27 584 27 584 27 597 c 0,20,21
 27 616 27 616 47 633 c 128,-1,22
 67 650 67 650 103.5 661 c 128,-1,23
 140 672 140 672 187 672 c 0,24,25
 258 672 258 672 310 645.5 c 128,-1,26
 362 619 362 619 390 573 c 128,-1,27
 418 527 418 527 418 468 c 0,28,29
 418 407 418 407 395.5 363 c 128,-1,30
 373 319 373 319 327 289 c 128,-1,31
 281 259 281 259 211 237 c 2,0,-1
104 44 m 1,32,-1
 104 44 l 1,33,34
 104 67 104 67 119 83 c 128,-1,35
 134 99 134 99 159 99 c 0,36,37
 185 99 185 99 199.5 83 c 128,-1,38
 214 67 214 67 214 44 c 256,39,40
 214 21 214 21 199.5 5 c 128,-1,41
 185 -11 185 -11 159 -11 c 0,42,43
 134 -11 134 -11 119 5 c 128,-1,44
 104 21 104 21 104 44 c 1,32,-1
EndSplineSet
Substitution2: "'salt' Stylistic Alternatives lookup 78 subtable" question_alt
Substitution2: "'ss01' Style Set 1 lookup 77 subtable" question_alt
EndChar

StartChar: at
Encoding: 64 64 33
Width: 1000
Flags: W
LayerCount: 2
Fore
SplineSet
380 200 m 1,0,-1
 380 200 l 1,1,2
 380 136 380 136 412.5 101 c 128,-1,3
 445 66 445 66 503 66 c 0,4,5
 538 66 538 66 566 81 c 128,-1,6
 594 96 594 96 620 127 c 1,7,-1
 632 53 l 1,8,9
 611 31 611 31 577 15.5 c 128,-1,10
 543 0 543 0 492 0 c 0,11,12
 405 0 405 0 351.5 53 c 128,-1,13
 298 106 298 106 298 200 c 0,14,15
 298 272 298 272 327 323.5 c 128,-1,16
 356 375 356 375 407.5 402 c 128,-1,17
 459 429 459 429 528 429 c 0,18,19
 563 429 563 429 596 421 c 128,-1,20
 629 413 629 413 652 401 c 0,21,22
 693 381 693 381 693 352 c 0,23,24
 693 345 693 345 692.5 337 c 128,-1,25
 692 329 692 329 691 322 c 2,26,-1
 665 60 l 1,27,-1
 586 60 l 1,28,-1
 614 344 l 1,29,30
 598 352 598 352 575 357.5 c 128,-1,31
 552 363 552 363 523 363 c 0,32,33
 459 363 459 363 419.5 320.5 c 128,-1,34
 380 278 380 278 380 200 c 1,0,-1
608 37 m 1,35,-1
 608 37 l 1,36,37
 613 52 613 52 619.5 64.5 c 128,-1,38
 626 77 626 77 633.5 84 c 128,-1,39
 641 91 641 91 650 91 c 1,40,41
 662 81 662 81 680.5 71 c 128,-1,42
 699 61 699 61 726 61 c 0,43,44
 791 61 791 61 824 118.5 c 128,-1,45
 857 176 857 176 857 267 c 0,46,47
 857 362 857 362 815 434 c 128,-1,48
 773 506 773 506 696.5 546.5 c 128,-1,49
 620 587 620 587 516 587 c 0,50,51
 400 587 400 587 314 539 c 128,-1,52
 228 491 228 491 181 405 c 128,-1,53
 134 319 134 319 134 204 c 0,54,55
 134 95 134 95 178 14 c 128,-1,56
 222 -67 222 -67 301.5 -111.5 c 128,-1,57
 381 -156 381 -156 486 -156 c 0,58,59
 524 -156 524 -156 553 -151.5 c 128,-1,60
 582 -147 582 -147 602 -141 c 1,61,62
 608 -147 608 -147 611.5 -155 c 128,-1,63
 615 -163 615 -163 615 -172 c 0,64,65
 615 -187 615 -187 602.5 -198 c 128,-1,66
 590 -209 590 -209 560.5 -215 c 128,-1,67
 531 -221 531 -221 480 -221 c 0,68,69
 404 -221 404 -221 338.5 -202 c 128,-1,70
 273 -183 273 -183 220.5 -146.5 c 128,-1,71
 168 -110 168 -110 131 -58 c 128,-1,72
 94 -6 94 -6 74.5 60 c 128,-1,73
 55 126 55 126 55 204 c 0,74,75
 55 305 55 305 87.5 387.5 c 128,-1,76
 120 470 120 470 180.5 529 c 128,-1,77
 241 588 241 588 325.5 620 c 128,-1,78
 410 652 410 652 515 652 c 0,79,80
 613 652 613 652 691 624.5 c 128,-1,81
 769 597 769 597 823.5 546 c 128,-1,82
 878 495 878 495 907 424 c 128,-1,83
 936 353 936 353 936 266 c 0,84,85
 936 137 936 137 883 66 c 128,-1,86
 830 -5 830 -5 726 -5 c 0,87,88
 695 -5 695 -5 663.5 6 c 128,-1,89
 632 17 632 17 608 37 c 1,35,-1
EndSplineSet
EndChar

StartChar: A
Encoding: 65 65 34
Width: 739
Flags: W
LayerCount: 2
Fore
SplineSet
577 27 m 2,0,-1
 577 671 l 1,1,2
 583 673 583 673 590.5 674 c 128,-1,3
 598 675 598 675 606 675 c 0,4,5
 626 675 626 675 637.5 669 c 128,-1,6
 649 663 649 663 649 644 c 2,7,-1
 649 -2 l 1,8,9
 642 -4 642 -4 634.5 -5 c 128,-1,10
 627 -6 627 -6 621 -6 c 0,11,12
 599 -6 599 -6 588 1 c 128,-1,13
 577 8 577 8 577 27 c 2,0,-1
58 548 m 0,14,15
 58 596 58 596 75.5 626 c 128,-1,16
 93 656 93 656 121 670.5 c 128,-1,17
 149 685 149 685 180 685 c 0,18,19
 219 685 219 685 244 666.5 c 128,-1,20
 269 648 269 648 278 625 c 1,21,22
 291 654 291 654 316 669.5 c 128,-1,23
 341 685 341 685 377 685 c 0,24,25
 408 685 408 685 435.5 670 c 128,-1,26
 463 655 463 655 481 622 c 128,-1,27
 499 589 499 589 499 533 c 0,28,29
 499 460 499 460 473.5 415 c 128,-1,30
 448 370 448 370 400.5 346 c 128,-1,31
 353 322 353 322 285 311 c 2,32,-1
 273 309 l 2,33,34
 197 296 197 296 162.5 269 c 128,-1,35
 128 242 128 242 128 185 c 0,36,37
 128 132 128 132 175.5 94 c 128,-1,38
 223 56 223 56 331 56 c 0,39,40
 397 56 397 56 448 73 c 128,-1,41
 499 90 499 90 534 115 c 128,-1,42
 569 140 569 140 585 165 c 1,43,-1
 595 86 l 1,44,45
 578 66 578 66 541.5 44 c 128,-1,46
 505 22 505 22 449.5 6.5 c 128,-1,47
 394 -9 394 -9 320 -9 c 0,48,49
 190 -9 190 -9 120.5 44 c 128,-1,50
 51 97 51 97 51 185 c 0,51,52
 51 247 51 247 76.5 284.5 c 128,-1,53
 102 322 102 322 150.5 343 c 128,-1,54
 199 364 199 364 267 374 c 2,55,-1
 280 376 l 2,56,57
 357 388 357 388 394 423.5 c 128,-1,58
 431 459 431 459 431 536 c 0,59,60
 431 589 431 589 412 608 c 128,-1,61
 393 627 393 627 370 627 c 0,62,63
 346 627 346 627 329 610 c 128,-1,64
 312 593 312 593 312 556 c 2,65,-1
 312 470 l 1,66,67
 305 466 305 466 295.5 464 c 128,-1,68
 286 462 286 462 278 462 c 0,69,70
 269 462 269 462 260 464.5 c 128,-1,71
 251 467 251 467 246 471 c 1,72,-1
 246 556 l 2,73,74
 246 593 246 593 228.5 610 c 128,-1,75
 211 627 211 627 188 627 c 0,76,77
 166 627 166 627 147 609 c 128,-1,78
 128 591 128 591 128 550 c 0,79,80
 128 516 128 516 138.5 496.5 c 128,-1,81
 149 477 149 477 160 464 c 1,82,83
 157 454 157 454 147.5 446.5 c 128,-1,84
 138 439 138 439 124 439 c 0,85,86
 108 439 108 439 92.5 451.5 c 128,-1,87
 77 464 77 464 67.5 488.5 c 128,-1,88
 58 513 58 513 58 548 c 0,14,15
EndSplineSet
Substitution2: "Single Substitution lookup 35 subtable" ordfeminine
Substitution2: "'aalt' Access All Alternates lookup 0 subtable" ordfeminine
EndChar

StartChar: B
Encoding: 66 66 35
Width: 550
Flags: W
AnchorPoint: "Anchor-2" 484 76 basechar 0
AnchorPoint: "Anchor-1" 388 868 basechar 0
AnchorPoint: "Anchor-0" 641 726 basechar 0
LayerCount: 2
Fore
SplineSet
513 255 m 1,0,-1
 525 180 l 1,1,2
 519 161 519 161 498.5 148 c 128,-1,3
 478 135 478 135 447 135 c 0,4,5
 399 135 399 135 363.5 164.5 c 128,-1,6
 328 194 328 194 328 260 c 0,7,8
 328 306 328 306 343 330.5 c 128,-1,9
 358 355 358 355 381 355 c 0,10,11
 393 355 393 355 401 348.5 c 128,-1,12
 409 342 409 342 413 335 c 1,13,14
 407 325 407 325 400.5 306.5 c 128,-1,15
 394 288 394 288 394 264 c 0,16,17
 394 229 394 229 411.5 211 c 128,-1,18
 429 193 429 193 458 193 c 0,19,20
 481 193 481 193 497 208.5 c 128,-1,21
 513 224 513 224 513 255 c 1,0,-1
511 170 m 1,22,-1
 511 170 l 1,23,24
 513 187 513 187 514.5 196.5 c 128,-1,25
 516 206 516 206 513 231 c 0,26,27
 513 249 513 249 512 265 c 128,-1,28
 511 281 511 281 510 294.5 c 128,-1,29
 509 308 509 308 507.5 320 c 128,-1,30
 506 332 506 332 504 342 c 1,31,32
 510 345 510 345 518.5 347.5 c 128,-1,33
 527 350 527 350 536 350 c 0,34,35
 552 350 552 350 561.5 338.5 c 128,-1,36
 571 327 571 327 575 304 c 0,37,38
 578 287 578 287 579.5 266.5 c 128,-1,39
 581 246 581 246 581 228 c 0,40,41
 581 142 581 142 551.5 89.5 c 128,-1,42
 522 37 522 37 474 14 c 128,-1,43
 426 -9 426 -9 369 -9 c 0,44,45
 306 -9 306 -9 255.5 16 c 128,-1,46
 205 41 205 41 176 90 c 128,-1,47
 147 139 147 139 147 210 c 0,48,49
 147 219 147 219 147.5 230.5 c 128,-1,50
 148 242 148 242 149 248 c 2,51,-1
 151 268 l 1,52,53
 164 320 164 320 186 348.5 c 128,-1,54
 208 377 208 377 232 377 c 0,55,56
 251 377 251 377 258.5 365.5 c 128,-1,57
 266 354 266 354 268 343 c 1,58,59
 252 330 252 330 234.5 297.5 c 128,-1,60
 217 265 217 265 217 215 c 0,61,62
 217 137 217 137 259.5 95 c 128,-1,63
 302 53 302 53 370 53 c 0,64,65
 428 53 428 53 466 83 c 128,-1,66
 504 113 504 113 511 170 c 1,22,-1
183 269 m 1,67,-1
 160 206 l 1,68,69
 138 214 138 214 111 236.5 c 128,-1,70
 84 259 84 259 65 300 c 128,-1,71
 46 341 46 341 46 405 c 0,72,73
 46 490 46 490 90 555 c 128,-1,74
 134 620 134 620 211.5 657.5 c 128,-1,75
 289 695 289 695 389 695 c 0,76,77
 474 695 474 695 543 668.5 c 128,-1,78
 612 642 612 642 661.5 593.5 c 128,-1,79
 711 545 711 545 737.5 478.5 c 128,-1,80
 764 412 764 412 764 332 c 0,81,82
 764 273 764 273 752.5 227 c 128,-1,83
 741 181 741 181 725.5 147.5 c 128,-1,84
 710 114 710 114 698 92 c 1,85,86
 709 82 709 82 730 62 c 128,-1,87
 751 42 751 42 773.5 20.5 c 128,-1,88
 796 -1 796 -1 809 -13 c 1,89,90
 808 -31 808 -31 797.5 -43 c 128,-1,91
 787 -55 787 -55 768 -55 c 0,92,93
 752 -55 752 -55 734 -42 c 128,-1,94
 716 -29 716 -29 693.5 -1.5 c 128,-1,95
 671 26 671 26 642 67 c 0,96,97
 635 77 635 77 633.5 82 c 128,-1,98
 632 87 632 87 632 92 c 0,99,100
 632 99 632 99 635 105 c 128,-1,101
 638 111 638 111 641 118 c 0,102,103
 655 150 655 150 672.5 200.5 c 128,-1,104
 690 251 690 251 690 327 c 0,105,106
 690 424 690 424 650 491.5 c 128,-1,107
 610 559 610 559 541.5 594.5 c 128,-1,108
 473 630 473 630 389 630 c 0,109,110
 314 630 314 630 253 602 c 128,-1,111
 192 574 192 574 156 523 c 128,-1,112
 120 472 120 472 120 402 c 0,113,114
 120 350 120 350 135.5 318 c 128,-1,115
 151 286 151 286 183 269 c 1,67,-1
EndSplineSet
EndChar

StartChar: C
Encoding: 67 67 36
Width: 718
Flags: W
AnchorPoint: "Anchor-2" 528 35 basechar 0
AnchorPoint: "Anchor-1" 350 868 basechar 0
AnchorPoint: "Anchor-0" 557 726 basechar 0
LayerCount: 2
Fore
SplineSet
321 114 m 1,0,-1
 367 114 l 1,1,2
 367 114 367 114 378 118 c 128,-1,3
 389 122 389 122 406 128 c 128,-1,4
 423 134 423 134 439.5 140.5 c 128,-1,5
 456 147 456 147 467 151 c 128,-1,6
 478 155 478 155 478 155 c 1,7,8
 519 155 519 155 552 130 c 128,-1,9
 585 105 585 105 585 56 c 0,10,11
 585 14 585 14 555 -15 c 128,-1,12
 525 -44 525 -44 468 -44 c 0,13,14
 426 -44 426 -44 395.5 -28 c 128,-1,15
 365 -12 365 -12 342 16 c 1,16,17
 318 -12 318 -12 287.5 -28 c 128,-1,18
 257 -44 257 -44 216 -44 c 0,19,20
 162 -44 162 -44 131 -17 c 128,-1,21
 100 10 100 10 100 56 c 0,22,23
 100 106 100 106 133 130.5 c 128,-1,24
 166 155 166 155 209 155 c 1,25,26
 209 155 209 155 220.5 151 c 128,-1,27
 232 147 232 147 248.5 141 c 128,-1,28
 265 135 265 135 281.5 128.5 c 128,-1,29
 298 122 298 122 309.5 118 c 128,-1,30
 321 114 321 114 321 114 c 1,0,-1
504 233 m 1,31,-1
 504 233 l 1,32,33
 504 207 504 207 495 182 c 128,-1,34
 486 157 486 157 471 140 c 1,35,36
 442 122 442 122 396 113.5 c 128,-1,37
 350 105 350 105 301 111 c 128,-1,38
 252 117 252 117 214 144 c 0,39,40
 201 154 201 154 190 176.5 c 128,-1,41
 179 199 179 199 179 227 c 2,42,43
 179 227 179 227 180 235 c 128,-1,44
 181 243 181 243 182.5 253 c 128,-1,45
 184 263 184 263 185 271 c 128,-1,46
 186 279 186 279 186 279 c 1,47,48
 200 324 200 324 240 357 c 128,-1,49
 280 390 280 390 341 390 c 0,50,51
 385 390 385 390 422 371 c 128,-1,52
 459 352 459 352 481.5 317 c 128,-1,53
 504 282 504 282 504 233 c 1,31,-1
245 226 m 1,54,-1
 245 226 l 1,55,56
 245 180 245 180 272 151 c 128,-1,57
 299 122 299 122 341 122 c 0,58,59
 387 122 387 122 412.5 152 c 128,-1,60
 438 182 438 182 438 226 c 0,61,62
 438 273 438 273 410 302 c 128,-1,63
 382 331 382 331 341 331 c 0,64,65
 298 331 298 331 271.5 302 c 128,-1,66
 245 273 245 273 245 226 c 1,54,-1
222 8 m 1,67,-1
 222 8 l 1,68,69
 253 8 253 8 275.5 22.5 c 128,-1,70
 298 37 298 37 311 56 c 1,71,72
 297 77 297 77 274.5 92.5 c 128,-1,73
 252 108 252 108 225 108 c 0,74,75
 197 108 197 108 179.5 94 c 128,-1,76
 162 80 162 80 162 57 c 0,77,78
 162 35 162 35 178.5 21.5 c 128,-1,79
 195 8 195 8 222 8 c 1,67,-1
462 108 m 1,80,-1
 462 108 l 1,81,82
 432 108 432 108 409.5 90.5 c 128,-1,83
 387 73 387 73 375 56 c 1,84,85
 389 33 389 33 413 20.5 c 128,-1,86
 437 8 437 8 464 8 c 0,87,88
 490 8 490 8 506.5 22 c 128,-1,89
 523 36 523 36 523 58 c 256,90,91
 523 80 523 80 506.5 94 c 128,-1,92
 490 108 490 108 462 108 c 1,80,-1
214 281 m 1,93,-1
 214 281 l 1,94,95
 210 265 210 265 206.5 249 c 128,-1,96
 203 233 203 233 199 217 c 1,97,98
 163 224 163 224 127.5 250 c 128,-1,99
 92 276 92 276 69 321.5 c 128,-1,100
 46 367 46 367 46 432 c 0,101,102
 46 510 46 510 84 569 c 128,-1,103
 122 628 122 628 190 661.5 c 128,-1,104
 258 695 258 695 349 695 c 0,105,106
 424 695 424 695 483.5 671 c 128,-1,107
 543 647 543 647 585 605 c 128,-1,108
 627 563 627 563 649.5 507.5 c 128,-1,109
 672 452 672 452 672 389 c 0,110,111
 672 337 672 337 664 304.5 c 128,-1,112
 656 272 656 272 645 255 c 0,113,114
 637 242 637 242 627 234.5 c 128,-1,115
 617 227 617 227 601 227 c 0,116,117
 588 227 588 227 579 234 c 128,-1,118
 570 241 570 241 566 248 c 1,119,120
 577 271 577 271 588 305 c 128,-1,121
 599 339 599 339 599 388 c 0,122,123
 599 454 599 454 568.5 509 c 128,-1,124
 538 564 538 564 482 597.5 c 128,-1,125
 426 631 426 631 347 631 c 0,126,127
 280 631 280 631 228.5 606 c 128,-1,128
 177 581 177 581 148 536 c 128,-1,129
 119 491 119 491 119 431 c 0,130,131
 119 370 119 370 146.5 331.5 c 128,-1,132
 174 293 174 293 214 281 c 1,93,-1
EndSplineSet
EndChar

StartChar: D
Encoding: 68 68 37
Width: 689
Flags: W
AnchorPoint: "Anchor-2" 508 76 basechar 0
AnchorPoint: "Anchor-1" 355 868 basechar 0
AnchorPoint: "Anchor-0" 566 726 basechar 0
LayerCount: 2
Fore
SplineSet
443 184 m 1,0,-1
 457 122 l 1,1,2
 447 106 447 106 418 92.5 c 128,-1,3
 389 79 389 79 345 79 c 0,4,5
 305 79 305 79 274 91.5 c 128,-1,6
 243 104 243 104 221 126 c 128,-1,7
 199 148 199 148 187.5 178.5 c 128,-1,8
 176 209 176 209 176 245 c 1,9,-1
 181 279 l 2,10,11
 184 303 184 303 196.5 327.5 c 128,-1,12
 209 352 209 352 228 368.5 c 128,-1,13
 247 385 247 385 268 385 c 0,14,15
 284 385 284 385 292 374.5 c 128,-1,16
 300 364 300 364 304 352 c 1,17,18
 279 334 279 334 262.5 307.5 c 128,-1,19
 246 281 246 281 246 243 c 0,20,21
 246 194 246 194 276.5 168.5 c 128,-1,22
 307 143 307 143 353 143 c 0,23,24
 382 143 382 143 406.5 153.5 c 128,-1,25
 431 164 431 164 443 184 c 1,0,-1
439 27 m 2,26,-1
 439 365 l 1,27,28
 446 367 446 367 453.5 368 c 128,-1,29
 461 369 461 369 467 369 c 0,30,31
 490 369 490 369 499 362 c 128,-1,32
 508 355 508 355 508 336 c 2,33,-1
 508 -2 l 1,34,35
 501 -4 501 -4 493.5 -5 c 128,-1,36
 486 -6 486 -6 480 -6 c 0,37,38
 457 -6 457 -6 448 1 c 128,-1,39
 439 8 439 8 439 27 c 2,26,-1
192 281 m 1,40,-1
 183 217 l 1,41,42
 149 227 149 227 117.5 252.5 c 128,-1,43
 86 278 86 278 66 320.5 c 128,-1,44
 46 363 46 363 46 421 c 0,45,46
 46 506 46 506 86 567 c 128,-1,47
 126 628 126 628 195 661.5 c 128,-1,48
 264 695 264 695 351 695 c 0,49,50
 420 695 420 695 480.5 674 c 128,-1,51
 541 653 541 653 587.5 613 c 128,-1,52
 634 573 634 573 660.5 515.5 c 128,-1,53
 687 458 687 458 687 384 c 0,54,55
 687 335 687 335 678 303.5 c 128,-1,56
 669 272 669 272 661 257 c 0,57,58
 651 240 651 240 640.5 233.5 c 128,-1,59
 630 227 630 227 616 227 c 0,60,61
 603 227 603 227 593.5 233.5 c 128,-1,62
 584 240 584 240 580 248 c 1,63,64
 591 271 591 271 602 302.5 c 128,-1,65
 613 334 613 334 613 383 c 0,66,67
 613 460 613 460 578 515 c 128,-1,68
 543 570 543 570 483.5 600 c 128,-1,69
 424 630 424 630 351 630 c 0,70,71
 283 630 283 630 230.5 604.5 c 128,-1,72
 178 579 178 579 149 532.5 c 128,-1,73
 120 486 120 486 120 423 c 0,74,75
 120 365 120 365 140.5 331.5 c 128,-1,76
 161 298 161 298 192 281 c 1,40,-1
EndSplineSet
EndChar

StartChar: E
Encoding: 69 69 38
Width: 641
Flags: W
LayerCount: 2
Fore
SplineSet
551 638 m 2,0,-1
 551 20 l 1,1,2
 541 8 541 8 528.5 -1 c 128,-1,3
 516 -10 516 -10 498 -17 c 1,4,5
 411 -1 411 -1 338.5 36.5 c 128,-1,6
 266 74 266 74 209.5 126.5 c 128,-1,7
 153 179 153 179 114 242 c 128,-1,8
 75 305 75 305 54.5 372.5 c 128,-1,9
 34 440 34 440 34 507 c 0,10,11
 34 531 34 531 43.5 546 c 128,-1,12
 53 561 53 561 76 561 c 0,13,14
 85 561 85 561 92.5 558.5 c 128,-1,15
 100 556 100 556 104 554 c 2,16,-1
 107 517 l 2,17,18
 116 405 116 405 166 310.5 c 128,-1,19
 216 216 216 216 297 150.5 c 128,-1,20
 378 85 378 85 479 59 c 1,21,-1
 479 581 l 1,22,23
 452 556 452 556 432 537.5 c 128,-1,24
 412 519 412 519 392.5 501 c 128,-1,25
 373 483 373 483 348 460.5 c 128,-1,26
 323 438 323 438 287 406 c 1,27,28
 267 408 267 408 254.5 419.5 c 128,-1,29
 242 431 242 431 242 447 c 0,30,31
 242 461 242 461 248 470.5 c 128,-1,32
 254 480 254 480 273 496 c 0,33,34
 348 559 348 559 394.5 599.5 c 128,-1,35
 441 640 441 640 480 671 c 0,36,37
 484 673 484 673 491 674 c 128,-1,38
 498 675 498 675 505 675 c 0,39,40
 521 675 521 675 531 671 c 128,-1,41
 541 667 541 667 546 659 c 128,-1,42
 551 651 551 651 551 638 c 2,0,-1
EndSplineSet
EndChar

StartChar: F
Encoding: 70 70 39
Width: 649
Flags: W
AnchorPoint: "Anchor-2" 591 76 basechar 0
AnchorPoint: "Anchor-1" 335 868 basechar 0
AnchorPoint: "Anchor-0" 569 726 basechar 0
LayerCount: 2
Fore
SplineSet
573 426 m 1,0,-1
 566 604 l 1,1,2
 574 615 574 615 588.5 625.5 c 128,-1,3
 603 636 603 636 623.5 643.5 c 128,-1,4
 644 651 644 651 669 651 c 0,5,6
 704 651 704 651 735 635.5 c 128,-1,7
 766 620 766 620 785.5 589.5 c 128,-1,8
 805 559 805 559 805 514 c 0,9,10
 805 471 805 471 788.5 440.5 c 128,-1,11
 772 410 772 410 742 393.5 c 128,-1,12
 712 377 712 377 673 377 c 0,13,14
 630 377 630 377 607.5 392 c 128,-1,15
 585 407 585 407 573 426 c 1,0,-1
591 514 m 1,16,-1
 591 514 l 1,17,18
 591 476 591 476 612.5 455.5 c 128,-1,19
 634 435 634 435 665 435 c 0,20,21
 698 435 698 435 718.5 456 c 128,-1,22
 739 477 739 477 739 514 c 256,23,24
 739 551 739 551 718.5 572 c 128,-1,25
 698 593 698 593 665 593 c 256,26,27
 632 593 632 593 611.5 572 c 128,-1,28
 591 551 591 551 591 514 c 1,16,-1
523 140 m 1,29,-1
 535 64 l 1,30,31
 526 49 526 49 502 32 c 128,-1,32
 478 15 478 15 441 3 c 128,-1,33
 404 -9 404 -9 356 -9 c 0,34,35
 286 -9 286 -9 237.5 15 c 128,-1,36
 189 39 189 39 164 81 c 128,-1,37
 139 123 139 123 139 177 c 0,38,39
 139 210 139 210 146.5 232.5 c 128,-1,40
 154 255 154 255 163 270 c 2,41,-1
 184 295 l 2,42,43
 203 320 203 320 239.5 338.5 c 128,-1,44
 276 357 276 357 321 357 c 0,45,46
 345 357 345 357 356 348.5 c 128,-1,47
 367 340 367 340 367 321 c 0,48,49
 367 317 367 317 366.5 309.5 c 128,-1,50
 366 302 366 302 364 299 c 2,51,-1
 339 298 l 2,52,53
 284 296 284 296 247.5 267.5 c 128,-1,54
 211 239 211 239 211 180 c 0,55,56
 211 124 211 124 250 89 c 128,-1,57
 289 54 289 54 363 54 c 0,58,59
 404 54 404 54 437.5 67.5 c 128,-1,60
 471 81 471 81 493.5 101 c 128,-1,61
 516 121 516 121 523 140 c 1,29,-1
524 78 m 1,62,-1
 519 78 l 1,63,-1
 519 578 l 1,64,65
 500 595 500 595 453 612.5 c 128,-1,66
 406 630 406 630 348 630 c 0,67,68
 282 630 282 630 230.5 608 c 128,-1,69
 179 586 179 586 149.5 545 c 128,-1,70
 120 504 120 504 120 445 c 0,71,72
 120 388 120 388 144 353 c 128,-1,73
 168 318 168 318 202 300 c 1,74,-1
 172 246 l 1,75,76
 143 257 143 257 113.5 282 c 128,-1,77
 84 307 84 307 65 348 c 128,-1,78
 46 389 46 389 46 445 c 0,79,80
 46 524 46 524 84 580 c 128,-1,81
 122 636 122 636 189.5 665.5 c 128,-1,82
 257 695 257 695 344 695 c 0,83,84
 397 695 397 695 442.5 683 c 128,-1,85
 488 671 488 671 523.5 652.5 c 128,-1,86
 559 634 559 634 582 613 c 1,87,-1
 591 448 l 1,88,-1
 591 -2 l 1,89,90
 584 -4 584 -4 577 -5 c 128,-1,91
 570 -6 570 -6 564 -6 c 0,92,93
 542 -6 542 -6 533 1 c 128,-1,94
 524 8 524 8 524 23 c 2,95,-1
 524 78 l 1,62,-1
EndSplineSet
EndChar

StartChar: G
Encoding: 71 71 40
Width: 733
Flags: W
AnchorPoint: "Anchor-1" 355 868 basechar 0
LayerCount: 2
Fore
SplineSet
574 111 m 1,0,-1
 586 50 l 1,1,2
 581 31 581 31 558.5 11 c 128,-1,3
 536 -9 536 -9 492 -9 c 0,4,5
 452 -9 452 -9 424.5 9 c 128,-1,6
 397 27 397 27 383 55 c 1,7,8
 372 31 372 31 342.5 11 c 128,-1,9
 313 -9 313 -9 263 -9 c 0,10,11
 222 -9 222 -9 186.5 9 c 128,-1,12
 151 27 151 27 129 68 c 128,-1,13
 107 109 107 109 107 178 c 0,14,15
 107 225 107 225 115.5 254.5 c 128,-1,16
 124 284 124 284 135 302 c 2,17,-1
 146 321 l 2,18,19
 168 357 168 357 193 374.5 c 128,-1,20
 218 392 218 392 237 392 c 0,21,22
 263 392 263 392 269.5 376 c 128,-1,23
 276 360 276 360 276 348 c 1,24,25
 236 336 236 336 206.5 292.5 c 128,-1,26
 177 249 177 249 177 178 c 0,27,28
 177 131 177 131 190.5 103.5 c 128,-1,29
 204 76 204 76 225 64.5 c 128,-1,30
 246 53 246 53 270 53 c 0,31,32
 307 53 307 53 327.5 77.5 c 128,-1,33
 348 102 348 102 348 145 c 2,34,-1
 348 254 l 1,35,36
 360 261 360 261 382 261 c 0,37,38
 391 261 391 261 401 259.5 c 128,-1,39
 411 258 411 258 416 254 c 1,40,-1
 416 141 l 2,41,42
 416 102 416 102 436.5 77.5 c 128,-1,43
 457 53 457 53 495 53 c 0,44,45
 524 53 524 53 545.5 68 c 128,-1,46
 567 83 567 83 574 111 c 1,0,-1
576 21 m 2,47,-1
 576 64 l 1,48,-1
 571 64 l 1,49,-1
 571 571 l 1,50,51
 543 591 543 591 488.5 610.5 c 128,-1,52
 434 630 434 630 352 630 c 0,53,54
 283 630 283 630 231 605.5 c 128,-1,55
 179 581 179 581 149.5 536.5 c 128,-1,56
 120 492 120 492 120 433 c 0,57,58
 120 377 120 377 139.5 349 c 128,-1,59
 159 321 159 321 184 304 c 1,60,-1
 147 254 l 1,61,62
 126 264 126 264 102.5 286.5 c 128,-1,63
 79 309 79 309 62.5 345.5 c 128,-1,64
 46 382 46 382 46 434 c 0,65,66
 46 513 46 513 85.5 571.5 c 128,-1,67
 125 630 125 630 195 662.5 c 128,-1,68
 265 695 265 695 355 695 c 0,69,70
 444 695 444 695 509 672.5 c 128,-1,71
 574 650 574 650 609 627 c 0,72,73
 626 616 626 616 634.5 604 c 128,-1,74
 643 592 643 592 643 572 c 2,75,-1
 643 -2 l 1,76,77
 637 -4 637 -4 629 -5 c 128,-1,78
 621 -6 621 -6 615 -6 c 0,79,80
 593 -6 593 -6 584.5 0 c 128,-1,81
 576 6 576 6 576 21 c 2,47,-1
EndSplineSet
EndChar

StartChar: H
Encoding: 72 72 41
Width: 519
Flags: W
AnchorPoint: "Anchor-2" 458 -39 basechar 0
AnchorPoint: "Anchor-1" 355 868 basechar 0
AnchorPoint: "Anchor-0" 571 726 basechar 0
LayerCount: 2
Fore
SplineSet
473 168 m 1,0,-1
 473 118 l 1,1,-1
 244 21 l 1,2,3
 277 3 277 3 321.5 -14.5 c 128,-1,4
 366 -32 366 -32 419.5 -47 c 128,-1,5
 473 -62 473 -62 532 -73 c 0,6,7
 534 -77 534 -77 534.5 -82 c 128,-1,8
 535 -87 535 -87 535 -92 c 0,9,10
 535 -105 535 -105 526.5 -114.5 c 128,-1,11
 518 -124 518 -124 501 -124 c 0,12,13
 485 -124 485 -124 474 -122.5 c 128,-1,14
 463 -121 463 -121 446 -117 c 0,15,16
 403 -107 403 -107 351 -89 c 128,-1,17
 299 -71 299 -71 252 -49 c 128,-1,18
 205 -27 205 -27 174 -6 c 1,19,20
 172 2 172 2 171 9 c 128,-1,21
 170 16 170 16 170 24 c 256,22,23
 170 32 170 32 171.5 39 c 128,-1,24
 173 46 173 46 175 53 c 1,25,-1
 473 168 l 1,0,-1
446 184 m 1,26,-1
 453 117 l 1,27,28
 453 117 453 117 442.5 115 c 128,-1,29
 432 113 432 113 416 109.5 c 128,-1,30
 400 106 400 106 382.5 102.5 c 128,-1,31
 365 99 365 99 350 97 c 128,-1,32
 335 95 335 95 328 95 c 0,33,34
 291 95 291 95 256 113 c 128,-1,35
 221 131 221 131 198.5 165 c 128,-1,36
 176 199 176 199 176 247 c 0,37,38
 176 252 176 252 176.5 257 c 128,-1,39
 177 262 177 262 178 266.5 c 128,-1,40
 179 271 179 271 180 274.5 c 128,-1,41
 181 278 181 278 181 281 c 0,42,43
 185 304 185 304 197.5 328 c 128,-1,44
 210 352 210 352 228.5 368.5 c 128,-1,45
 247 385 247 385 268 385 c 0,46,47
 284 385 284 385 292 374.5 c 128,-1,48
 300 364 300 364 304 352 c 1,49,50
 279 334 279 334 262.5 307.5 c 128,-1,51
 246 281 246 281 246 243 c 0,52,53
 246 220 246 220 256.5 196.5 c 128,-1,54
 267 173 267 173 291 158 c 128,-1,55
 315 143 315 143 355 143 c 0,56,57
 388 143 388 143 412.5 154.5 c 128,-1,58
 437 166 437 166 446 184 c 1,26,-1
439 27 m 2,59,-1
 439 365 l 1,60,61
 446 367 446 367 453.5 368 c 128,-1,62
 461 369 461 369 467 369 c 0,63,64
 490 369 490 369 499 362 c 128,-1,65
 508 355 508 355 508 336 c 2,66,-1
 508 -2 l 1,67,68
 501 -4 501 -4 493.5 -5 c 128,-1,69
 486 -6 486 -6 480 -6 c 0,70,71
 457 -6 457 -6 448 1 c 128,-1,72
 439 8 439 8 439 27 c 2,59,-1
192 281 m 1,73,-1
 185 217 l 1,74,75
 146 230 146 230 114.5 258 c 128,-1,76
 83 286 83 286 64.5 328 c 128,-1,77
 46 370 46 370 46 425 c 0,78,79
 46 505 46 505 86.5 566 c 128,-1,80
 127 627 127 627 196.5 661 c 128,-1,81
 266 695 266 695 353 695 c 256,82,83
 440 695 440 695 502.5 668.5 c 128,-1,84
 565 642 565 642 606 598 c 128,-1,85
 647 554 647 554 666.5 499.5 c 128,-1,86
 686 445 686 445 686 389 c 0,87,88
 686 340 686 340 677.5 307 c 128,-1,89
 669 274 669 274 660 257 c 0,90,91
 653 243 653 243 641.5 235 c 128,-1,92
 630 227 630 227 616 227 c 0,93,94
 601 227 601 227 592 234 c 128,-1,95
 583 241 583 241 579 248 c 1,96,97
 590 271 590 271 601 305 c 128,-1,98
 612 339 612 339 612 388 c 0,99,100
 612 449 612 449 585 504 c 128,-1,101
 558 559 558 559 501 594.5 c 128,-1,102
 444 630 444 630 353 630 c 0,103,104
 287 630 287 630 234 605 c 128,-1,105
 181 580 181 580 150.5 533.5 c 128,-1,106
 120 487 120 487 120 423 c 0,107,108
 120 371 120 371 139 336 c 128,-1,109
 158 301 158 301 192 281 c 1,73,-1
EndSplineSet
EndChar

StartChar: I
Encoding: 73 73 42
Width: 141
Flags: W
LayerCount: 2
Fore
SplineSet
114 168 m 0,0,1
 114 192 114 192 118.5 216 c 128,-1,2
 123 240 123 240 132 259 c 2,3,-1
 149 285 l 2,4,5
 163 310 163 310 191.5 328.5 c 128,-1,6
 220 347 220 347 262 347 c 0,7,8
 303 347 303 347 329 329.5 c 128,-1,9
 355 312 355 312 371 284 c 1,10,11
 386 310 386 310 415 328.5 c 128,-1,12
 444 347 444 347 484 347 c 0,13,14
 543 347 543 347 583.5 303.5 c 128,-1,15
 624 260 624 260 624 173 c 0,16,17
 624 106 624 106 605 66 c 128,-1,18
 586 26 586 26 553.5 8.5 c 128,-1,19
 521 -9 521 -9 481 -9 c 0,20,21
 436 -9 436 -9 408 11.5 c 128,-1,22
 380 32 380 32 369 56 c 1,23,24
 359 31 359 31 330.5 11 c 128,-1,25
 302 -9 302 -9 255 -9 c 0,26,27
 214 -9 214 -9 182 9.5 c 128,-1,28
 150 28 150 28 132 67.5 c 128,-1,29
 114 107 114 107 114 168 c 0,0,1
160 285 m 1,30,-1
 130 219 l 1,31,32
 97 240 97 240 71.5 284.5 c 128,-1,33
 46 329 46 329 46 399 c 0,34,35
 46 493 46 493 94 559 c 128,-1,36
 142 625 142 625 222.5 660 c 128,-1,37
 303 695 303 695 402 695 c 0,38,39
 488 695 488 695 561.5 668.5 c 128,-1,40
 635 642 635 642 689.5 593.5 c 128,-1,41
 744 545 744 545 774.5 477 c 128,-1,42
 805 409 805 409 805 326 c 0,43,44
 805 289 805 289 799.5 249.5 c 128,-1,45
 794 210 794 210 782 170 c 128,-1,46
 770 130 770 130 750 92 c 1,47,-1
 861 -13 l 1,48,49
 860 -31 860 -31 849.5 -43 c 128,-1,50
 839 -55 839 -55 820 -55 c 0,51,52
 804 -55 804 -55 788 -45 c 128,-1,53
 772 -35 772 -35 750 -9 c 128,-1,54
 728 17 728 17 694 66 c 0,55,56
 684 80 684 80 684 92 c 0,57,58
 684 97 684 97 686 103 c 128,-1,59
 688 109 688 109 691 116 c 0,60,61
 708 155 708 155 719.5 207 c 128,-1,62
 731 259 731 259 731 315 c 0,63,64
 731 412 731 412 687.5 482.5 c 128,-1,65
 644 553 644 553 570 591.5 c 128,-1,66
 496 630 496 630 402 630 c 0,67,68
 318 630 318 630 254.5 600 c 128,-1,69
 191 570 191 570 155.5 517.5 c 128,-1,70
 120 465 120 465 120 397 c 0,71,72
 120 360 120 360 131 331 c 128,-1,73
 142 302 142 302 160 285 c 1,30,-1
335 154 m 2,74,-1
 338 204 l 1,75,76
 333 245 333 245 312 266 c 128,-1,77
 291 287 291 287 262 287 c 0,78,79
 231 287 231 287 206.5 259.5 c 128,-1,80
 182 232 182 232 182 169 c 0,81,82
 182 103 182 103 206 77 c 128,-1,83
 230 51 230 51 262 51 c 0,84,85
 291 51 291 51 311 73 c 128,-1,86
 331 95 331 95 335 154 c 2,74,-1
402 177 m 2,87,-1
 399 138 l 1,88,89
 404 101 404 101 423.5 76 c 128,-1,90
 443 51 443 51 477 51 c 256,91,92
 511 51 511 51 533.5 79 c 128,-1,93
 556 107 556 107 556 174 c 0,94,95
 556 233 556 233 533.5 260 c 128,-1,96
 511 287 511 287 479 287 c 0,97,98
 450 287 450 287 428.5 263.5 c 128,-1,99
 407 240 407 240 402 177 c 2,87,-1
EndSplineSet
EndChar

StartChar: J
Encoding: 74 74 43
Width: 262
Flags: W
AnchorPoint: "Anchor-2" 377 76 basechar 0
AnchorPoint: "Anchor-1" 347 888 basechar 0
AnchorPoint: "Anchor-0" 509 726 basechar 0
LayerCount: 2
Fore
SplineSet
467 59 m 2,0,-1
 446 36 l 2,1,2
 427 19 427 19 399.5 5 c 128,-1,3
 372 -9 372 -9 327 -9 c 0,4,5
 279 -9 279 -9 239 11.5 c 128,-1,6
 199 32 199 32 175 72.5 c 128,-1,7
 151 113 151 113 151 174 c 0,8,9
 151 195 151 195 154.5 214.5 c 128,-1,10
 158 234 158 234 167 256 c 0,11,12
 170 264 170 264 174.5 270.5 c 128,-1,13
 179 277 179 277 183 284 c 0,14,15
 202 312 202 312 238 334.5 c 128,-1,16
 274 357 274 357 326 357 c 0,17,18
 377 357 377 357 416.5 335 c 128,-1,19
 456 313 456 313 478.5 271.5 c 128,-1,20
 501 230 501 230 501 173 c 0,21,22
 501 140 501 140 492.5 109.5 c 128,-1,23
 484 79 484 79 467 59 c 2,0,-1
432 641 m 1,24,-1
 420 617 l 1,25,26
 406 621 406 621 383.5 625.5 c 128,-1,27
 361 630 361 630 323 630 c 0,28,29
 266 630 266 630 220 609.5 c 128,-1,30
 174 589 174 589 147 548 c 128,-1,31
 120 507 120 507 120 446 c 0,32,33
 120 388 120 388 140 345 c 128,-1,34
 160 302 160 302 200 276 c 1,35,-1
 166 221 l 1,36,37
 117 247 117 247 81.5 305 c 128,-1,38
 46 363 46 363 46 446 c 0,39,40
 46 532 46 532 85 587 c 128,-1,41
 124 642 124 642 187 668.5 c 128,-1,42
 250 695 250 695 321 695 c 0,43,44
 362 695 362 695 402 688.5 c 128,-1,45
 442 682 442 682 468 672 c 0,46,47
 481 667 481 667 481 657 c 0,48,49
 481 649 481 649 473.5 623.5 c 128,-1,50
 466 598 466 598 466 563 c 0,51,52
 466 523 466 523 486.5 497.5 c 128,-1,53
 507 472 507 472 548 472 c 0,54,55
 583 472 583 472 604 495 c 128,-1,56
 625 518 625 518 625 567 c 0,57,58
 625 594 625 594 617.5 621.5 c 128,-1,59
 610 649 610 649 599 665 c 1,60,61
 607 677 607 677 616 681 c 128,-1,62
 625 685 625 685 635 685 c 0,63,64
 652 685 652 685 665.5 670 c 128,-1,65
 679 655 679 655 687 628.5 c 128,-1,66
 695 602 695 602 695 565 c 0,67,68
 695 515 695 515 676.5 480 c 128,-1,69
 658 445 658 445 624.5 427.5 c 128,-1,70
 591 410 591 410 547 410 c 0,71,72
 508 410 508 410 473.5 425.5 c 128,-1,73
 439 441 439 441 417.5 475 c 128,-1,74
 396 509 396 509 396 564 c 0,75,76
 396 586 396 586 401 608 c 128,-1,77
 406 630 406 630 413 646 c 1,78,-1
 432 641 l 1,24,-1
431 174 m 1,79,-1
 431 174 l 1,80,81
 431 231 431 231 401 263 c 128,-1,82
 371 295 371 295 327 295 c 256,83,84
 283 295 283 295 252 263 c 128,-1,85
 221 231 221 231 221 175 c 0,86,87
 221 117 221 117 251.5 85 c 128,-1,88
 282 53 282 53 328 53 c 0,89,90
 375 53 375 53 403 85.5 c 128,-1,91
 431 118 431 118 431 174 c 1,79,-1
424 43 m 1,92,-1
 467 80 l 1,93,94
 484 69 484 69 506.5 54.5 c 128,-1,95
 529 40 529 40 553.5 25 c 128,-1,96
 578 10 578 10 601 -3 c 0,97,98
 602 -6 602 -6 602 -8.5 c 128,-1,99
 602 -11 602 -11 602 -13 c 0,100,101
 602 -30 602 -30 592 -41 c 128,-1,102
 582 -52 582 -52 565 -52 c 0,103,104
 538 -52 538 -52 508 -27.5 c 128,-1,105
 478 -3 478 -3 424 43 c 1,92,-1
EndSplineSet
EndChar

StartChar: K
Encoding: 75 75 44
Width: 769
Flags: W
AnchorPoint: "Anchor-1" 376 868 basechar 0
LayerCount: 2
Fore
SplineSet
321 695 m 1,0,-1
 321 695 l 1,1,2
 362 695 362 695 402 688.5 c 128,-1,3
 442 682 442 682 468 672 c 0,4,5
 481 667 481 667 481 657 c 0,6,7
 481 648 481 648 473.5 625.5 c 128,-1,8
 466 603 466 603 466 568 c 0,9,10
 466 521 466 521 486.5 496.5 c 128,-1,11
 507 472 507 472 547 472 c 0,12,13
 571 472 571 472 590.5 481.5 c 128,-1,14
 610 491 610 491 618 513 c 1,15,-1
 625 445 l 1,16,17
 615 432 615 432 595 421 c 128,-1,18
 575 410 575 410 540 410 c 0,19,20
 503 410 503 410 470 425.5 c 128,-1,21
 437 441 437 441 416.5 475 c 128,-1,22
 396 509 396 509 396 565 c 0,23,24
 396 579 396 579 398 594 c 128,-1,25
 400 609 400 609 403 621 c 1,26,27
 393 624 393 624 369.5 627 c 128,-1,28
 346 630 346 630 323 630 c 0,29,30
 232 630 232 630 176 581 c 128,-1,31
 120 532 120 532 120 440 c 0,32,33
 120 417 120 417 126.5 386.5 c 128,-1,34
 133 356 133 356 149.5 327 c 128,-1,35
 166 298 166 298 197 278 c 1,36,-1
 161 222 l 1,37,38
 110 254 110 254 78 309 c 128,-1,39
 46 364 46 364 46 440 c 0,40,41
 46 526 46 526 83 582.5 c 128,-1,42
 120 639 120 639 182.5 667 c 128,-1,43
 245 695 245 695 321 695 c 1,0,-1
154 256 m 1,44,-1
 154 256 l 1,45,46
 157 264 157 264 161.5 270.5 c 128,-1,47
 166 277 166 277 170 284 c 0,48,49
 189 312 189 312 225 334.5 c 128,-1,50
 261 357 261 357 313 357 c 0,51,52
 364 357 364 357 403.5 335 c 128,-1,53
 443 313 443 313 465.5 272 c 128,-1,54
 488 231 488 231 488 174 c 0,55,56
 488 113 488 113 464.5 72.5 c 128,-1,57
 441 32 441 32 402 11.5 c 128,-1,58
 363 -9 363 -9 314 -9 c 0,59,60
 266 -9 266 -9 226 11.5 c 128,-1,61
 186 32 186 32 162 72.5 c 128,-1,62
 138 113 138 113 138 174 c 0,63,64
 138 195 138 195 141.5 214.5 c 128,-1,65
 145 234 145 234 154 256 c 1,44,-1
208 175 m 1,66,-1
 208 175 l 1,67,68
 208 117 208 117 238.5 85 c 128,-1,69
 269 53 269 53 315 53 c 0,70,71
 362 53 362 53 390 85.5 c 128,-1,72
 418 118 418 118 418 174 c 0,73,74
 418 231 418 231 388 263 c 128,-1,75
 358 295 358 295 314 295 c 256,76,77
 270 295 270 295 239 263 c 128,-1,78
 208 231 208 231 208 175 c 1,66,-1
679 644 m 2,79,-1
 679 -2 l 1,80,81
 672 -4 672 -4 664.5 -5 c 128,-1,82
 657 -6 657 -6 651 -6 c 0,83,84
 629 -6 629 -6 618 1 c 128,-1,85
 607 8 607 8 607 27 c 2,86,-1
 607 671 l 1,87,88
 612 673 612 673 620.5 674 c 128,-1,89
 629 675 629 675 636 675 c 0,90,91
 656 675 656 675 667.5 669 c 128,-1,92
 679 663 679 663 679 644 c 2,79,-1
EndSplineSet
EndChar

StartChar: L
Encoding: 76 76 45
Width: 499
Flags: W
AnchorPoint: "Anchor-2" 620 76 basechar 0
AnchorPoint: "Anchor-1" 398 868 basechar 0
AnchorPoint: "Anchor-0" 631 726 basechar 0
LayerCount: 2
Fore
SplineSet
620 219 m 2,0,-1
 620 -2 l 1,1,2
 613 -4 613 -4 605.5 -5 c 128,-1,3
 598 -6 598 -6 592 -6 c 0,4,5
 569 -6 569 -6 560 1 c 128,-1,6
 551 8 551 8 551 27 c 2,7,-1
 551 222 l 2,8,9
 551 258 551 258 532 277.5 c 128,-1,10
 513 297 513 297 483 297 c 256,11,12
 453 297 453 297 433.5 278 c 128,-1,13
 414 259 414 259 414 219 c 2,14,-1
 414 -2 l 1,15,16
 407 -4 407 -4 399 -5 c 128,-1,17
 391 -6 391 -6 385 -6 c 0,18,19
 362 -6 362 -6 354.5 1 c 128,-1,20
 347 8 347 8 347 27 c 2,21,-1
 347 219 l 2,22,23
 347 256 347 256 328 276.5 c 128,-1,24
 309 297 309 297 279 297 c 0,25,26
 248 297 248 297 228.5 277 c 128,-1,27
 209 257 209 257 209 219 c 2,28,-1
 209 -2 l 1,29,30
 202 -4 202 -4 195 -5 c 128,-1,31
 188 -6 188 -6 182 -6 c 0,32,33
 159 -6 159 -6 149.5 1 c 128,-1,34
 140 8 140 8 140 27 c 2,35,-1
 140 257 l 1,36,-1
 155 275 l 1,37,38
 167 309 167 309 196.5 333.5 c 128,-1,39
 226 358 226 358 276 358 c 0,40,41
 310 358 310 358 338 342 c 128,-1,42
 366 326 366 326 381 298 c 1,43,44
 393 320 393 320 420.5 339 c 128,-1,45
 448 358 448 358 489 358 c 0,46,47
 524 358 524 358 553.5 343.5 c 128,-1,48
 583 329 583 329 601.5 298.5 c 128,-1,49
 620 268 620 268 620 219 c 2,0,-1
190 269 m 1,50,-1
 172 203 l 1,51,52
 150 210 150 210 120 233 c 128,-1,53
 90 256 90 256 68 298 c 128,-1,54
 46 340 46 340 46 405 c 0,55,56
 46 465 46 465 70 517.5 c 128,-1,57
 94 570 94 570 139 610 c 128,-1,58
 184 650 184 650 248.5 672.5 c 128,-1,59
 313 695 313 695 395 695 c 0,60,61
 511 695 511 695 595 651 c 128,-1,62
 679 607 679 607 724.5 532 c 128,-1,63
 770 457 770 457 770 364 c 0,64,65
 770 302 770 302 751.5 262.5 c 128,-1,66
 733 223 733 223 705 223 c 0,67,68
 693 223 693 223 683.5 230 c 128,-1,69
 674 237 674 237 669 245 c 1,70,71
 680 265 680 265 688 297.5 c 128,-1,72
 696 330 696 330 696 367 c 0,73,74
 696 444 696 444 656.5 503 c 128,-1,75
 617 562 617 562 549 596 c 128,-1,76
 481 630 481 630 394 630 c 0,77,78
 312 630 312 630 250 600 c 128,-1,79
 188 570 188 570 154 519 c 128,-1,80
 120 468 120 468 120 403 c 0,81,82
 120 362 120 362 131 335.5 c 128,-1,83
 142 309 142 309 158 293.5 c 128,-1,84
 174 278 174 278 190 269 c 1,50,-1
EndSplineSet
EndChar

StartChar: M
Encoding: 77 77 46
Width: 673
Flags: W
AnchorPoint: "Anchor-1" 332 868 basechar 0
LayerCount: 2
Fore
SplineSet
242 281 m 1,0,-1
 213 228 l 1,1,2
 169 237 169 237 131 266 c 128,-1,3
 93 295 93 295 69.5 342 c 128,-1,4
 46 389 46 389 46 450 c 0,5,6
 46 527 46 527 85.5 582 c 128,-1,7
 125 637 125 637 192 666 c 128,-1,8
 259 695 259 695 342 695 c 0,9,10
 416 695 416 695 468 675.5 c 128,-1,11
 520 656 520 656 547 638 c 0,12,13
 566 625 566 625 574.5 613 c 128,-1,14
 583 601 583 601 583 575 c 2,15,-1
 583 -2 l 1,16,17
 576 -4 576 -4 568.5 -5 c 128,-1,18
 561 -6 561 -6 555 -6 c 0,19,20
 533 -6 533 -6 522 1 c 128,-1,21
 511 8 511 8 511 27 c 2,22,-1
 511 583 l 1,23,24
 486 601 486 601 440.5 615.5 c 128,-1,25
 395 630 395 630 342 630 c 0,26,27
 282 630 282 630 231.5 609.5 c 128,-1,28
 181 589 181 589 150.5 548.5 c 128,-1,29
 120 508 120 508 120 448 c 0,30,31
 120 381 120 381 155 339 c 128,-1,32
 190 297 190 297 242 281 c 1,0,-1
201 246 m 1,33,-1
 201 246 l 1,34,35
 204 250 204 250 208 254 c 128,-1,36
 212 258 212 258 216 262 c 128,-1,37
 220 266 220 266 224 269 c 0,38,39
 243 289 243 289 265.5 307 c 128,-1,40
 288 325 288 325 309.5 336 c 128,-1,41
 331 347 331 347 344 347 c 0,42,43
 364 347 364 347 372 333 c 0,44,45
 376 327 376 327 378 318 c 128,-1,46
 380 309 380 309 380 302 c 1,47,48
 296 251 296 251 234.5 172 c 128,-1,49
 173 93 173 93 142 -6 c 1,50,-1
 131 -6 l 2,51,52
 113 -6 113 -6 99 2 c 128,-1,53
 85 10 85 10 85 37 c 0,54,55
 85 60 85 60 100 95.5 c 128,-1,56
 115 131 115 131 141.5 171 c 128,-1,57
 168 211 168 211 201 246 c 1,33,-1
EndSplineSet
EndChar

StartChar: N
Encoding: 78 78 47
Width: 741
Flags: W
AnchorPoint: "Anchor-2" 494 76 basechar 0
AnchorPoint: "Anchor-1" 355 868 basechar 0
AnchorPoint: "Anchor-0" 609 726 basechar 0
LayerCount: 2
Fore
SplineSet
434 349 m 1,0,-1
 494 337 l 1,1,-1
 494 -2 l 1,2,3
 487 -4 487 -4 479.5 -5 c 128,-1,4
 472 -6 472 -6 466 -6 c 0,5,6
 443 -6 443 -6 434 1 c 128,-1,7
 425 8 425 8 425 27 c 2,8,-1
 425 156 l 2,9,10
 425 175 425 175 425.5 202 c 128,-1,11
 426 229 426 229 427.5 258 c 128,-1,12
 429 287 429 287 430.5 311.5 c 128,-1,13
 432 336 432 336 434 349 c 1,0,-1
494 337 m 1,14,-1
 437 310 l 2,15,16
 390 289 390 289 340.5 248.5 c 128,-1,17
 291 208 291 208 247.5 145.5 c 128,-1,18
 204 83 204 83 175 -6 c 1,19,-1
 164 -6 l 2,20,21
 141 -6 141 -6 128.5 3 c 128,-1,22
 116 12 116 12 116 31 c 0,23,24
 116 54 116 54 129.5 86.5 c 128,-1,25
 143 119 143 119 163 151 c 128,-1,26
 183 183 183 183 200 204 c 2,27,-1
 223 233 l 1,28,29
 270 284 270 284 328 324 c 128,-1,30
 386 364 386 364 444 377 c 1,31,32
 456 373 456 373 471.5 360.5 c 128,-1,33
 487 348 487 348 494 337 c 1,14,-1
245 241 m 1,34,-1
 208 186 l 1,35,36
 168 198 168 198 131 227 c 128,-1,37
 94 256 94 256 70 304 c 128,-1,38
 46 352 46 352 46 420 c 0,39,40
 46 502 46 502 85 564 c 128,-1,41
 124 626 124 626 193.5 660.5 c 128,-1,42
 263 695 263 695 356 695 c 0,43,44
 453 695 453 695 529.5 658 c 128,-1,45
 606 621 606 621 650.5 552.5 c 128,-1,46
 695 484 695 484 695 389 c 0,47,48
 695 304 695 304 668 256 c 0,49,50
 658 240 658 240 646.5 233.5 c 128,-1,51
 635 227 635 227 623 227 c 256,52,53
 611 227 611 227 602 232.5 c 128,-1,54
 593 238 593 238 588 248 c 1,55,56
 599 271 599 271 610 303.5 c 128,-1,57
 621 336 621 336 621 388 c 0,58,59
 621 463 621 463 586 517 c 128,-1,60
 551 571 551 571 491 600.5 c 128,-1,61
 431 630 431 630 355 630 c 0,62,63
 289 630 289 630 236 604.5 c 128,-1,64
 183 579 183 579 151.5 532 c 128,-1,65
 120 485 120 485 120 419 c 0,66,67
 120 369 120 369 138.5 332.5 c 128,-1,68
 157 296 157 296 185.5 273 c 128,-1,69
 214 250 214 250 245 241 c 1,34,-1
EndSplineSet
EndChar

StartChar: O
Encoding: 79 79 48
Width: 592
Flags: W
LayerCount: 2
Fore
SplineSet
463 324 m 1,0,-1
 512 367 l 1,1,2
 550 345 550 345 581 302.5 c 128,-1,3
 612 260 612 260 612 194 c 0,4,5
 612 124 612 124 579 78 c 128,-1,6
 546 32 546 32 491 9 c 128,-1,7
 436 -14 436 -14 369 -14 c 0,8,9
 298 -14 298 -14 239.5 9.5 c 128,-1,10
 181 33 181 33 139 79.5 c 128,-1,11
 97 126 97 126 74 196.5 c 128,-1,12
 51 267 51 267 51 361 c 0,13,14
 51 428 51 428 62 485 c 128,-1,15
 73 542 73 542 89.5 585 c 128,-1,16
 106 628 106 628 122 653 c 0,17,18
 133 670 133 670 145 682.5 c 128,-1,19
 157 695 157 695 176 695 c 0,20,21
 194 695 194 695 203.5 685 c 128,-1,22
 213 675 213 675 215 667 c 1,23,24
 195 640 195 640 174 594.5 c 128,-1,25
 153 549 153 549 139 490 c 128,-1,26
 125 431 125 431 125 360 c 0,27,28
 125 249 125 249 159.5 181 c 128,-1,29
 194 113 194 113 249.5 82 c 128,-1,30
 305 51 305 51 369 51 c 0,31,32
 446 51 446 51 492 89 c 128,-1,33
 538 127 538 127 538 194 c 0,34,35
 538 243 538 243 514.5 277 c 128,-1,36
 491 311 491 311 463 324 c 1,0,-1
520 346 m 1,37,-1
 520 346 l 1,38,39
 520 346 520 346 517.5 343.5 c 128,-1,40
 515 341 515 341 511 337.5 c 128,-1,41
 507 334 507 334 501.5 330 c 128,-1,42
 496 326 496 326 491 323 c 0,43,44
 467 307 467 307 433.5 297 c 128,-1,45
 400 287 400 287 369 287 c 0,46,47
 348 287 348 287 338 297 c 128,-1,48
 328 307 328 307 328 324 c 0,49,50
 328 330 328 330 330 336.5 c 128,-1,51
 332 343 332 343 334 347 c 0,52,53
 418 349 418 349 471.5 388 c 128,-1,54
 525 427 525 427 525 508 c 0,55,56
 525 562 525 562 495 592.5 c 128,-1,57
 465 623 465 623 420 623 c 0,58,59
 379 623 379 623 351.5 597 c 128,-1,60
 324 571 324 571 324 524 c 0,61,62
 324 510 324 510 327.5 496.5 c 128,-1,63
 331 483 331 483 339 466 c 1,64,65
 335 460 335 460 327 454.5 c 128,-1,66
 319 449 319 449 306 449 c 0,67,68
 290 449 290 449 278 458.5 c 128,-1,69
 266 468 266 468 260 485.5 c 128,-1,70
 254 503 254 503 254 526 c 0,71,72
 254 574 254 574 276 610 c 128,-1,73
 298 646 298 646 335.5 665.5 c 128,-1,74
 373 685 373 685 420 685 c 0,75,76
 463 685 463 685 503.5 666 c 128,-1,77
 544 647 544 647 570.5 607.5 c 128,-1,78
 597 568 597 568 597 505 c 0,79,80
 597 450 597 450 573 408.5 c 128,-1,81
 549 367 549 367 520 346 c 1,37,-1
EndSplineSet
Substitution2: "Single Substitution lookup 35 subtable" ordmasculine
Substitution2: "'aalt' Access All Alternates lookup 0 subtable" ordmasculine
EndChar

StartChar: P
Encoding: 80 80 49
Width: 649
Flags: W
AnchorPoint: "Anchor-2" 591 76 basechar 0
AnchorPoint: "Anchor-1" 335 868 basechar 0
AnchorPoint: "Anchor-0" 569 726 basechar 0
LayerCount: 2
Fore
SplineSet
573 426 m 1,0,-1
 566 604 l 1,1,2
 574 615 574 615 588.5 625.5 c 128,-1,3
 603 636 603 636 623.5 643.5 c 128,-1,4
 644 651 644 651 669 651 c 0,5,6
 704 651 704 651 735 635.5 c 128,-1,7
 766 620 766 620 785.5 589.5 c 128,-1,8
 805 559 805 559 805 514 c 0,9,10
 805 471 805 471 788.5 440.5 c 128,-1,11
 772 410 772 410 742 393.5 c 128,-1,12
 712 377 712 377 673 377 c 0,13,14
 630 377 630 377 607.5 392 c 128,-1,15
 585 407 585 407 573 426 c 1,0,-1
591 514 m 1,16,-1
 591 514 l 1,17,18
 591 476 591 476 612.5 455.5 c 128,-1,19
 634 435 634 435 665 435 c 0,20,21
 698 435 698 435 718.5 456 c 128,-1,22
 739 477 739 477 739 514 c 256,23,24
 739 551 739 551 718.5 572 c 128,-1,25
 698 593 698 593 665 593 c 256,26,27
 632 593 632 593 611.5 572 c 128,-1,28
 591 551 591 551 591 514 c 1,16,-1
523 140 m 1,29,-1
 535 64 l 1,30,31
 526 49 526 49 502 32 c 128,-1,32
 478 15 478 15 441 3 c 128,-1,33
 404 -9 404 -9 356 -9 c 0,34,35
 286 -9 286 -9 237.5 15 c 128,-1,36
 189 39 189 39 164 81 c 128,-1,37
 139 123 139 123 139 177 c 0,38,39
 139 210 139 210 146.5 232.5 c 128,-1,40
 154 255 154 255 163 270 c 2,41,-1
 184 295 l 2,42,43
 203 320 203 320 239.5 338.5 c 128,-1,44
 276 357 276 357 321 357 c 0,45,46
 345 357 345 357 356 348.5 c 128,-1,47
 367 340 367 340 367 321 c 0,48,49
 367 317 367 317 366.5 309.5 c 128,-1,50
 366 302 366 302 364 299 c 2,51,-1
 339 298 l 2,52,53
 284 296 284 296 247.5 267.5 c 128,-1,54
 211 239 211 239 211 180 c 0,55,56
 211 124 211 124 250 89 c 128,-1,57
 289 54 289 54 363 54 c 0,58,59
 404 54 404 54 437.5 67.5 c 128,-1,60
 471 81 471 81 493.5 101 c 128,-1,61
 516 121 516 121 523 140 c 1,29,-1
524 78 m 1,62,-1
 519 78 l 1,63,-1
 519 578 l 1,64,65
 500 595 500 595 453 612.5 c 128,-1,66
 406 630 406 630 348 630 c 0,67,68
 282 630 282 630 230.5 608 c 128,-1,69
 179 586 179 586 149.5 545 c 128,-1,70
 120 504 120 504 120 445 c 0,71,72
 120 388 120 388 144 353 c 128,-1,73
 168 318 168 318 202 300 c 1,74,-1
 172 246 l 1,75,76
 143 257 143 257 113.5 282 c 128,-1,77
 84 307 84 307 65 348 c 128,-1,78
 46 389 46 389 46 445 c 0,79,80
 46 524 46 524 84 580 c 128,-1,81
 122 636 122 636 189.5 665.5 c 128,-1,82
 257 695 257 695 344 695 c 0,83,84
 397 695 397 695 442.5 683 c 128,-1,85
 488 671 488 671 523.5 652.5 c 128,-1,86
 559 634 559 634 582 613 c 1,87,-1
 591 448 l 1,88,-1
 591 -2 l 1,89,90
 584 -4 584 -4 577 -5 c 128,-1,91
 570 -6 570 -6 564 -6 c 0,92,93
 542 -6 542 -6 533 1 c 128,-1,94
 524 8 524 8 524 23 c 2,95,-1
 524 78 l 1,62,-1
EndSplineSet
EndChar

StartChar: Q
Encoding: 81 81 50
Width: 769
Flags: W
AnchorPoint: "Anchor-1" 376 868 basechar 0
LayerCount: 2
Fore
SplineSet
321 695 m 1,0,-1
 321 695 l 1,1,2
 362 695 362 695 402 688.5 c 128,-1,3
 442 682 442 682 468 672 c 0,4,5
 481 667 481 667 481 657 c 0,6,7
 481 648 481 648 473.5 625.5 c 128,-1,8
 466 603 466 603 466 568 c 0,9,10
 466 521 466 521 486.5 496.5 c 128,-1,11
 507 472 507 472 547 472 c 0,12,13
 571 472 571 472 590.5 481.5 c 128,-1,14
 610 491 610 491 618 513 c 1,15,-1
 625 445 l 1,16,17
 615 432 615 432 595 421 c 128,-1,18
 575 410 575 410 540 410 c 0,19,20
 503 410 503 410 470 425.5 c 128,-1,21
 437 441 437 441 416.5 475 c 128,-1,22
 396 509 396 509 396 565 c 0,23,24
 396 579 396 579 398 594 c 128,-1,25
 400 609 400 609 403 621 c 1,26,27
 393 624 393 624 369.5 627 c 128,-1,28
 346 630 346 630 323 630 c 0,29,30
 232 630 232 630 176 581 c 128,-1,31
 120 532 120 532 120 440 c 0,32,33
 120 417 120 417 126.5 386.5 c 128,-1,34
 133 356 133 356 149.5 327 c 128,-1,35
 166 298 166 298 197 278 c 1,36,-1
 161 222 l 1,37,38
 110 254 110 254 78 309 c 128,-1,39
 46 364 46 364 46 440 c 0,40,41
 46 526 46 526 83 582.5 c 128,-1,42
 120 639 120 639 182.5 667 c 128,-1,43
 245 695 245 695 321 695 c 1,0,-1
154 256 m 1,44,-1
 154 256 l 1,45,46
 157 264 157 264 161.5 270.5 c 128,-1,47
 166 277 166 277 170 284 c 0,48,49
 189 312 189 312 225 334.5 c 128,-1,50
 261 357 261 357 313 357 c 0,51,52
 364 357 364 357 403.5 335 c 128,-1,53
 443 313 443 313 465.5 272 c 128,-1,54
 488 231 488 231 488 174 c 0,55,56
 488 113 488 113 464.5 72.5 c 128,-1,57
 441 32 441 32 402 11.5 c 128,-1,58
 363 -9 363 -9 314 -9 c 0,59,60
 266 -9 266 -9 226 11.5 c 128,-1,61
 186 32 186 32 162 72.5 c 128,-1,62
 138 113 138 113 138 174 c 0,63,64
 138 195 138 195 141.5 214.5 c 128,-1,65
 145 234 145 234 154 256 c 1,44,-1
208 175 m 1,66,-1
 208 175 l 1,67,68
 208 117 208 117 238.5 85 c 128,-1,69
 269 53 269 53 315 53 c 0,70,71
 362 53 362 53 390 85.5 c 128,-1,72
 418 118 418 118 418 174 c 0,73,74
 418 231 418 231 388 263 c 128,-1,75
 358 295 358 295 314 295 c 256,76,77
 270 295 270 295 239 263 c 128,-1,78
 208 231 208 231 208 175 c 1,66,-1
679 644 m 2,79,-1
 679 -2 l 1,80,81
 672 -4 672 -4 664.5 -5 c 128,-1,82
 657 -6 657 -6 651 -6 c 0,83,84
 629 -6 629 -6 618 1 c 128,-1,85
 607 8 607 8 607 27 c 2,86,-1
 607 671 l 1,87,88
 612 673 612 673 620.5 674 c 128,-1,89
 629 675 629 675 636 675 c 0,90,91
 656 675 656 675 667.5 669 c 128,-1,92
 679 663 679 663 679 644 c 2,79,-1
EndSplineSet
EndChar

StartChar: R
Encoding: 82 82 51
Width: 499
Flags: W
AnchorPoint: "Anchor-2" 417 76 basechar 0
AnchorPoint: "Anchor-1" 364 868 basechar 0
AnchorPoint: "Anchor-0" 578 726 basechar 0
LayerCount: 2
Fore
SplineSet
191 273 m 1,0,-1
 162 212 l 1,1,2
 135 224 135 224 108.5 251 c 128,-1,3
 82 278 82 278 64 320.5 c 128,-1,4
 46 363 46 363 46 420 c 0,5,6
 46 481 46 481 69 531.5 c 128,-1,7
 92 582 92 582 133.5 618.5 c 128,-1,8
 175 655 175 655 231 675 c 128,-1,9
 287 695 287 695 353 695 c 0,10,11
 466 695 466 695 544.5 647.5 c 128,-1,12
 623 600 623 600 664.5 518.5 c 128,-1,13
 706 437 706 437 706 334 c 0,14,15
 706 273 706 273 690 213.5 c 128,-1,16
 674 154 674 154 642 92 c 1,17,-1
 753 -13 l 1,18,19
 752 -31 752 -31 741.5 -43 c 128,-1,20
 731 -55 731 -55 712 -55 c 0,21,22
 696 -55 696 -55 677.5 -42 c 128,-1,23
 659 -29 659 -29 637 -1.5 c 128,-1,24
 615 26 615 26 586 67 c 0,25,26
 579 77 579 77 577.5 82 c 128,-1,27
 576 87 576 87 576 92 c 0,28,29
 576 98 576 98 579 104 c 128,-1,30
 582 110 582 110 583 114 c 0,31,32
 604 158 604 158 618 212 c 128,-1,33
 632 266 632 266 632 327 c 0,34,35
 632 418 632 418 599.5 486 c 128,-1,36
 567 554 567 554 505 592 c 128,-1,37
 443 630 443 630 353 630 c 0,38,39
 284 630 284 630 231.5 603.5 c 128,-1,40
 179 577 179 577 149.5 530.5 c 128,-1,41
 120 484 120 484 120 422 c 0,42,43
 120 368 120 368 140 329.5 c 128,-1,44
 160 291 160 291 191 273 c 1,0,-1
217 175 m 1,45,-1
 217 175 l 1,46,47
 217 117 217 117 247.5 85 c 128,-1,48
 278 53 278 53 324 53 c 0,49,50
 371 53 371 53 399 85.5 c 128,-1,51
 427 118 427 118 427 174 c 0,52,53
 427 231 427 231 397 263 c 128,-1,54
 367 295 367 295 323 295 c 256,55,56
 279 295 279 295 248 263 c 128,-1,57
 217 231 217 231 217 175 c 1,45,-1
155 233 m 2,58,-1
 168 265 l 1,59,60
 188 303 188 303 227.5 330 c 128,-1,61
 267 357 267 357 322 357 c 0,62,63
 373 357 373 357 412.5 335 c 128,-1,64
 452 313 452 313 474.5 272 c 128,-1,65
 497 231 497 231 497 174 c 0,66,67
 497 113 497 113 473.5 72.5 c 128,-1,68
 450 32 450 32 411 11.5 c 128,-1,69
 372 -9 372 -9 323 -9 c 0,70,71
 275 -9 275 -9 235 11.5 c 128,-1,72
 195 32 195 32 171 72.5 c 128,-1,73
 147 113 147 113 147 174 c 0,74,75
 147 194 147 194 149.5 208.5 c 128,-1,76
 152 223 152 223 155 233 c 2,58,-1
EndSplineSet
EndChar

StartChar: S
Encoding: 83 83 52
Width: 724
Flags: W
AnchorPoint: "Anchor-1" 362 868 basechar 0
LayerCount: 2
Fore
SplineSet
562 27 m 2,0,-1
 562 596 l 1,1,2
 550 604 550 604 523.5 613.5 c 128,-1,3
 497 623 497 623 459 623 c 0,4,5
 424 623 424 623 391.5 611.5 c 128,-1,6
 359 600 359 600 339 575 c 128,-1,7
 319 550 319 550 319 510 c 2,8,-1
 319 496 l 1,9,-1
 249 497 l 1,10,-1
 249 512 l 2,11,12
 249 563 249 563 275 602.5 c 128,-1,13
 301 642 301 642 347.5 664 c 128,-1,14
 394 686 394 686 455 686 c 0,15,16
 505 686 505 686 543 674 c 128,-1,17
 581 662 581 662 600 650 c 0,18,19
 619 639 619 639 626.5 626.5 c 128,-1,20
 634 614 634 614 634 591 c 2,21,-1
 634 -2 l 1,22,23
 627 -4 627 -4 619.5 -5 c 128,-1,24
 612 -6 612 -6 606 -6 c 0,25,26
 584 -6 584 -6 573 1 c 128,-1,27
 562 8 562 8 562 27 c 2,0,-1
143 238 m 1,28,-1
 147 244 l 1,29,30
 162 276 162 276 196.5 303.5 c 128,-1,31
 231 331 231 331 291 331 c 0,32,33
 337 331 337 331 374 310.5 c 128,-1,34
 411 290 411 290 432.5 252 c 128,-1,35
 454 214 454 214 454 161 c 0,36,37
 454 105 454 105 432.5 67 c 128,-1,38
 411 29 411 29 374 10 c 128,-1,39
 337 -9 337 -9 292 -9 c 256,40,41
 247 -9 247 -9 210 10 c 128,-1,42
 173 29 173 29 150.5 67 c 128,-1,43
 128 105 128 105 128 161 c 0,44,45
 128 181 128 181 131.5 199 c 128,-1,46
 135 217 135 217 143 238 c 1,28,-1
160 251 m 1,47,-1
 142 188 l 1,48,49
 119 197 119 197 97 217 c 128,-1,50
 75 237 75 237 60.5 267.5 c 128,-1,51
 46 298 46 298 46 338 c 0,52,53
 46 396 46 396 73 435 c 128,-1,54
 100 474 100 474 146.5 494 c 128,-1,55
 193 514 193 514 250 514 c 2,56,57
 250 514 250 514 262.5 513.5 c 128,-1,58
 275 513 275 513 287.5 512.5 c 128,-1,59
 300 512 300 512 300 512 c 2,60,61
 317 510 317 510 337.5 503 c 128,-1,62
 358 496 358 496 373 482.5 c 128,-1,63
 388 469 388 469 388 449 c 0,64,65
 388 440 388 440 381 430.5 c 128,-1,66
 374 421 374 421 367 418 c 1,67,68
 348 433 348 433 319 443.5 c 128,-1,69
 290 454 290 454 253 454 c 0,70,71
 194 454 194 454 155 424 c 128,-1,72
 116 394 116 394 116 339 c 0,73,74
 116 300 116 300 132 278.5 c 128,-1,75
 148 257 148 257 160 251 c 1,47,-1
196 162 m 1,76,-1
 196 162 l 1,77,78
 196 110 196 110 223.5 81.5 c 128,-1,79
 251 53 251 53 292 53 c 0,80,81
 335 53 335 53 359.5 81.5 c 128,-1,82
 384 110 384 110 384 161 c 0,83,84
 384 213 384 213 357 241 c 128,-1,85
 330 269 330 269 291 269 c 0,86,87
 251 269 251 269 223.5 241 c 128,-1,88
 196 213 196 213 196 162 c 1,76,-1
EndSplineSet
EndChar

StartChar: T
Encoding: 84 84 53
Width: 689
Flags: W
AnchorPoint: "Anchor-2" 466 76 basechar 0
AnchorPoint: "Anchor-1" 365 868 basechar 0
AnchorPoint: "Anchor-0" 585 726 basechar 0
LayerCount: 2
Fore
SplineSet
150 251 m 2,0,-1
 157 279 l 1,1,2
 175 328 175 328 203.5 355.5 c 128,-1,3
 232 383 232 383 257 383 c 0,4,5
 273 383 273 383 280 375 c 128,-1,6
 287 367 287 367 289.5 357.5 c 128,-1,7
 292 348 292 348 292 342 c 1,8,9
 262 326 262 326 238.5 289 c 128,-1,10
 215 252 215 252 215 197 c 0,11,12
 215 127 215 127 255 90 c 128,-1,13
 295 53 295 53 356 53 c 0,14,15
 397 53 397 53 428 69.5 c 128,-1,16
 459 86 459 86 476.5 117 c 128,-1,17
 494 148 494 148 494 191 c 0,18,19
 494 215 494 215 487 238 c 128,-1,20
 480 261 480 261 471 272 c 1,21,22
 465 265 465 265 454.5 259.5 c 128,-1,23
 444 254 444 254 428 254 c 0,24,25
 401 254 401 254 384 270 c 128,-1,26
 367 286 367 286 367 314 c 0,27,28
 367 343 367 343 387.5 359 c 128,-1,29
 408 375 408 375 433 375 c 0,30,31
 459 375 459 375 489 355 c 128,-1,32
 519 335 519 335 540.5 294 c 128,-1,33
 562 253 562 253 562 191 c 0,34,35
 562 117 562 117 531 73 c 128,-1,36
 500 29 500 29 452.5 10 c 128,-1,37
 405 -9 405 -9 356 -9 c 0,38,39
 295 -9 295 -9 247 15 c 128,-1,40
 199 39 199 39 172 85.5 c 128,-1,41
 145 132 145 132 145 197 c 0,42,43
 145 211 145 211 146 223.5 c 128,-1,44
 147 236 147 236 150 251 c 2,0,-1
179 281 m 1,45,-1
 163 217 l 1,46,47
 116 233 116 233 81 283.5 c 128,-1,48
 46 334 46 334 46 413 c 0,49,50
 46 501 46 501 89 564 c 128,-1,51
 132 627 132 627 205 661 c 128,-1,52
 278 695 278 695 369 695 c 0,53,54
 451 695 451 695 515 669 c 128,-1,55
 579 643 579 643 623 597.5 c 128,-1,56
 667 552 667 552 690 493.5 c 128,-1,57
 713 435 713 435 713 370 c 0,58,59
 713 331 713 331 705 302 c 128,-1,60
 697 273 697 273 687 256 c 0,61,62
 678 241 678 241 667 234 c 128,-1,63
 656 227 656 227 642 227 c 0,64,65
 629 227 629 227 619.5 234 c 128,-1,66
 610 241 610 241 606 248 c 1,67,68
 617 268 617 268 628 299 c 128,-1,69
 639 330 639 330 639 368 c 0,70,71
 639 416 639 416 622.5 462.5 c 128,-1,72
 606 509 606 509 572.5 547 c 128,-1,73
 539 585 539 585 488 607.5 c 128,-1,74
 437 630 437 630 369 630 c 0,75,76
 293 630 293 630 237 602 c 128,-1,77
 181 574 181 574 150.5 524.5 c 128,-1,78
 120 475 120 475 120 412 c 0,79,80
 120 363 120 363 137 329 c 128,-1,81
 154 295 154 295 179 281 c 1,45,-1
EndSplineSet
EndChar

StartChar: U
Encoding: 85 85 54
Width: 211
Flags: W
LayerCount: 2
Fore
SplineSet
462 265 m 1,0,-1
 370 173 l 1,1,2
 349 179 349 179 338.5 189.5 c 128,-1,3
 328 200 328 200 328 211 c 0,4,5
 328 219 328 219 331.5 225 c 128,-1,6
 335 231 335 231 341 236 c 2,7,-1
 498 388 l 1,8,9
 521 380 521 380 529 370 c 128,-1,10
 537 360 537 360 537 351 c 0,11,12
 537 344 537 344 534 337.5 c 128,-1,13
 531 331 531 331 526 326 c 2,14,-1
 462 265 l 1,0,-1
147 254 m 0,15,16
 149 262 149 262 152 271 c 128,-1,17
 155 280 155 280 157 288 c 0,18,19
 176 331 176 331 210.5 359.5 c 128,-1,20
 245 388 245 388 275 388 c 0,21,22
 290 388 290 388 301 376.5 c 128,-1,23
 312 365 312 365 313 345 c 1,24,25
 272 332 272 332 240 294 c 128,-1,26
 208 256 208 256 208 193 c 0,27,28
 208 124 208 124 248.5 88.5 c 128,-1,29
 289 53 289 53 347 53 c 0,30,31
 401 53 401 53 436.5 82.5 c 128,-1,32
 472 112 472 112 472 162 c 0,33,34
 472 200 472 200 454.5 221.5 c 128,-1,35
 437 243 437 243 414 253 c 1,36,-1
 457 296 l 1,37,38
 491 281 491 281 515.5 245.5 c 128,-1,39
 540 210 540 210 540 161 c 0,40,41
 540 110 540 110 515.5 71.5 c 128,-1,42
 491 33 491 33 447.5 12 c 128,-1,43
 404 -9 404 -9 347 -9 c 0,44,45
 283 -9 283 -9 236 15.5 c 128,-1,46
 189 40 189 40 163.5 85.5 c 128,-1,47
 138 131 138 131 138 192 c 0,48,49
 138 209 138 209 140.5 224 c 128,-1,50
 143 239 143 239 147 254 c 0,15,16
617 92 m 0,51,52
 617 98 617 98 619 103.5 c 128,-1,53
 621 109 621 109 624 115 c 0,54,55
 641 148 641 148 657 201 c 128,-1,56
 673 254 673 254 673 312 c 0,57,58
 673 405 673 405 634.5 477 c 128,-1,59
 596 549 596 549 528.5 589.5 c 128,-1,60
 461 630 461 630 373 630 c 0,61,62
 303 630 303 630 245.5 604 c 128,-1,63
 188 578 188 578 154 529.5 c 128,-1,64
 120 481 120 481 120 412 c 0,65,66
 120 363 120 363 137 329 c 128,-1,67
 154 295 154 295 179 281 c 1,68,-1
 162 215 l 1,69,70
 115 229 115 229 80.5 280 c 128,-1,71
 46 331 46 331 46 410 c 0,72,73
 46 499 46 499 88.5 562.5 c 128,-1,74
 131 626 131 626 205 660.5 c 128,-1,75
 279 695 279 695 373 695 c 0,76,77
 484 695 484 695 568 648 c 128,-1,78
 652 601 652 601 699.5 516.5 c 128,-1,79
 747 432 747 432 747 319 c 0,80,81
 747 264 747 264 731 207 c 128,-1,82
 715 150 715 150 683 92 c 1,83,-1
 794 -13 l 1,84,85
 793 -31 793 -31 782.5 -43 c 128,-1,86
 772 -55 772 -55 753 -55 c 0,87,88
 737 -55 737 -55 721 -45 c 128,-1,89
 705 -35 705 -35 683 -9 c 128,-1,90
 661 17 661 17 627 66 c 0,91,92
 620 76 620 76 618.5 81.5 c 128,-1,93
 617 87 617 87 617 92 c 0,51,52
EndSplineSet
EndChar

StartChar: V
Encoding: 86 86 55
Width: 499
Flags: W
AnchorPoint: "Anchor-2" 515 76 basechar 0
AnchorPoint: "Anchor-1" 352 868 basechar 0
AnchorPoint: "Anchor-0" 566 726 basechar 0
LayerCount: 2
Fore
SplineSet
446 27 m 2,0,-1
 446 161 l 1,1,-1
 515 220 l 1,2,-1
 515 -2 l 1,3,4
 508 -4 508 -4 501.5 -5 c 128,-1,5
 495 -6 495 -6 489 -6 c 0,6,7
 468 -6 468 -6 457 1 c 128,-1,8
 446 8 446 8 446 27 c 2,0,-1
515 208 m 1,9,-1
 453 107 l 2,10,11
 439 91 439 91 410.5 76.5 c 128,-1,12
 382 62 382 62 341 62 c 0,13,14
 291 62 291 62 251.5 83.5 c 128,-1,15
 212 105 212 105 189.5 143 c 128,-1,16
 167 181 167 181 167 230 c 1,17,18
 167 230 167 230 168.5 240.5 c 128,-1,19
 170 251 170 251 172.5 264.5 c 128,-1,20
 175 278 175 278 177 288 c 0,21,22
 189 321 189 321 212 345.5 c 128,-1,23
 235 370 235 370 268 384 c 128,-1,24
 301 398 301 398 341 398 c 0,25,26
 392 398 392 398 431 376.5 c 128,-1,27
 470 355 470 355 492.5 317 c 128,-1,28
 515 279 515 279 515 230 c 2,29,-1
 515 208 l 1,9,-1
234 228 m 1,30,-1
 234 228 l 1,31,32
 234 179 234 179 263 149 c 128,-1,33
 292 119 292 119 341 119 c 256,34,35
 390 119 390 119 419.5 149.5 c 128,-1,36
 449 180 449 180 449 229 c 0,37,38
 449 279 449 279 419.5 309 c 128,-1,39
 390 339 390 339 341 339 c 256,40,41
 292 339 292 339 263 308.5 c 128,-1,42
 234 278 234 278 234 228 c 1,30,-1
295 229 m 1,43,-1
 295 229 l 1,44,45
 295 254 295 254 308.5 267 c 128,-1,46
 322 280 322 280 341 280 c 0,47,48
 361 280 361 280 374.5 267 c 128,-1,49
 388 254 388 254 388 229 c 256,50,51
 388 204 388 204 374.5 191.5 c 128,-1,52
 361 179 361 179 341 179 c 0,53,54
 322 179 322 179 308.5 191.5 c 128,-1,55
 295 204 295 204 295 229 c 1,43,-1
192 275 m 1,56,-1
 183 211 l 1,57,58
 146 222 146 222 115 249 c 128,-1,59
 84 276 84 276 65 319.5 c 128,-1,60
 46 363 46 363 46 421 c 0,61,62
 46 506 46 506 86 567 c 128,-1,63
 126 628 126 628 195 661.5 c 128,-1,64
 264 695 264 695 351 695 c 0,65,66
 420 695 420 695 480.5 674 c 128,-1,67
 541 653 541 653 587.5 613 c 128,-1,68
 634 573 634 573 660.5 515.5 c 128,-1,69
 687 458 687 458 687 384 c 0,70,71
 687 335 687 335 679 305 c 128,-1,72
 671 275 671 275 661 257 c 0,73,74
 653 241 653 241 641.5 234 c 128,-1,75
 630 227 630 227 616 227 c 0,76,77
 603 227 603 227 594 233.5 c 128,-1,78
 585 240 585 240 580 248 c 1,79,80
 591 271 591 271 602 302.5 c 128,-1,81
 613 334 613 334 613 383 c 0,82,83
 613 460 613 460 578 515 c 128,-1,84
 543 570 543 570 483.5 600 c 128,-1,85
 424 630 424 630 351 630 c 0,86,87
 283 630 283 630 230.5 604.5 c 128,-1,88
 178 579 178 579 149 532.5 c 128,-1,89
 120 486 120 486 120 423 c 0,90,91
 120 365 120 365 140.5 328.5 c 128,-1,92
 161 292 161 292 192 275 c 1,56,-1
EndSplineSet
EndChar

StartChar: W
Encoding: 87 87 56
Width: 689
Flags: W
AnchorPoint: "Anchor-2" 444 76 basechar 0
AnchorPoint: "Anchor-1" 375 868 basechar 0
AnchorPoint: "Anchor-0" 621 726 basechar 0
LayerCount: 2
Fore
SplineSet
470 29 m 1,0,-1
 506 64 l 1,1,2
 521 57 521 57 546.5 52.5 c 128,-1,3
 572 48 572 48 601 48 c 1,4,5
 603 44 603 44 604.5 37 c 128,-1,6
 606 30 606 30 606 25 c 0,7,8
 606 9 606 9 595.5 0 c 128,-1,9
 585 -9 585 -9 568 -9 c 0,10,11
 540 -9 540 -9 513.5 3 c 128,-1,12
 487 15 487 15 470 29 c 1,0,-1
434 64 m 2,13,-1
 447 71 l 2,14,15
 474 88 474 88 497 123 c 128,-1,16
 520 158 520 158 520 215 c 0,17,18
 520 257 520 257 500 280.5 c 128,-1,19
 480 304 480 304 452 304 c 0,20,21
 421 304 421 304 403.5 281 c 128,-1,22
 386 258 386 258 386 223 c 0,23,24
 386 176 386 176 410 136.5 c 128,-1,25
 434 97 434 97 482 74 c 1,26,-1
 430 45 l 1,27,28
 407 53 407 53 380.5 76.5 c 128,-1,29
 354 100 354 100 335.5 137 c 128,-1,30
 317 174 317 174 317 221 c 0,31,32
 317 269 317 269 336 301 c 128,-1,33
 355 333 355 333 385.5 349.5 c 128,-1,34
 416 366 416 366 451 366 c 0,35,36
 485 366 485 366 516.5 351 c 128,-1,37
 548 336 548 336 568.5 303 c 128,-1,38
 589 270 589 270 589 216 c 0,39,40
 589 153 589 153 562 108.5 c 128,-1,41
 535 64 535 64 507 43 c 1,42,43
 507 43 507 43 503 39 c 128,-1,44
 499 35 499 35 495 31.5 c 128,-1,45
 491 28 491 28 491 28 c 2,46,47
 480 18 480 18 447.5 4.5 c 128,-1,48
 415 -9 415 -9 367 -9 c 0,49,50
 305 -9 305 -9 254 16 c 128,-1,51
 203 41 203 41 173 92 c 128,-1,52
 143 143 143 143 143 219 c 0,53,54
 143 227 143 227 143.5 238.5 c 128,-1,55
 144 250 144 250 145 263 c 2,56,-1
 155 294 l 2,57,58
 168 334 168 334 191 361 c 128,-1,59
 214 388 214 388 236 388 c 0,60,61
 253 388 253 388 261.5 378 c 128,-1,62
 270 368 270 368 273 356 c 1,63,64
 252 340 252 340 232.5 303.5 c 128,-1,65
 213 267 213 267 213 215 c 0,66,67
 213 160 213 160 235 124 c 128,-1,68
 257 88 257 88 293.5 70.5 c 128,-1,69
 330 53 330 53 373 53 c 0,70,71
 393 53 393 53 407.5 56.5 c 128,-1,72
 422 60 422 60 434 64 c 2,13,-1
179 281 m 1,73,-1
 163 217 l 1,74,75
 132 228 132 228 105 253 c 128,-1,76
 78 278 78 278 62 317.5 c 128,-1,77
 46 357 46 357 46 409 c 0,78,79
 46 491 46 491 88 555.5 c 128,-1,80
 130 620 130 620 205.5 657.5 c 128,-1,81
 281 695 281 695 381 695 c 0,82,83
 469 695 469 695 537 668 c 128,-1,84
 605 641 605 641 652 595.5 c 128,-1,85
 699 550 699 550 723 491.5 c 128,-1,86
 747 433 747 433 747 370 c 0,87,88
 747 322 747 322 738 289.5 c 128,-1,89
 729 257 729 257 714.5 240 c 128,-1,90
 700 223 700 223 683 223 c 0,91,92
 670 223 670 223 660.5 230 c 128,-1,93
 651 237 651 237 646 245 c 1,94,95
 657 266 657 266 665 298 c 128,-1,96
 673 330 673 330 673 368 c 0,97,98
 673 436 673 436 638.5 496 c 128,-1,99
 604 556 604 556 539 593 c 128,-1,100
 474 630 474 630 380 630 c 0,101,102
 304 630 304 630 245 602 c 128,-1,103
 186 574 186 574 153 523.5 c 128,-1,104
 120 473 120 473 120 407 c 0,105,106
 120 358 120 358 137 326.5 c 128,-1,107
 154 295 154 295 179 281 c 1,73,-1
EndSplineSet
EndChar

StartChar: X
Encoding: 88 88 57
Width: 692
Flags: W
AnchorPoint: "Anchor-2" 449 76 basechar 0
AnchorPoint: "Anchor-1" 344 868 basechar 0
AnchorPoint: "Anchor-0" 543 726 basechar 0
LayerCount: 2
Fore
SplineSet
346 619 m 1,0,-1
 346 619 l 1,1,2
 285 619 285 619 235 588 c 128,-1,3
 185 557 185 557 155.5 495 c 128,-1,4
 126 433 126 433 126 338 c 0,5,6
 126 244 126 244 156 181.5 c 128,-1,7
 186 119 186 119 236 88.5 c 128,-1,8
 286 58 286 58 346 58 c 0,9,10
 410 58 410 58 459.5 88.5 c 128,-1,11
 509 119 509 119 537.5 181.5 c 128,-1,12
 566 244 566 244 566 338 c 0,13,14
 566 433 566 433 536 495 c 128,-1,15
 506 557 506 557 456.5 588 c 128,-1,16
 407 619 407 619 346 619 c 1,0,-1
346 686 m 1,17,-1
 346 686 l 1,18,19
 427 686 427 686 494 647 c 128,-1,20
 561 608 561 608 601 530.5 c 128,-1,21
 641 453 641 453 641 338 c 0,22,23
 641 218 641 218 602 141 c 128,-1,24
 563 64 563 64 496 27.5 c 128,-1,25
 429 -9 429 -9 345 -9 c 0,26,27
 292 -9 292 -9 239.5 9 c 128,-1,28
 187 27 187 27 144.5 67 c 128,-1,29
 102 107 102 107 76.5 174 c 128,-1,30
 51 241 51 241 51 338 c 0,31,32
 51 460 51 460 92.5 536.5 c 128,-1,33
 134 613 134 613 201 649.5 c 128,-1,34
 268 686 268 686 346 686 c 1,17,-1
EndSplineSet
EndChar

StartChar: Y
Encoding: 89 89 58
Width: 693
Flags: W
AnchorPoint: "Anchor-1" 349 868 basechar 0
LayerCount: 2
Fore
SplineSet
212 258 m 2,0,-1
 274 277 l 1,1,2
 246 258 246 258 237 231.5 c 128,-1,3
 228 205 228 205 228 182 c 0,4,5
 228 126 228 126 267 90 c 128,-1,6
 306 54 306 54 379 54 c 0,7,8
 435 54 435 54 477.5 79.5 c 128,-1,9
 520 105 520 105 533 138 c 1,10,-1
 553 71 l 1,11,12
 543 55 543 55 519.5 36 c 128,-1,13
 496 17 496 17 459.5 4 c 128,-1,14
 423 -9 423 -9 372 -9 c 0,15,16
 308 -9 308 -9 261 12.5 c 128,-1,17
 214 34 214 34 188.5 72 c 128,-1,18
 163 110 163 110 163 159 c 0,19,20
 163 178 163 178 166.5 193 c 128,-1,21
 170 208 170 208 177 220 c 128,-1,22
 184 232 184 232 193 241.5 c 128,-1,23
 202 251 202 251 212 258 c 2,0,-1
243 254 m 1,24,-1
 193 220 l 1,25,-1
 44 119 l 1,26,27
 29 126 29 126 18.5 140.5 c 128,-1,28
 8 155 8 155 8 168 c 0,29,30
 8 173 8 173 10 180 c 128,-1,31
 12 187 12 187 21 192 c 2,32,-1
 179 284 l 1,33,34
 182 292 182 292 188 295 c 128,-1,35
 194 298 194 298 194 298 c 1,36,-1
 333 387 l 1,37,38
 340 385 340 385 347 379 c 128,-1,39
 354 373 354 373 359 365 c 0,40,41
 365 355 365 355 367.5 349 c 128,-1,42
 370 343 370 343 371 335 c 1,43,-1
 243 254 l 1,24,-1
603 312 m 1,44,-1
 531 312 l 1,45,-1
 531 575 l 1,46,47
 509 594 509 594 459.5 612 c 128,-1,48
 410 630 410 630 345 630 c 0,49,50
 281 630 281 630 232 608 c 128,-1,51
 183 586 183 586 155.5 545.5 c 128,-1,52
 128 505 128 505 128 449 c 0,53,54
 128 399 128 399 153.5 358.5 c 128,-1,55
 179 318 179 318 221 301 c 1,56,-1
 173 262 l 1,57,58
 148 271 148 271 120.5 294.5 c 128,-1,59
 93 318 93 318 73.5 357 c 128,-1,60
 54 396 54 396 54 451 c 0,61,62
 54 525 54 525 90.5 580 c 128,-1,63
 127 635 127 635 193 665 c 128,-1,64
 259 695 259 695 345 695 c 0,65,66
 425 695 425 695 488.5 671.5 c 128,-1,67
 552 648 552 648 587 619 c 0,68,69
 599 608 599 608 601 595.5 c 128,-1,70
 603 583 603 583 603 566 c 2,71,-1
 603 312 l 1,44,-1
536 78 m 1,72,-1
 531 78 l 1,73,-1
 531 345 l 1,74,-1
 603 345 l 1,75,-1
 603 -2 l 1,76,77
 596 -4 596 -4 589 -5 c 128,-1,78
 582 -6 582 -6 576 -6 c 0,79,80
 554 -6 554 -6 545 1 c 128,-1,81
 536 8 536 8 536 23 c 2,82,-1
 536 78 l 1,72,-1
EndSplineSet
EndChar

StartChar: Z
Encoding: 90 90 59
Width: 262
Flags: W
AnchorPoint: "Anchor-2" 377 76 basechar 0
AnchorPoint: "Anchor-1" 347 888 basechar 0
AnchorPoint: "Anchor-0" 509 726 basechar 0
LayerCount: 2
Fore
SplineSet
467 59 m 2,0,-1
 446 36 l 2,1,2
 427 19 427 19 399.5 5 c 128,-1,3
 372 -9 372 -9 327 -9 c 0,4,5
 279 -9 279 -9 239 11.5 c 128,-1,6
 199 32 199 32 175 72.5 c 128,-1,7
 151 113 151 113 151 174 c 0,8,9
 151 195 151 195 154.5 214.5 c 128,-1,10
 158 234 158 234 167 256 c 0,11,12
 170 264 170 264 174.5 270.5 c 128,-1,13
 179 277 179 277 183 284 c 0,14,15
 202 312 202 312 238 334.5 c 128,-1,16
 274 357 274 357 326 357 c 0,17,18
 377 357 377 357 416.5 335 c 128,-1,19
 456 313 456 313 478.5 271.5 c 128,-1,20
 501 230 501 230 501 173 c 0,21,22
 501 140 501 140 492.5 109.5 c 128,-1,23
 484 79 484 79 467 59 c 2,0,-1
432 641 m 1,24,-1
 420 617 l 1,25,26
 406 621 406 621 383.5 625.5 c 128,-1,27
 361 630 361 630 323 630 c 0,28,29
 266 630 266 630 220 609.5 c 128,-1,30
 174 589 174 589 147 548 c 128,-1,31
 120 507 120 507 120 446 c 0,32,33
 120 388 120 388 140 345 c 128,-1,34
 160 302 160 302 200 276 c 1,35,-1
 166 221 l 1,36,37
 117 247 117 247 81.5 305 c 128,-1,38
 46 363 46 363 46 446 c 0,39,40
 46 532 46 532 85 587 c 128,-1,41
 124 642 124 642 187 668.5 c 128,-1,42
 250 695 250 695 321 695 c 0,43,44
 362 695 362 695 402 688.5 c 128,-1,45
 442 682 442 682 468 672 c 0,46,47
 481 667 481 667 481 657 c 0,48,49
 481 649 481 649 473.5 623.5 c 128,-1,50
 466 598 466 598 466 563 c 0,51,52
 466 523 466 523 486.5 497.5 c 128,-1,53
 507 472 507 472 548 472 c 0,54,55
 583 472 583 472 604 495 c 128,-1,56
 625 518 625 518 625 567 c 0,57,58
 625 594 625 594 617.5 621.5 c 128,-1,59
 610 649 610 649 599 665 c 1,60,61
 607 677 607 677 616 681 c 128,-1,62
 625 685 625 685 635 685 c 0,63,64
 652 685 652 685 665.5 670 c 128,-1,65
 679 655 679 655 687 628.5 c 128,-1,66
 695 602 695 602 695 565 c 0,67,68
 695 515 695 515 676.5 480 c 128,-1,69
 658 445 658 445 624.5 427.5 c 128,-1,70
 591 410 591 410 547 410 c 0,71,72
 508 410 508 410 473.5 425.5 c 128,-1,73
 439 441 439 441 417.5 475 c 128,-1,74
 396 509 396 509 396 564 c 0,75,76
 396 586 396 586 401 608 c 128,-1,77
 406 630 406 630 413 646 c 1,78,-1
 432 641 l 1,24,-1
431 174 m 1,79,-1
 431 174 l 1,80,81
 431 231 431 231 401 263 c 128,-1,82
 371 295 371 295 327 295 c 256,83,84
 283 295 283 295 252 263 c 128,-1,85
 221 231 221 231 221 175 c 0,86,87
 221 117 221 117 251.5 85 c 128,-1,88
 282 53 282 53 328 53 c 0,89,90
 375 53 375 53 403 85.5 c 128,-1,91
 431 118 431 118 431 174 c 1,79,-1
424 43 m 1,92,-1
 467 80 l 1,93,94
 484 69 484 69 506.5 54.5 c 128,-1,95
 529 40 529 40 553.5 25 c 128,-1,96
 578 10 578 10 601 -3 c 0,97,98
 602 -6 602 -6 602 -8.5 c 128,-1,99
 602 -11 602 -11 602 -13 c 0,100,101
 602 -30 602 -30 592 -41 c 128,-1,102
 582 -52 582 -52 565 -52 c 0,103,104
 538 -52 538 -52 508 -27.5 c 128,-1,105
 478 -3 478 -3 424 43 c 1,92,-1
EndSplineSet
EndChar

StartChar: bracketleft
Encoding: 91 91 60
Width: 267
Flags: W
LayerCount: 2
Fore
SplineSet
70 -11 m 1,0,-1
 70 649 l 1,1,-1
 140 649 l 1,2,-1
 140 -11 l 1,3,-1
 70 -11 l 1,0,-1
70 2 m 1,4,-1
 251 2 l 1,5,6
 253 -4 253 -4 255 -11 c 128,-1,7
 257 -18 257 -18 257 -27 c 0,8,9
 257 -43 257 -43 248.5 -51 c 128,-1,10
 240 -59 240 -59 223 -59 c 2,11,-1
 110 -59 l 2,12,13
 91 -59 91 -59 80.5 -48.5 c 128,-1,14
 70 -38 70 -38 70 -20 c 2,15,-1
 70 2 l 1,4,-1
110 701 m 2,16,-1
 251 701 l 1,17,18
 253 695 253 695 255 688 c 128,-1,19
 257 681 257 681 257 672 c 0,20,21
 257 656 257 656 248.5 648 c 128,-1,22
 240 640 240 640 223 640 c 2,23,-1
 70 640 l 1,24,-1
 70 662 l 2,25,26
 70 680 70 680 80.5 690.5 c 128,-1,27
 91 701 91 701 110 701 c 2,16,-1
EndSplineSet
Substitution2: "'salt' Stylistic Alternatives lookup 78 subtable" bracketleft_alt
Substitution2: "'ss01' Style Set 1 lookup 77 subtable" bracketleft_alt
EndChar

StartChar: backslash
Encoding: 92 92 61
Width: 341
Flags: W
LayerCount: 2
Fore
SplineSet
110 639 m 2,0,-1
 300 -46 l 1,1,2
 293 -53 293 -53 281 -58.5 c 128,-1,3
 269 -64 269 -64 258 -64 c 0,4,5
 245 -64 245 -64 236 -58 c 128,-1,6
 227 -52 227 -52 223 -38 c 2,7,-1
 33 647 l 1,8,9
 41 655 41 655 52.5 660 c 128,-1,10
 64 665 64 665 75 665 c 0,11,12
 88 665 88 665 97 659 c 128,-1,13
 106 653 106 653 110 639 c 2,0,-1
EndSplineSet
EndChar

StartChar: bracketright
Encoding: 93 93 62
Width: 267
Flags: W
LayerCount: 2
Fore
SplineSet
197 653 m 1,0,-1
 197 -7 l 1,1,-1
 127 -7 l 1,2,-1
 127 653 l 1,3,-1
 197 653 l 1,0,-1
197 640 m 1,4,-1
 16 640 l 1,5,6
 14 646 14 646 12 653 c 128,-1,7
 10 660 10 660 10 669 c 0,8,9
 10 685 10 685 19 693 c 128,-1,10
 28 701 28 701 44 701 c 2,11,-1
 157 701 l 2,12,13
 177 701 177 701 187 690.5 c 128,-1,14
 197 680 197 680 197 662 c 2,15,-1
 197 640 l 1,4,-1
157 -59 m 2,16,-1
 16 -59 l 1,17,18
 14 -53 14 -53 12 -46 c 128,-1,19
 10 -39 10 -39 10 -30 c 0,20,21
 10 -14 10 -14 19 -6 c 128,-1,22
 28 2 28 2 44 2 c 2,23,-1
 197 2 l 1,24,-1
 197 -20 l 2,25,26
 197 -38 197 -38 187 -48.5 c 128,-1,27
 177 -59 177 -59 157 -59 c 2,16,-1
EndSplineSet
Substitution2: "'salt' Stylistic Alternatives lookup 78 subtable" bracketright_alt
Substitution2: "'ss01' Style Set 1 lookup 77 subtable" bracketright_alt
EndChar

StartChar: asciicircum
Encoding: 94 94 63
Width: 463
Flags: W
LayerCount: 2
Fore
SplineSet
194 646 m 1,0,-1
 194 646 l 1,1,2
 199 650 199 650 209 652.5 c 128,-1,3
 219 655 219 655 230 655 c 0,4,5
 260 655 260 655 267 641 c 0,6,7
 281 616 281 616 300.5 578 c 128,-1,8
 320 540 320 540 340.5 497 c 128,-1,9
 361 454 361 454 379.5 413.5 c 128,-1,10
 398 373 398 373 409 343 c 1,11,12
 404 336 404 336 394 330 c 128,-1,13
 384 324 384 324 372 324 c 0,14,15
 356 324 356 324 346.5 331 c 128,-1,16
 337 338 337 338 329 357 c 2,17,-1
 232 573 l 1,18,-1
 225 573 l 1,19,20
 221 564 221 564 209 537.5 c 128,-1,21
 197 511 197 511 181 475 c 128,-1,22
 165 439 165 439 149.5 401.5 c 128,-1,23
 134 364 134 364 123 332 c 1,24,25
 116 328 116 328 107.5 325.5 c 128,-1,26
 99 323 99 323 88 323 c 0,27,28
 75 323 75 323 64.5 330 c 128,-1,29
 54 337 54 337 54 353 c 0,30,31
 54 362 54 362 66.5 391.5 c 128,-1,32
 79 421 79 421 98 460.5 c 128,-1,33
 117 500 117 500 137 539.5 c 128,-1,34
 157 579 157 579 173 608.5 c 128,-1,35
 189 638 189 638 194 646 c 1,0,-1
EndSplineSet
EndChar

StartChar: underscore
Encoding: 95 95 64
Width: 465
Flags: W
LayerCount: 2
Fore
SplineSet
430 -123 m 2,0,-1
 6 -123 l 1,1,2
 4 -117 4 -117 2 -109.5 c 128,-1,3
 0 -102 0 -102 0 -92 c 0,4,5
 0 -75 0 -75 9 -66.5 c 128,-1,6
 18 -58 18 -58 35 -58 c 2,7,-1
 458 -58 l 1,8,9
 460 -64 460 -64 462.5 -72 c 128,-1,10
 465 -80 465 -80 465 -89 c 0,11,12
 465 -105 465 -105 456 -114 c 128,-1,13
 447 -123 447 -123 430 -123 c 2,0,-1
EndSplineSet
EndChar

StartChar: grave
Encoding: 96 96 65
Width: 302
Flags: W
LayerCount: 2
Fore
SplineSet
153 534 m 2,0,-1
 59 634 l 2,1,2
 58 638 58 638 57.5 641.5 c 128,-1,3
 57 645 57 645 57 647 c 0,4,5
 57 663 57 663 68 673 c 128,-1,6
 79 683 79 683 95 683 c 0,7,8
 106 683 106 683 114.5 678.5 c 128,-1,9
 123 674 123 674 130 666 c 2,10,-1
 220 553 l 1,11,12
 219 537 219 537 210 527.5 c 128,-1,13
 201 518 201 518 187 518 c 0,14,15
 176 518 176 518 168.5 522.5 c 128,-1,16
 161 527 161 527 153 534 c 2,0,-1
EndSplineSet
EndChar

StartChar: a
Encoding: 97 97 66
Width: 252
Flags: W
LayerCount: 2
Fore
SplineSet
162 644 m 2,0,-1
 162 -2 l 1,1,2
 155 -4 155 -4 147.5 -5 c 128,-1,3
 140 -6 140 -6 134 -6 c 0,4,5
 112 -6 112 -6 101 1 c 128,-1,6
 90 8 90 8 90 27 c 2,7,-1
 90 671 l 1,8,9
 95 673 95 673 103.5 674 c 128,-1,10
 112 675 112 675 119 675 c 0,11,12
 139 675 139 675 150.5 669 c 128,-1,13
 162 663 162 663 162 644 c 2,0,-1
EndSplineSet
Substitution2: "Single Substitution lookup 35 subtable" ordfeminine
Substitution2: "'aalt' Access All Alternates lookup 0 subtable" ordfeminine
EndChar

StartChar: b
Encoding: 98 98 67
Width: 649
Flags: W
AnchorPoint: "Anchor-2" 497 76 basechar 0
AnchorPoint: "Anchor-1" 350 868 basechar 0
AnchorPoint: "Anchor-0" 561 726 basechar 0
LayerCount: 2
Fore
SplineSet
428 154 m 1,0,-1
 497 220 l 1,1,-1
 497 -2 l 1,2,3
 490 -4 490 -4 483.5 -5 c 128,-1,4
 477 -6 477 -6 471 -6 c 0,5,6
 450 -6 450 -6 439 1 c 128,-1,7
 428 8 428 8 428 27 c 2,8,-1
 428 154 l 1,0,-1
497 226 m 2,9,-1
 497 204 l 1,10,11
 487 176 487 176 479.5 159 c 128,-1,12
 472 142 472 142 462.5 130 c 128,-1,13
 453 118 453 118 436 105 c 1,14,15
 422 89 422 89 395 77 c 128,-1,16
 368 65 368 65 334 65 c 0,17,18
 287 65 287 65 250 85.5 c 128,-1,19
 213 106 213 106 192 142.5 c 128,-1,20
 171 179 171 179 171 226 c 1,21,-1
 177 273 l 1,22,23
 191 321 191 321 231.5 354.5 c 128,-1,24
 272 388 272 388 334 388 c 0,25,26
 382 388 382 388 418.5 367 c 128,-1,27
 455 346 455 346 476 309.5 c 128,-1,28
 497 273 497 273 497 226 c 2,9,-1
239 226 m 1,29,-1
 239 226 l 1,30,31
 239 180 239 180 265 152.5 c 128,-1,32
 291 125 291 125 334 125 c 256,33,34
 377 125 377 125 403 152.5 c 128,-1,35
 429 180 429 180 429 226 c 256,36,37
 429 272 429 272 403 300 c 128,-1,38
 377 328 377 328 334 328 c 256,39,40
 291 328 291 328 265 300 c 128,-1,41
 239 272 239 272 239 226 c 1,29,-1
192 275 m 1,42,-1
 183 210 l 1,43,44
 146 221 146 221 115 248.5 c 128,-1,45
 84 276 84 276 65 319.5 c 128,-1,46
 46 363 46 363 46 421 c 0,47,48
 46 506 46 506 86 567 c 128,-1,49
 126 628 126 628 195 661.5 c 128,-1,50
 264 695 264 695 351 695 c 0,51,52
 418 695 418 695 477 674 c 128,-1,53
 536 653 536 653 581 613 c 128,-1,54
 626 573 626 573 651.5 515.5 c 128,-1,55
 677 458 677 458 677 384 c 0,56,57
 677 335 677 335 668.5 304.5 c 128,-1,58
 660 274 660 274 651 257 c 0,59,60
 641 240 641 240 630.5 233.5 c 128,-1,61
 620 227 620 227 606 227 c 0,62,63
 593 227 593 227 583.5 234 c 128,-1,64
 574 241 574 241 570 248 c 1,65,66
 581 271 581 271 592 302.5 c 128,-1,67
 603 334 603 334 603 383 c 0,68,69
 603 460 603 460 569 515 c 128,-1,70
 535 570 535 570 478 600 c 128,-1,71
 421 630 421 630 351 630 c 0,72,73
 283 630 283 630 230.5 604.5 c 128,-1,74
 178 579 178 579 149 532.5 c 128,-1,75
 120 486 120 486 120 423 c 0,76,77
 120 365 120 365 140.5 328.5 c 128,-1,78
 161 292 161 292 192 275 c 1,42,-1
EndSplineSet
EndChar

StartChar: c
Encoding: 99 99 68
Width: 723
Flags: W
AnchorPoint: "Anchor-2" 386 76 basechar 0
AnchorPoint: "Anchor-1" 350 868 basechar 0
AnchorPoint: "Anchor-0" 561 726 basechar 0
LayerCount: 2
Fore
SplineSet
231 175 m 1,0,-1
 231 175 l 1,1,2
 231 117 231 117 261.5 85 c 128,-1,3
 292 53 292 53 338 53 c 0,4,5
 385 53 385 53 413 85.5 c 128,-1,6
 441 118 441 118 441 174 c 0,7,8
 441 231 441 231 411 263 c 128,-1,9
 381 295 381 295 337 295 c 256,10,11
 293 295 293 295 262 263 c 128,-1,12
 231 231 231 231 231 175 c 1,0,-1
196 269 m 1,13,-1
 173 210 l 1,14,15
 141 223 141 223 112 250.5 c 128,-1,16
 83 278 83 278 64.5 321 c 128,-1,17
 46 364 46 364 46 421 c 0,18,19
 46 506 46 506 86 567 c 128,-1,20
 126 628 126 628 195 661.5 c 128,-1,21
 264 695 264 695 351 695 c 0,22,23
 418 695 418 695 477 674 c 128,-1,24
 536 653 536 653 581 613 c 128,-1,25
 626 573 626 573 651.5 515.5 c 128,-1,26
 677 458 677 458 677 384 c 0,27,28
 677 335 677 335 668.5 304.5 c 128,-1,29
 660 274 660 274 651 257 c 0,30,31
 642 241 642 241 631 234 c 128,-1,32
 620 227 620 227 606 227 c 0,33,34
 593 227 593 227 583.5 234 c 128,-1,35
 574 241 574 241 570 248 c 1,36,37
 581 271 581 271 592 302.5 c 128,-1,38
 603 334 603 334 603 383 c 0,39,40
 603 460 603 460 569 515 c 128,-1,41
 535 570 535 570 478 600 c 128,-1,42
 421 630 421 630 351 630 c 0,43,44
 283 630 283 630 230.5 604.5 c 128,-1,45
 178 579 178 579 149 532.5 c 128,-1,46
 120 486 120 486 120 423 c 0,47,48
 120 367 120 367 141 328.5 c 128,-1,49
 162 290 162 290 196 269 c 1,13,-1
169 233 m 2,50,-1
 182 265 l 1,51,52
 202 303 202 303 241.5 330 c 128,-1,53
 281 357 281 357 336 357 c 0,54,55
 387 357 387 357 426.5 335 c 128,-1,56
 466 313 466 313 488.5 272 c 128,-1,57
 511 231 511 231 511 174 c 0,58,59
 511 113 511 113 487.5 72.5 c 128,-1,60
 464 32 464 32 425 11.5 c 128,-1,61
 386 -9 386 -9 337 -9 c 0,62,63
 289 -9 289 -9 249 11.5 c 128,-1,64
 209 32 209 32 185 72.5 c 128,-1,65
 161 113 161 113 161 174 c 0,66,67
 161 194 161 194 163.5 208.5 c 128,-1,68
 166 223 166 223 169 233 c 2,50,-1
EndSplineSet
EndChar

StartChar: d
Encoding: 100 100 69
Width: 660
Flags: W
AnchorPoint: "Anchor-2" 464 76 basechar 0
AnchorPoint: "Anchor-1" 368 868 basechar 0
AnchorPoint: "Anchor-0" 592 726 basechar 0
LayerCount: 2
Fore
SplineSet
179 281 m 1,0,-1
 163 217 l 1,1,2
 116 233 116 233 81 284 c 128,-1,3
 46 335 46 335 46 414 c 0,4,5
 46 496 46 496 87 559.5 c 128,-1,6
 128 623 128 623 201.5 659 c 128,-1,7
 275 695 275 695 371 695 c 0,8,9
 454 695 454 695 519 669 c 128,-1,10
 584 643 584 643 629.5 597.5 c 128,-1,11
 675 552 675 552 699 493.5 c 128,-1,12
 723 435 723 435 723 370 c 0,13,14
 723 333 723 333 716.5 302.5 c 128,-1,15
 710 272 710 272 694 247 c 0,16,17
 685 234 685 234 675 228.5 c 128,-1,18
 665 223 665 223 653 223 c 0,19,20
 640 223 640 223 631 230 c 128,-1,21
 622 237 622 237 617 245 c 1,22,23
 628 263 628 263 638.5 294.5 c 128,-1,24
 649 326 649 326 649 368 c 0,25,26
 649 416 649 416 632 462.5 c 128,-1,27
 615 509 615 509 581 547 c 128,-1,28
 547 585 547 585 494.5 607.5 c 128,-1,29
 442 630 442 630 371 630 c 0,30,31
 295 630 295 630 238.5 602 c 128,-1,32
 182 574 182 574 151 524.5 c 128,-1,33
 120 475 120 475 120 412 c 0,34,35
 120 363 120 363 137 329 c 128,-1,36
 154 295 154 295 179 281 c 1,0,-1
475 265 m 1,37,-1
 383 173 l 1,38,39
 362 179 362 179 351.5 189.5 c 128,-1,40
 341 200 341 200 341 211 c 0,41,42
 341 219 341 219 344.5 225 c 128,-1,43
 348 231 348 231 354 236 c 2,44,-1
 511 388 l 1,45,46
 534 380 534 380 542 370 c 128,-1,47
 550 360 550 360 550 351 c 0,48,49
 550 344 550 344 547 337.5 c 128,-1,50
 544 331 544 331 539 326 c 2,51,-1
 475 265 l 1,37,-1
160 254 m 1,52,-1
 160 254 l 1,53,54
 160 254 160 254 161 262 c 128,-1,55
 162 270 162 270 162 270 c 1,56,57
 175 306 175 306 197 332.5 c 128,-1,58
 219 359 219 359 243.5 373.5 c 128,-1,59
 268 388 268 388 288 388 c 0,60,61
 303 388 303 388 314 376.5 c 128,-1,62
 325 365 325 365 326 345 c 1,63,64
 285 332 285 332 253 294 c 128,-1,65
 221 256 221 256 221 193 c 0,66,67
 221 124 221 124 261.5 88.5 c 128,-1,68
 302 53 302 53 360 53 c 0,69,70
 414 53 414 53 449.5 82.5 c 128,-1,71
 485 112 485 112 485 162 c 0,72,73
 485 200 485 200 467.5 221.5 c 128,-1,74
 450 243 450 243 427 253 c 1,75,-1
 470 296 l 1,76,77
 504 281 504 281 528.5 245.5 c 128,-1,78
 553 210 553 210 553 161 c 0,79,80
 553 110 553 110 528.5 71.5 c 128,-1,81
 504 33 504 33 460.5 12 c 128,-1,82
 417 -9 417 -9 360 -9 c 0,83,84
 296 -9 296 -9 249 15.5 c 128,-1,85
 202 40 202 40 176.5 85.5 c 128,-1,86
 151 131 151 131 151 192 c 0,87,88
 151 224 151 224 160 254 c 1,52,-1
EndSplineSet
EndChar

StartChar: e
Encoding: 101 101 70
Width: 492
Flags: W
LayerCount: 2
Fore
SplineSet
100 326 m 1,0,-1
 99 393 l 1,1,2
 114 395 114 395 131 396.5 c 128,-1,3
 148 398 148 398 172 398 c 0,4,5
 248 398 248 398 312.5 371 c 128,-1,6
 377 344 377 344 416.5 291 c 128,-1,7
 456 238 456 238 456 159 c 0,8,9
 456 77 456 77 409 34 c 128,-1,10
 362 -9 362 -9 287 -9 c 0,11,12
 242 -9 242 -9 199.5 9 c 128,-1,13
 157 27 157 27 124 67 c 128,-1,14
 91 107 91 107 71.5 172.5 c 128,-1,15
 52 238 52 238 52 333 c 0,16,17
 52 436 52 436 76 505.5 c 128,-1,18
 100 575 100 575 139 616.5 c 128,-1,19
 178 658 178 658 224 676.5 c 128,-1,20
 270 695 270 695 313 695 c 0,21,22
 352 695 352 695 374.5 687.5 c 128,-1,23
 397 680 397 680 407 668.5 c 128,-1,24
 417 657 417 657 417 645 c 0,25,26
 417 634 417 634 410.5 625 c 128,-1,27
 404 616 404 616 398 612 c 1,28,29
 388 618 388 618 366 624 c 128,-1,30
 344 630 344 630 317 630 c 0,31,32
 271 630 271 630 227.5 603.5 c 128,-1,33
 184 577 184 577 155.5 519.5 c 128,-1,34
 127 462 127 462 124 367 c 2,35,36
 124 367 124 367 124 358 c 128,-1,37
 124 349 124 349 124 339.5 c 128,-1,38
 124 330 124 330 124 330 c 1,39,-1
 124 314 l 2,40,41
 124 227 124 227 147 170 c 128,-1,42
 170 113 170 113 207 84.5 c 128,-1,43
 244 56 244 56 286 56 c 0,44,45
 330 56 330 56 357 81.5 c 128,-1,46
 384 107 384 107 384 155 c 0,47,48
 384 211 384 211 354.5 251 c 128,-1,49
 325 291 325 291 277.5 312 c 128,-1,50
 230 333 230 333 177 333 c 0,51,52
 149 333 149 333 133 331 c 128,-1,53
 117 329 117 329 100 326 c 1,0,-1
EndSplineSet
EndChar

StartChar: f
Encoding: 102 102 71
Width: 649
Flags: W
AnchorPoint: "Anchor-2" 591 76 basechar 0
AnchorPoint: "Anchor-1" 335 868 basechar 0
AnchorPoint: "Anchor-0" 569 726 basechar 0
LayerCount: 2
Fore
SplineSet
573 426 m 1,0,-1
 566 604 l 1,1,2
 574 615 574 615 588.5 625.5 c 128,-1,3
 603 636 603 636 623.5 643.5 c 128,-1,4
 644 651 644 651 669 651 c 0,5,6
 704 651 704 651 735 635.5 c 128,-1,7
 766 620 766 620 785.5 589.5 c 128,-1,8
 805 559 805 559 805 514 c 0,9,10
 805 471 805 471 788.5 440.5 c 128,-1,11
 772 410 772 410 742 393.5 c 128,-1,12
 712 377 712 377 673 377 c 0,13,14
 630 377 630 377 607.5 392 c 128,-1,15
 585 407 585 407 573 426 c 1,0,-1
591 514 m 1,16,-1
 591 514 l 1,17,18
 591 476 591 476 612.5 455.5 c 128,-1,19
 634 435 634 435 665 435 c 0,20,21
 698 435 698 435 718.5 456 c 128,-1,22
 739 477 739 477 739 514 c 256,23,24
 739 551 739 551 718.5 572 c 128,-1,25
 698 593 698 593 665 593 c 256,26,27
 632 593 632 593 611.5 572 c 128,-1,28
 591 551 591 551 591 514 c 1,16,-1
523 140 m 1,29,-1
 535 64 l 1,30,31
 526 49 526 49 502 32 c 128,-1,32
 478 15 478 15 441 3 c 128,-1,33
 404 -9 404 -9 356 -9 c 0,34,35
 286 -9 286 -9 237.5 15 c 128,-1,36
 189 39 189 39 164 81 c 128,-1,37
 139 123 139 123 139 177 c 0,38,39
 139 210 139 210 146.5 232.5 c 128,-1,40
 154 255 154 255 163 270 c 2,41,-1
 184 295 l 2,42,43
 203 320 203 320 239.5 338.5 c 128,-1,44
 276 357 276 357 321 357 c 0,45,46
 345 357 345 357 356 348.5 c 128,-1,47
 367 340 367 340 367 321 c 0,48,49
 367 317 367 317 366.5 309.5 c 128,-1,50
 366 302 366 302 364 299 c 2,51,-1
 339 298 l 2,52,53
 284 296 284 296 247.5 267.5 c 128,-1,54
 211 239 211 239 211 180 c 0,55,56
 211 124 211 124 250 89 c 128,-1,57
 289 54 289 54 363 54 c 0,58,59
 404 54 404 54 437.5 67.5 c 128,-1,60
 471 81 471 81 493.5 101 c 128,-1,61
 516 121 516 121 523 140 c 1,29,-1
524 78 m 1,62,-1
 519 78 l 1,63,-1
 519 578 l 1,64,65
 500 595 500 595 453 612.5 c 128,-1,66
 406 630 406 630 348 630 c 0,67,68
 282 630 282 630 230.5 608 c 128,-1,69
 179 586 179 586 149.5 545 c 128,-1,70
 120 504 120 504 120 445 c 0,71,72
 120 388 120 388 144 353 c 128,-1,73
 168 318 168 318 202 300 c 1,74,-1
 172 246 l 1,75,76
 143 257 143 257 113.5 282 c 128,-1,77
 84 307 84 307 65 348 c 128,-1,78
 46 389 46 389 46 445 c 0,79,80
 46 524 46 524 84 580 c 128,-1,81
 122 636 122 636 189.5 665.5 c 128,-1,82
 257 695 257 695 344 695 c 0,83,84
 397 695 397 695 442.5 683 c 128,-1,85
 488 671 488 671 523.5 652.5 c 128,-1,86
 559 634 559 634 582 613 c 1,87,-1
 591 448 l 1,88,-1
 591 -2 l 1,89,90
 584 -4 584 -4 577 -5 c 128,-1,91
 570 -6 570 -6 564 -6 c 0,92,93
 542 -6 542 -6 533 1 c 128,-1,94
 524 8 524 8 524 23 c 2,95,-1
 524 78 l 1,62,-1
EndSplineSet
EndChar

StartChar: g
Encoding: 103 103 72
Width: 588
Flags: W
AnchorPoint: "Anchor-1" 356 868 basechar 0
LayerCount: 2
Fore
SplineSet
142 256 m 1,0,-1
 142 256 l 1,1,2
 145 264 145 264 148 268 c 128,-1,3
 151 272 151 272 158 284 c 0,4,5
 177 312 177 312 213 334.5 c 128,-1,6
 249 357 249 357 301 357 c 0,7,8
 352 357 352 357 391.5 335 c 128,-1,9
 431 313 431 313 453.5 272 c 128,-1,10
 476 231 476 231 476 174 c 0,11,12
 476 113 476 113 452.5 72.5 c 128,-1,13
 429 32 429 32 390 11.5 c 128,-1,14
 351 -9 351 -9 302 -9 c 0,15,16
 254 -9 254 -9 214 11.5 c 128,-1,17
 174 32 174 32 150 72.5 c 128,-1,18
 126 113 126 113 126 174 c 0,19,20
 126 195 126 195 129.5 214.5 c 128,-1,21
 133 234 133 234 142 256 c 1,0,-1
197 289 m 1,22,-1
 148 241 l 1,23,24
 106 269 106 269 76 315.5 c 128,-1,25
 46 362 46 362 46 431 c 0,26,27
 46 517 46 517 87.5 575.5 c 128,-1,28
 129 634 129 634 200.5 664.5 c 128,-1,29
 272 695 272 695 360 695 c 0,30,31
 452 695 452 695 516 671.5 c 128,-1,32
 580 648 580 648 611 627 c 0,33,34
 630 614 630 614 637.5 603.5 c 128,-1,35
 645 593 645 593 645 573 c 2,36,-1
 645 -2 l 1,37,38
 638 -4 638 -4 630 -5 c 128,-1,39
 622 -6 622 -6 617 -6 c 0,40,41
 595 -6 595 -6 584 1 c 128,-1,42
 573 8 573 8 573 27 c 2,43,-1
 573 571 l 1,44,45
 545 591 545 591 490 610.5 c 128,-1,46
 435 630 435 630 356 630 c 0,47,48
 294 630 294 630 240 609 c 128,-1,49
 186 588 186 588 153 544 c 128,-1,50
 120 500 120 500 120 431 c 0,51,52
 120 411 120 411 126.5 384 c 128,-1,53
 133 357 133 357 149.5 332 c 128,-1,54
 166 307 166 307 197 289 c 1,22,-1
196 175 m 1,55,-1
 196 175 l 1,56,57
 196 117 196 117 226.5 85 c 128,-1,58
 257 53 257 53 303 53 c 0,59,60
 350 53 350 53 378 85.5 c 128,-1,61
 406 118 406 118 406 174 c 0,62,63
 406 231 406 231 376 263 c 128,-1,64
 346 295 346 295 302 295 c 256,65,66
 258 295 258 295 227 263 c 128,-1,67
 196 231 196 231 196 175 c 1,55,-1
EndSplineSet
EndChar

StartChar: h
Encoding: 104 104 73
Width: 551
Flags: W
LayerCount: 2
Fore
SplineSet
476 199 m 1,0,-1
 396 199 l 1,1,-1
 396 291 l 2,2,3
 396 351 396 351 362.5 380 c 128,-1,4
 329 409 329 409 276 409 c 0,5,6
 237 409 237 409 203.5 394 c 128,-1,7
 170 379 170 379 147 358 c 1,8,-1
 132 423 l 1,9,10
 156 440 156 440 195.5 457.5 c 128,-1,11
 235 475 235 475 287 475 c 0,12,13
 370 475 370 475 423 430 c 128,-1,14
 476 385 476 385 476 293 c 2,15,-1
 476 199 l 1,0,-1
77 264 m 1,16,-1
 157 264 l 1,17,-1
 157 2 l 1,18,19
 152 0 152 0 142 -2.5 c 128,-1,20
 132 -5 132 -5 120 -5 c 0,21,22
 99 -5 99 -5 88 3.5 c 128,-1,23
 77 12 77 12 77 31 c 2,24,-1
 77 264 l 1,16,-1
396 263 m 1,25,-1
 476 262 l 1,26,-1
 476 2 l 1,27,28
 471 0 471 0 460.5 -2.5 c 128,-1,29
 450 -5 450 -5 439 -5 c 0,30,31
 417 -5 417 -5 406.5 3.5 c 128,-1,32
 396 12 396 12 396 31 c 2,33,-1
 396 263 l 1,25,-1
157 225 m 1,34,-1
 77 225 l 1,35,-1
 77 648 l 1,36,37
 82 650 82 650 92.5 652.5 c 128,-1,38
 103 655 103 655 115 655 c 0,39,40
 136 655 136 655 146.5 646.5 c 128,-1,41
 157 638 157 638 157 619 c 2,42,-1
 157 225 l 1,34,-1
EndSplineSet
EndChar

StartChar: i
Encoding: 105 105 74
Width: 324
Flags: W
LayerCount: 2
Fore
SplineSet
228 662 m 1,0,-1
 228 662 l 1,1,2
 233 656 233 656 233.5 648.5 c 128,-1,3
 234 641 234 641 234 629 c 2,4,-1
 234 -2 l 1,5,6
 227 -4 227 -4 219.5 -5 c 128,-1,7
 212 -6 212 -6 206 -6 c 0,8,9
 184 -6 184 -6 173 1 c 128,-1,10
 162 8 162 8 162 27 c 2,11,-1
 162 595 l 1,12,-1
 181 595 l 1,13,-1
 39 479 l 1,14,15
 26 481 26 481 13 491 c 128,-1,16
 0 501 0 501 0 520 c 0,17,18
 0 534 0 534 8.5 544 c 128,-1,19
 17 554 17 554 32 566 c 2,20,-1
 171 673 l 2,21,22
 173 674 173 674 179 674.5 c 128,-1,23
 185 675 185 675 190 675 c 0,24,25
 206 675 206 675 215 671.5 c 128,-1,26
 224 668 224 668 228 662 c 1,0,-1
EndSplineSet
Substitution2: "Single Substitution lookup 43 subtable" i.loclTRK
Substitution2: "'aalt' Access All Alternates lookup 0 subtable" i.loclTRK
EndChar

StartChar: j
Encoding: 106 106 75
Width: 262
Flags: W
AnchorPoint: "Anchor-2" 608 76 basechar 0
AnchorPoint: "Anchor-1" 389 868 basechar 0
AnchorPoint: "Anchor-0" 628 726 basechar 0
LayerCount: 2
Fore
SplineSet
336 -9 m 1,0,-1
 336 -9 l 1,1,2
 281 -9 281 -9 236 13 c 128,-1,3
 191 35 191 35 164.5 79.5 c 128,-1,4
 138 124 138 124 138 191 c 0,5,6
 138 212 138 212 140 223 c 128,-1,7
 142 234 142 234 144 250 c 2,8,9
 144 250 144 250 146 259 c 128,-1,10
 148 268 148 268 150.5 277 c 128,-1,11
 153 286 153 286 153 286 c 2,12,13
 161 309 161 309 174.5 330.5 c 128,-1,14
 188 352 188 352 205 366.5 c 128,-1,15
 222 381 222 381 239 381 c 0,16,17
 252 381 252 381 259 376 c 128,-1,18
 266 371 266 371 269.5 363 c 128,-1,19
 273 355 273 355 275 345 c 1,20,21
 252 326 252 326 230 288 c 128,-1,22
 208 250 208 250 208 191 c 0,23,24
 208 141 208 141 226.5 110.5 c 128,-1,25
 245 80 245 80 274.5 66.5 c 128,-1,26
 304 53 304 53 337 53 c 0,27,28
 350 53 350 53 359.5 55 c 128,-1,29
 369 57 369 57 376 60 c 2,30,-1
 355 37 l 1,31,32
 352 81 352 81 349.5 122 c 128,-1,33
 347 163 347 163 347 228 c 0,34,35
 347 277 347 277 365 307.5 c 128,-1,36
 383 338 383 338 413 352.5 c 128,-1,37
 443 367 443 367 477 367 c 0,38,39
 514 367 514 367 543.5 352.5 c 128,-1,40
 573 338 573 338 590.5 309 c 128,-1,41
 608 280 608 280 608 236 c 2,42,-1
 608 -2 l 1,43,44
 601 -4 601 -4 593.5 -5 c 128,-1,45
 586 -6 586 -6 580 -6 c 0,46,47
 557 -6 557 -6 548 1 c 128,-1,48
 539 8 539 8 539 27 c 2,49,-1
 539 232 l 2,50,51
 539 271 539 271 521.5 288.5 c 128,-1,52
 504 306 504 306 478 306 c 256,53,54
 452 306 452 306 434.5 288.5 c 128,-1,55
 417 271 417 271 417 230 c 2,56,-1
 417 31 l 2,57,58
 417 19 417 19 412 11 c 128,-1,59
 407 3 407 3 393 -2 c 0,60,61
 384 -5 384 -5 369.5 -7 c 128,-1,62
 355 -9 355 -9 336 -9 c 1,0,-1
176 281 m 1,63,-1
 153 215 l 1,64,65
 125 226 125 226 101 250.5 c 128,-1,66
 77 275 77 275 61.5 313.5 c 128,-1,67
 46 352 46 352 46 403 c 0,68,69
 46 492 46 492 91 557.5 c 128,-1,70
 136 623 136 623 214 659 c 128,-1,71
 292 695 292 695 391 695 c 0,72,73
 476 695 476 695 545 670 c 128,-1,74
 614 645 614 645 663.5 600.5 c 128,-1,75
 713 556 713 556 739.5 497 c 128,-1,76
 766 438 766 438 766 370 c 0,77,78
 766 298 766 298 747 260.5 c 128,-1,79
 728 223 728 223 702 223 c 0,80,81
 689 223 689 223 679.5 230 c 128,-1,82
 670 237 670 237 665 245 c 1,83,84
 677 268 677 268 684.5 299.5 c 128,-1,85
 692 331 692 331 692 368 c 0,86,87
 692 448 692 448 651 507 c 128,-1,88
 610 566 610 566 542 598 c 128,-1,89
 474 630 474 630 391 630 c 256,90,91
 308 630 308 630 247 600.5 c 128,-1,92
 186 571 186 571 153 519.5 c 128,-1,93
 120 468 120 468 120 403 c 0,94,95
 120 360 120 360 134 328.5 c 128,-1,96
 148 297 148 297 176 281 c 1,63,-1
EndSplineSet
EndChar

StartChar: k
Encoding: 107 107 76
Width: 592
Flags: W
AnchorPoint: "Anchor-2" 617 76 basechar 0
AnchorPoint: "Anchor-1" 398 868 basechar 0
AnchorPoint: "Anchor-0" 631 726 basechar 0
LayerCount: 2
Fore
SplineSet
357 194 m 1,0,-1
 372 284 l 1,1,-1
 376 284 l 1,2,3
 390 318 390 318 420 338 c 128,-1,4
 450 358 450 358 490 358 c 256,5,6
 530 358 530 358 558 341.5 c 128,-1,7
 586 325 586 325 601.5 294 c 128,-1,8
 617 263 617 263 617 219 c 2,9,-1
 617 -2 l 1,10,11
 610 -4 610 -4 602.5 -5 c 128,-1,12
 595 -6 595 -6 589 -6 c 0,13,14
 566 -6 566 -6 557 1 c 128,-1,15
 548 8 548 8 548 27 c 2,16,-1
 548 219 l 2,17,18
 548 254 548 254 532 275.5 c 128,-1,19
 516 297 516 297 483 297 c 0,20,21
 455 297 455 297 435 277 c 128,-1,22
 415 257 415 257 415 218 c 2,23,-1
 415 -2 l 1,24,25
 408 -4 408 -4 400 -5 c 128,-1,26
 392 -6 392 -6 386 -6 c 0,27,28
 363 -6 363 -6 355 1 c 128,-1,29
 347 8 347 8 347 27 c 2,30,-1
 347 118 l 1,31,-1
 357 194 l 1,0,-1
383 294 m 1,32,-1
 360 121 l 1,33,34
 352 99 352 99 325.5 85.5 c 128,-1,35
 299 72 299 72 264 72 c 0,36,37
 230 72 230 72 198 88 c 128,-1,38
 166 104 166 104 145.5 137 c 128,-1,39
 125 170 125 170 125 219 c 0,40,41
 125 233 125 233 127.5 245.5 c 128,-1,42
 130 258 130 258 134 265 c 2,43,44
 134 265 134 265 136 270 c 128,-1,45
 138 275 138 275 140 279.5 c 128,-1,46
 142 284 142 284 142 284 c 2,47,48
 160 316 160 316 191.5 337 c 128,-1,49
 223 358 223 358 269 358 c 0,50,51
 300 358 300 358 323.5 347 c 128,-1,52
 347 336 347 336 362 321 c 128,-1,53
 377 306 377 306 383 294 c 1,32,-1
193 216 m 1,54,-1
 193 216 l 1,55,56
 193 177 193 177 215.5 154.5 c 128,-1,57
 238 132 238 132 271 132 c 0,58,59
 303 132 303 132 326 154.5 c 128,-1,60
 349 177 349 177 349 215 c 256,61,62
 349 253 349 253 326 275.5 c 128,-1,63
 303 298 303 298 271 298 c 256,64,65
 239 298 239 298 216 276 c 128,-1,66
 193 254 193 254 193 216 c 1,54,-1
190 269 m 1,67,-1
 172 203 l 1,68,69
 150 210 150 210 120 233 c 128,-1,70
 90 256 90 256 68 298 c 128,-1,71
 46 340 46 340 46 405 c 0,72,73
 46 465 46 465 70 517.5 c 128,-1,74
 94 570 94 570 139 610 c 128,-1,75
 184 650 184 650 248.5 672.5 c 128,-1,76
 313 695 313 695 395 695 c 0,77,78
 511 695 511 695 595 651 c 128,-1,79
 679 607 679 607 724.5 532 c 128,-1,80
 770 457 770 457 770 364 c 0,81,82
 770 302 770 302 751.5 262.5 c 128,-1,83
 733 223 733 223 705 223 c 0,84,85
 693 223 693 223 683.5 230 c 128,-1,86
 674 237 674 237 669 245 c 1,87,88
 680 265 680 265 688 297.5 c 128,-1,89
 696 330 696 330 696 367 c 0,90,91
 696 444 696 444 656.5 503 c 128,-1,92
 617 562 617 562 549 596 c 128,-1,93
 481 630 481 630 394 630 c 0,94,95
 312 630 312 630 250 600 c 128,-1,96
 188 570 188 570 154 519 c 128,-1,97
 120 468 120 468 120 403 c 0,98,99
 120 362 120 362 131 335.5 c 128,-1,100
 142 309 142 309 158 293.5 c 128,-1,101
 174 278 174 278 190 269 c 1,67,-1
EndSplineSet
EndChar

StartChar: l
Encoding: 108 108 77
Width: 499
Flags: W
AnchorPoint: "Anchor-2" 613 76 basechar 0
AnchorPoint: "Anchor-1" 410 868 basechar 0
AnchorPoint: "Anchor-0" 671 726 basechar 0
LayerCount: 2
Fore
SplineSet
613 219 m 2,0,-1
 613 -2 l 1,1,2
 606 -4 606 -4 598.5 -5 c 128,-1,3
 591 -6 591 -6 585 -6 c 0,4,5
 562 -6 562 -6 553 1 c 128,-1,6
 544 8 544 8 544 27 c 2,7,-1
 544 222 l 2,8,9
 544 258 544 258 525 277.5 c 128,-1,10
 506 297 506 297 476 297 c 256,11,12
 446 297 446 297 426.5 278 c 128,-1,13
 407 259 407 259 407 219 c 2,14,-1
 407 -2 l 1,15,16
 400 -4 400 -4 392 -5 c 128,-1,17
 384 -6 384 -6 378 -6 c 0,18,19
 355 -6 355 -6 347.5 1 c 128,-1,20
 340 8 340 8 340 27 c 2,21,-1
 340 219 l 2,22,23
 340 256 340 256 321 276.5 c 128,-1,24
 302 297 302 297 272 297 c 0,25,26
 241 297 241 297 221.5 277 c 128,-1,27
 202 257 202 257 202 219 c 2,28,-1
 202 -2 l 1,29,30
 195 -4 195 -4 188 -5 c 128,-1,31
 181 -6 181 -6 175 -6 c 0,32,33
 152 -6 152 -6 142.5 1 c 128,-1,34
 133 8 133 8 133 27 c 2,35,-1
 133 257 l 1,36,-1
 148 275 l 1,37,38
 160 309 160 309 189.5 333.5 c 128,-1,39
 219 358 219 358 269 358 c 0,40,41
 303 358 303 358 331 342 c 128,-1,42
 359 326 359 326 374 298 c 1,43,44
 386 320 386 320 413.5 339 c 128,-1,45
 441 358 441 358 482 358 c 0,46,47
 517 358 517 358 546.5 343.5 c 128,-1,48
 576 329 576 329 594.5 298.5 c 128,-1,49
 613 268 613 268 613 219 c 2,0,-1
161 284 m 1,50,-1
 141 212 l 1,51,52
 99 235 99 235 72.5 282 c 128,-1,53
 46 329 46 329 46 399 c 0,54,55
 46 493 46 493 94 559 c 128,-1,56
 142 625 142 625 222.5 660 c 128,-1,57
 303 695 303 695 402 695 c 0,58,59
 488 695 488 695 561.5 668.5 c 128,-1,60
 635 642 635 642 689.5 593.5 c 128,-1,61
 744 545 744 545 774.5 477 c 128,-1,62
 805 409 805 409 805 326 c 0,63,64
 805 289 805 289 799.5 249.5 c 128,-1,65
 794 210 794 210 782 170 c 128,-1,66
 770 130 770 130 750 92 c 1,67,-1
 861 -13 l 1,68,69
 860 -31 860 -31 849.5 -43 c 128,-1,70
 839 -55 839 -55 820 -55 c 0,71,72
 804 -55 804 -55 788 -45 c 128,-1,73
 772 -35 772 -35 750 -9 c 128,-1,74
 728 17 728 17 694 66 c 0,75,76
 684 80 684 80 684 92 c 0,77,78
 684 97 684 97 686 103 c 128,-1,79
 688 109 688 109 691 116 c 0,80,81
 708 155 708 155 719.5 207 c 128,-1,82
 731 259 731 259 731 315 c 0,83,84
 731 412 731 412 687.5 482.5 c 128,-1,85
 644 553 644 553 570 591.5 c 128,-1,86
 496 630 496 630 402 630 c 0,87,88
 318 630 318 630 254.5 600 c 128,-1,89
 191 570 191 570 155.5 517.5 c 128,-1,90
 120 465 120 465 120 397 c 0,91,92
 120 319 120 319 161 284 c 1,50,-1
EndSplineSet
EndChar

StartChar: m
Encoding: 109 109 78
Width: 673
Flags: W
AnchorPoint: "Anchor-1" 332 868 basechar 0
LayerCount: 2
Fore
SplineSet
242 281 m 1,0,-1
 213 228 l 1,1,2
 169 237 169 237 131 266 c 128,-1,3
 93 295 93 295 69.5 342 c 128,-1,4
 46 389 46 389 46 450 c 0,5,6
 46 527 46 527 85.5 582 c 128,-1,7
 125 637 125 637 192 666 c 128,-1,8
 259 695 259 695 342 695 c 0,9,10
 416 695 416 695 468 675.5 c 128,-1,11
 520 656 520 656 547 638 c 0,12,13
 566 625 566 625 574.5 613 c 128,-1,14
 583 601 583 601 583 575 c 2,15,-1
 583 -2 l 1,16,17
 576 -4 576 -4 568.5 -5 c 128,-1,18
 561 -6 561 -6 555 -6 c 0,19,20
 533 -6 533 -6 522 1 c 128,-1,21
 511 8 511 8 511 27 c 2,22,-1
 511 583 l 1,23,24
 486 601 486 601 440.5 615.5 c 128,-1,25
 395 630 395 630 342 630 c 0,26,27
 282 630 282 630 231.5 609.5 c 128,-1,28
 181 589 181 589 150.5 548.5 c 128,-1,29
 120 508 120 508 120 448 c 0,30,31
 120 381 120 381 155 339 c 128,-1,32
 190 297 190 297 242 281 c 1,0,-1
201 246 m 1,33,-1
 201 246 l 1,34,35
 204 250 204 250 208 254 c 128,-1,36
 212 258 212 258 216 262 c 128,-1,37
 220 266 220 266 224 269 c 0,38,39
 243 289 243 289 265.5 307 c 128,-1,40
 288 325 288 325 309.5 336 c 128,-1,41
 331 347 331 347 344 347 c 0,42,43
 364 347 364 347 372 333 c 0,44,45
 376 327 376 327 378 318 c 128,-1,46
 380 309 380 309 380 302 c 1,47,48
 296 251 296 251 234.5 172 c 128,-1,49
 173 93 173 93 142 -6 c 1,50,-1
 131 -6 l 2,51,52
 113 -6 113 -6 99 2 c 128,-1,53
 85 10 85 10 85 37 c 0,54,55
 85 60 85 60 100 95.5 c 128,-1,56
 115 131 115 131 141.5 171 c 128,-1,57
 168 211 168 211 201 246 c 1,33,-1
EndSplineSet
EndChar

StartChar: n
Encoding: 110 110 79
Width: 741
Flags: W
AnchorPoint: "Anchor-2" 494 76 basechar 0
AnchorPoint: "Anchor-1" 355 868 basechar 0
AnchorPoint: "Anchor-0" 609 726 basechar 0
LayerCount: 2
Fore
SplineSet
434 349 m 1,0,-1
 494 337 l 1,1,-1
 494 -2 l 1,2,3
 487 -4 487 -4 479.5 -5 c 128,-1,4
 472 -6 472 -6 466 -6 c 0,5,6
 443 -6 443 -6 434 1 c 128,-1,7
 425 8 425 8 425 27 c 2,8,-1
 425 156 l 2,9,10
 425 175 425 175 425.5 202 c 128,-1,11
 426 229 426 229 427.5 258 c 128,-1,12
 429 287 429 287 430.5 311.5 c 128,-1,13
 432 336 432 336 434 349 c 1,0,-1
494 337 m 1,14,-1
 437 310 l 2,15,16
 390 289 390 289 340.5 248.5 c 128,-1,17
 291 208 291 208 247.5 145.5 c 128,-1,18
 204 83 204 83 175 -6 c 1,19,-1
 164 -6 l 2,20,21
 141 -6 141 -6 128.5 3 c 128,-1,22
 116 12 116 12 116 31 c 0,23,24
 116 54 116 54 129.5 86.5 c 128,-1,25
 143 119 143 119 163 151 c 128,-1,26
 183 183 183 183 200 204 c 2,27,-1
 223 233 l 1,28,29
 270 284 270 284 328 324 c 128,-1,30
 386 364 386 364 444 377 c 1,31,32
 456 373 456 373 471.5 360.5 c 128,-1,33
 487 348 487 348 494 337 c 1,14,-1
245 241 m 1,34,-1
 208 186 l 1,35,36
 168 198 168 198 131 227 c 128,-1,37
 94 256 94 256 70 304 c 128,-1,38
 46 352 46 352 46 420 c 0,39,40
 46 502 46 502 85 564 c 128,-1,41
 124 626 124 626 193.5 660.5 c 128,-1,42
 263 695 263 695 356 695 c 0,43,44
 453 695 453 695 529.5 658 c 128,-1,45
 606 621 606 621 650.5 552.5 c 128,-1,46
 695 484 695 484 695 389 c 0,47,48
 695 304 695 304 668 256 c 0,49,50
 658 240 658 240 646.5 233.5 c 128,-1,51
 635 227 635 227 623 227 c 256,52,53
 611 227 611 227 602 232.5 c 128,-1,54
 593 238 593 238 588 248 c 1,55,56
 599 271 599 271 610 303.5 c 128,-1,57
 621 336 621 336 621 388 c 0,58,59
 621 463 621 463 586 517 c 128,-1,60
 551 571 551 571 491 600.5 c 128,-1,61
 431 630 431 630 355 630 c 0,62,63
 289 630 289 630 236 604.5 c 128,-1,64
 183 579 183 579 151.5 532 c 128,-1,65
 120 485 120 485 120 419 c 0,66,67
 120 369 120 369 138.5 332.5 c 128,-1,68
 157 296 157 296 185.5 273 c 128,-1,69
 214 250 214 250 245 241 c 1,34,-1
EndSplineSet
Substitution2: "'sups' Superscript lookup 31 subtable" n.superior
Substitution2: "'aalt' Access All Alternates lookup 0 subtable" n.superior
EndChar

StartChar: o
Encoding: 111 111 80
Width: 918
Flags: W
LayerCount: 2
Fore
SplineSet
100 326 m 1,0,-1
 99 393 l 1,1,2
 114 395 114 395 131 396.5 c 128,-1,3
 148 398 148 398 172 398 c 0,4,5
 248 398 248 398 312.5 371 c 128,-1,6
 377 344 377 344 416.5 291 c 128,-1,7
 456 238 456 238 456 159 c 0,8,9
 456 77 456 77 409 34 c 128,-1,10
 362 -9 362 -9 287 -9 c 0,11,12
 242 -9 242 -9 199.5 9 c 128,-1,13
 157 27 157 27 124 67 c 128,-1,14
 91 107 91 107 71.5 172.5 c 128,-1,15
 52 238 52 238 52 333 c 0,16,17
 52 436 52 436 76 505.5 c 128,-1,18
 100 575 100 575 139 616.5 c 128,-1,19
 178 658 178 658 224 676.5 c 128,-1,20
 270 695 270 695 313 695 c 0,21,22
 352 695 352 695 374.5 687.5 c 128,-1,23
 397 680 397 680 407 668.5 c 128,-1,24
 417 657 417 657 417 645 c 0,25,26
 417 634 417 634 410.5 625 c 128,-1,27
 404 616 404 616 398 612 c 1,28,29
 388 618 388 618 366 624 c 128,-1,30
 344 630 344 630 317 630 c 0,31,32
 271 630 271 630 227.5 603.5 c 128,-1,33
 184 577 184 577 155.5 519.5 c 128,-1,34
 127 462 127 462 124 367 c 2,35,36
 124 367 124 367 124 358 c 128,-1,37
 124 349 124 349 124 339.5 c 128,-1,38
 124 330 124 330 124 330 c 1,39,-1
 124 314 l 2,40,41
 124 227 124 227 147 170 c 128,-1,42
 170 113 170 113 207 84.5 c 128,-1,43
 244 56 244 56 286 56 c 0,44,45
 330 56 330 56 357 81.5 c 128,-1,46
 384 107 384 107 384 155 c 0,47,48
 384 211 384 211 354.5 251 c 128,-1,49
 325 291 325 291 277.5 312 c 128,-1,50
 230 333 230 333 177 333 c 0,51,52
 149 333 149 333 133 331 c 128,-1,53
 117 329 117 329 100 326 c 1,0,-1
756 25 m 2,54,-1
 756 674 l 1,55,-1
 828 674 l 1,56,-1
 828 -4 l 1,57,58
 821 -6 821 -6 813.5 -7 c 128,-1,59
 806 -8 806 -8 800 -8 c 0,60,61
 778 -8 778 -8 767 -1 c 128,-1,62
 756 6 756 6 756 25 c 2,54,-1
828 624 m 1,63,-1
 756 624 l 1,64,-1
 756 700 l 2,65,66
 756 742 756 742 737.5 766.5 c 128,-1,67
 719 791 719 791 669 791 c 0,68,69
 637 791 637 791 602.5 786.5 c 128,-1,70
 568 782 568 782 529 777 c 128,-1,71
 490 772 490 772 444 772 c 0,72,73
 365 772 365 772 324.5 802.5 c 128,-1,74
 284 833 284 833 284 881 c 0,75,76
 284 898 284 898 289.5 908.5 c 128,-1,77
 295 919 295 919 304.5 924 c 128,-1,78
 314 929 314 929 325 929 c 256,79,80
 336 929 336 929 344 925.5 c 128,-1,81
 352 922 352 922 357 918 c 1,82,83
 356 912 356 912 356 907.5 c 128,-1,84
 356 903 356 903 356 898 c 0,85,86
 356 869 356 869 377 852.5 c 128,-1,87
 398 836 398 836 454 836 c 0,88,89
 497 836 497 836 535 840.5 c 128,-1,90
 573 845 573 845 607.5 849.5 c 128,-1,91
 642 854 642 854 673 854 c 0,92,93
 743 854 743 854 785.5 821.5 c 128,-1,94
 828 789 828 789 828 707 c 2,95,-1
 828 624 l 1,63,-1
EndSplineSet
Substitution2: "Single Substitution lookup 35 subtable" ordmasculine
Substitution2: "'aalt' Access All Alternates lookup 0 subtable" ordmasculine
EndChar

StartChar: p
Encoding: 112 112 81
Width: 649
Flags: W
AnchorPoint: "Anchor-1" 341 868 basechar 0
LayerCount: 2
Fore
SplineSet
523 140 m 1,0,-1
 535 64 l 1,1,2
 526 49 526 49 502 32 c 128,-1,3
 478 15 478 15 441 3 c 128,-1,4
 404 -9 404 -9 356 -9 c 0,5,6
 286 -9 286 -9 237.5 15 c 128,-1,7
 189 39 189 39 164 81 c 128,-1,8
 139 123 139 123 139 177 c 0,9,10
 139 210 139 210 146.5 232.5 c 128,-1,11
 154 255 154 255 163 270 c 2,12,-1
 184 295 l 2,13,14
 203 320 203 320 239.5 338.5 c 128,-1,15
 276 357 276 357 321 357 c 0,16,17
 345 357 345 357 356 348.5 c 128,-1,18
 367 340 367 340 367 321 c 0,19,20
 367 317 367 317 366.5 309.5 c 128,-1,21
 366 302 366 302 364 299 c 2,22,-1
 339 298 l 2,23,24
 284 296 284 296 247.5 267.5 c 128,-1,25
 211 239 211 239 211 180 c 0,26,27
 211 124 211 124 250 89 c 128,-1,28
 289 54 289 54 363 54 c 0,29,30
 404 54 404 54 437.5 67.5 c 128,-1,31
 471 81 471 81 493.5 101 c 128,-1,32
 516 121 516 121 523 140 c 1,0,-1
524 78 m 1,33,-1
 519 78 l 1,34,-1
 519 578 l 1,35,36
 500 595 500 595 453 612.5 c 128,-1,37
 406 630 406 630 348 630 c 0,38,39
 282 630 282 630 230.5 608 c 128,-1,40
 179 586 179 586 149.5 545 c 128,-1,41
 120 504 120 504 120 445 c 0,42,43
 120 388 120 388 144 353 c 128,-1,44
 168 318 168 318 202 300 c 1,45,-1
 172 246 l 1,46,47
 143 257 143 257 113.5 282 c 128,-1,48
 84 307 84 307 65 348 c 128,-1,49
 46 389 46 389 46 445 c 0,50,51
 46 524 46 524 84 580 c 128,-1,52
 122 636 122 636 189.5 665.5 c 128,-1,53
 257 695 257 695 344 695 c 0,54,55
 397 695 397 695 439 684 c 128,-1,56
 481 673 481 673 509.5 659.5 c 128,-1,57
 538 646 538 646 550 638 c 0,58,59
 574 623 574 623 582.5 610 c 128,-1,60
 591 597 591 597 591 571 c 2,61,-1
 591 -2 l 1,62,63
 584 -4 584 -4 577 -5 c 128,-1,64
 570 -6 570 -6 564 -6 c 0,65,66
 542 -6 542 -6 533 1 c 128,-1,67
 524 8 524 8 524 23 c 2,68,-1
 524 78 l 1,33,-1
EndSplineSet
EndChar

StartChar: q
Encoding: 113 113 82
Width: 592
Flags: W
AnchorPoint: "Anchor-2" 617 76 basechar 0
AnchorPoint: "Anchor-1" 398 868 basechar 0
AnchorPoint: "Anchor-0" 631 726 basechar 0
LayerCount: 2
Fore
SplineSet
357 194 m 1,0,-1
 372 284 l 1,1,-1
 376 284 l 1,2,3
 390 318 390 318 420 338 c 128,-1,4
 450 358 450 358 490 358 c 256,5,6
 530 358 530 358 558 341.5 c 128,-1,7
 586 325 586 325 601.5 294 c 128,-1,8
 617 263 617 263 617 219 c 2,9,-1
 617 -2 l 1,10,11
 610 -4 610 -4 602.5 -5 c 128,-1,12
 595 -6 595 -6 589 -6 c 0,13,14
 566 -6 566 -6 557 1 c 128,-1,15
 548 8 548 8 548 27 c 2,16,-1
 548 219 l 2,17,18
 548 254 548 254 532 275.5 c 128,-1,19
 516 297 516 297 483 297 c 0,20,21
 455 297 455 297 435 277 c 128,-1,22
 415 257 415 257 415 218 c 2,23,-1
 415 -2 l 1,24,25
 408 -4 408 -4 400 -5 c 128,-1,26
 392 -6 392 -6 386 -6 c 0,27,28
 363 -6 363 -6 355 1 c 128,-1,29
 347 8 347 8 347 27 c 2,30,-1
 347 118 l 1,31,-1
 357 194 l 1,0,-1
383 294 m 1,32,-1
 360 121 l 1,33,34
 352 99 352 99 325.5 85.5 c 128,-1,35
 299 72 299 72 264 72 c 0,36,37
 230 72 230 72 198 88 c 128,-1,38
 166 104 166 104 145.5 137 c 128,-1,39
 125 170 125 170 125 219 c 0,40,41
 125 233 125 233 127.5 245.5 c 128,-1,42
 130 258 130 258 134 265 c 2,43,44
 134 265 134 265 136 270 c 128,-1,45
 138 275 138 275 140 279.5 c 128,-1,46
 142 284 142 284 142 284 c 2,47,48
 160 316 160 316 191.5 337 c 128,-1,49
 223 358 223 358 269 358 c 0,50,51
 300 358 300 358 323.5 347 c 128,-1,52
 347 336 347 336 362 321 c 128,-1,53
 377 306 377 306 383 294 c 1,32,-1
193 216 m 1,54,-1
 193 216 l 1,55,56
 193 177 193 177 215.5 154.5 c 128,-1,57
 238 132 238 132 271 132 c 0,58,59
 303 132 303 132 326 154.5 c 128,-1,60
 349 177 349 177 349 215 c 256,61,62
 349 253 349 253 326 275.5 c 128,-1,63
 303 298 303 298 271 298 c 256,64,65
 239 298 239 298 216 276 c 128,-1,66
 193 254 193 254 193 216 c 1,54,-1
190 269 m 1,67,-1
 172 203 l 1,68,69
 150 210 150 210 120 233 c 128,-1,70
 90 256 90 256 68 298 c 128,-1,71
 46 340 46 340 46 405 c 0,72,73
 46 465 46 465 70 517.5 c 128,-1,74
 94 570 94 570 139 610 c 128,-1,75
 184 650 184 650 248.5 672.5 c 128,-1,76
 313 695 313 695 395 695 c 0,77,78
 511 695 511 695 595 651 c 128,-1,79
 679 607 679 607 724.5 532 c 128,-1,80
 770 457 770 457 770 364 c 0,81,82
 770 302 770 302 751.5 262.5 c 128,-1,83
 733 223 733 223 705 223 c 0,84,85
 693 223 693 223 683.5 230 c 128,-1,86
 674 237 674 237 669 245 c 1,87,88
 680 265 680 265 688 297.5 c 128,-1,89
 696 330 696 330 696 367 c 0,90,91
 696 444 696 444 656.5 503 c 128,-1,92
 617 562 617 562 549 596 c 128,-1,93
 481 630 481 630 394 630 c 0,94,95
 312 630 312 630 250 600 c 128,-1,96
 188 570 188 570 154 519 c 128,-1,97
 120 468 120 468 120 403 c 0,98,99
 120 362 120 362 131 335.5 c 128,-1,100
 142 309 142 309 158 293.5 c 128,-1,101
 174 278 174 278 190 269 c 1,67,-1
EndSplineSet
EndChar

StartChar: r
Encoding: 114 114 83
Width: 499
Flags: W
AnchorPoint: "Anchor-2" 417 76 basechar 0
AnchorPoint: "Anchor-1" 364 868 basechar 0
AnchorPoint: "Anchor-0" 578 726 basechar 0
LayerCount: 2
Fore
SplineSet
191 273 m 1,0,-1
 162 212 l 1,1,2
 135 224 135 224 108.5 251 c 128,-1,3
 82 278 82 278 64 320.5 c 128,-1,4
 46 363 46 363 46 420 c 0,5,6
 46 481 46 481 69 531.5 c 128,-1,7
 92 582 92 582 133.5 618.5 c 128,-1,8
 175 655 175 655 231 675 c 128,-1,9
 287 695 287 695 353 695 c 0,10,11
 466 695 466 695 544.5 647.5 c 128,-1,12
 623 600 623 600 664.5 518.5 c 128,-1,13
 706 437 706 437 706 334 c 0,14,15
 706 273 706 273 690 213.5 c 128,-1,16
 674 154 674 154 642 92 c 1,17,-1
 753 -13 l 1,18,19
 752 -31 752 -31 741.5 -43 c 128,-1,20
 731 -55 731 -55 712 -55 c 0,21,22
 696 -55 696 -55 677.5 -42 c 128,-1,23
 659 -29 659 -29 637 -1.5 c 128,-1,24
 615 26 615 26 586 67 c 0,25,26
 579 77 579 77 577.5 82 c 128,-1,27
 576 87 576 87 576 92 c 0,28,29
 576 98 576 98 579 104 c 128,-1,30
 582 110 582 110 583 114 c 0,31,32
 604 158 604 158 618 212 c 128,-1,33
 632 266 632 266 632 327 c 0,34,35
 632 418 632 418 599.5 486 c 128,-1,36
 567 554 567 554 505 592 c 128,-1,37
 443 630 443 630 353 630 c 0,38,39
 284 630 284 630 231.5 603.5 c 128,-1,40
 179 577 179 577 149.5 530.5 c 128,-1,41
 120 484 120 484 120 422 c 0,42,43
 120 368 120 368 140 329.5 c 128,-1,44
 160 291 160 291 191 273 c 1,0,-1
217 175 m 1,45,-1
 217 175 l 1,46,47
 217 117 217 117 247.5 85 c 128,-1,48
 278 53 278 53 324 53 c 0,49,50
 371 53 371 53 399 85.5 c 128,-1,51
 427 118 427 118 427 174 c 0,52,53
 427 231 427 231 397 263 c 128,-1,54
 367 295 367 295 323 295 c 256,55,56
 279 295 279 295 248 263 c 128,-1,57
 217 231 217 231 217 175 c 1,45,-1
155 233 m 2,58,-1
 168 265 l 1,59,60
 188 303 188 303 227.5 330 c 128,-1,61
 267 357 267 357 322 357 c 0,62,63
 373 357 373 357 412.5 335 c 128,-1,64
 452 313 452 313 474.5 272 c 128,-1,65
 497 231 497 231 497 174 c 0,66,67
 497 113 497 113 473.5 72.5 c 128,-1,68
 450 32 450 32 411 11.5 c 128,-1,69
 372 -9 372 -9 323 -9 c 0,70,71
 275 -9 275 -9 235 11.5 c 128,-1,72
 195 32 195 32 171 72.5 c 128,-1,73
 147 113 147 113 147 174 c 0,74,75
 147 194 147 194 149.5 208.5 c 128,-1,76
 152 223 152 223 155 233 c 2,58,-1
EndSplineSet
EndChar

StartChar: s
Encoding: 115 115 84
Width: 519
Flags: W
AnchorPoint: "Anchor-1" 327 868 basechar 0
LayerCount: 2
Fore
SplineSet
257 296 m 1,0,-1
 257 296 l 1,1,2
 250 284 250 284 244 275 c 128,-1,3
 238 266 238 266 233 259.5 c 128,-1,4
 228 253 228 253 225.5 249.5 c 128,-1,5
 223 246 223 246 223 246 c 1,6,7
 198 248 198 248 167.5 260 c 128,-1,8
 137 272 137 272 109.5 297 c 128,-1,9
 82 322 82 322 64 360.5 c 128,-1,10
 46 399 46 399 46 453 c 0,11,12
 46 532 46 532 85 585.5 c 128,-1,13
 124 639 124 639 189.5 667 c 128,-1,14
 255 695 255 695 333 695 c 256,15,16
 411 695 411 695 466 673.5 c 128,-1,17
 521 652 521 652 547 634 c 0,18,19
 566 621 566 621 573.5 607.5 c 128,-1,20
 581 594 581 594 581 566 c 2,21,-1
 581 14 l 1,22,23
 572 2 572 2 558 -6.5 c 128,-1,24
 544 -15 544 -15 532 -19 c 1,25,26
 465 1 465 1 394 22 c 128,-1,27
 323 43 323 43 251.5 66 c 128,-1,28
 180 89 180 89 111 114 c 1,29,30
 106 122 106 122 103 133.5 c 128,-1,31
 100 145 100 145 100 157 c 0,32,33
 100 165 100 165 101 172.5 c 128,-1,34
 102 180 102 180 103 184 c 2,35,-1
 210 266 l 1,36,-1
 240 293 l 1,37,-1
 335 366 l 1,38,39
 350 362 350 362 364 344 c 128,-1,40
 378 326 378 326 378 312 c 1,41,-1
 180 161 l 1,42,43
 226 146 226 146 263.5 133.5 c 128,-1,44
 301 121 301 121 337.5 110 c 128,-1,45
 374 99 374 99 415 87.5 c 128,-1,46
 456 76 456 76 509 61 c 1,47,-1
 509 575 l 1,48,49
 493 592 493 592 445 611 c 128,-1,50
 397 630 397 630 333 630 c 256,51,52
 269 630 269 630 221 607.5 c 128,-1,53
 173 585 173 585 146.5 545 c 128,-1,54
 120 505 120 505 120 452 c 0,55,56
 120 405 120 405 139 372.5 c 128,-1,57
 158 340 158 340 189.5 321.5 c 128,-1,58
 221 303 221 303 257 296 c 1,0,-1
EndSplineSet
EndChar

StartChar: t
Encoding: 116 116 85
Width: 262
Flags: W
AnchorPoint: "Anchor-2" 386 76 basechar 0
AnchorPoint: "Anchor-1" 346 888 basechar 0
AnchorPoint: "Anchor-0" 469 726 basechar 0
LayerCount: 2
Fore
SplineSet
577 450 m 2,0,-1
 577 511 l 1,1,-1
 577 589 l 1,2,-1
 577 691 l 1,3,4
 582 693 582 693 589.5 694 c 128,-1,5
 597 695 597 695 604 695 c 0,6,7
 624 695 624 695 634.5 689 c 128,-1,8
 645 683 645 683 645 664 c 2,9,-1
 645 421 l 1,10,11
 638 419 638 419 631.5 418 c 128,-1,12
 625 417 625 417 619 417 c 0,13,14
 597 417 597 417 587 424 c 128,-1,15
 577 431 577 431 577 450 c 2,0,-1
237 175 m 1,16,-1
 237 175 l 1,17,18
 237 117 237 117 267.5 85 c 128,-1,19
 298 53 298 53 344 53 c 0,20,21
 391 53 391 53 419 85.5 c 128,-1,22
 447 118 447 118 447 174 c 0,23,24
 447 231 447 231 417 263 c 128,-1,25
 387 295 387 295 343 295 c 256,26,27
 299 295 299 295 268 263 c 128,-1,28
 237 231 237 231 237 175 c 1,16,-1
593 583 m 1,29,-1
 585 489 l 1,30,31
 571 522 571 522 538.5 554.5 c 128,-1,32
 506 587 506 587 458 608.5 c 128,-1,33
 410 630 410 630 347 630 c 0,34,35
 280 630 280 630 228.5 604.5 c 128,-1,36
 177 579 177 579 148.5 532.5 c 128,-1,37
 120 486 120 486 120 423 c 0,38,39
 120 367 120 367 142.5 326 c 128,-1,40
 165 285 165 285 203 265 c 1,41,-1
 181 207 l 1,42,43
 146 219 146 219 115 247.5 c 128,-1,44
 84 276 84 276 65 320 c 128,-1,45
 46 364 46 364 46 421 c 0,46,47
 46 506 46 506 85 567 c 128,-1,48
 124 628 124 628 191.5 661.5 c 128,-1,49
 259 695 259 695 345 695 c 0,50,51
 406 695 406 695 456 678 c 128,-1,52
 506 661 506 661 541.5 635 c 128,-1,53
 577 609 577 609 593 583 c 1,29,-1
175 233 m 2,54,-1
 188 265 l 1,55,56
 208 303 208 303 247.5 330 c 128,-1,57
 287 357 287 357 342 357 c 0,58,59
 393 357 393 357 432.5 335 c 128,-1,60
 472 313 472 313 494.5 272 c 128,-1,61
 517 231 517 231 517 174 c 0,62,63
 517 113 517 113 493.5 72.5 c 128,-1,64
 470 32 470 32 431 11.5 c 128,-1,65
 392 -9 392 -9 343 -9 c 0,66,67
 295 -9 295 -9 255 11.5 c 128,-1,68
 215 32 215 32 191 72.5 c 128,-1,69
 167 113 167 113 167 174 c 0,70,71
 167 194 167 194 169.5 208.5 c 128,-1,72
 172 223 172 223 175 233 c 2,54,-1
EndSplineSet
EndChar

StartChar: u
Encoding: 117 117 86
Width: 0
Flags: W
AnchorPoint: "Anchor-2" -90 75 mark 0
LayerCount: 2
Fore
SplineSet
-101 -178 m 1,0,-1
 -117 -206 l 2,1,2
 -134 -238 -134 -238 -172.5 -261 c 128,-1,3
 -211 -284 -211 -284 -268 -284 c 0,4,5
 -324 -284 -324 -284 -361 -257 c 128,-1,6
 -398 -230 -398 -230 -398 -179 c 0,7,8
 -398 -129 -398 -129 -362 -102.5 c 128,-1,9
 -326 -76 -326 -76 -277 -76 c 0,10,11
 -233 -76 -233 -76 -200 -94 c 128,-1,12
 -167 -112 -167 -112 -146 -132 c 1,13,14
 -146 -132 -146 -132 -141 -135 c 128,-1,15
 -136 -138 -136 -138 -129 -142 c 128,-1,16
 -122 -146 -122 -146 -115 -149.5 c 128,-1,17
 -108 -153 -108 -153 -104 -155 c 0,18,19
 -74 -182 -74 -182 -31 -197 c 128,-1,20
 12 -212 12 -212 49 -212 c 0,21,22
 60 -212 60 -212 68 -210.5 c 128,-1,23
 76 -209 76 -209 81 -208 c 1,24,25
 85 -212 85 -212 87.5 -219.5 c 128,-1,26
 90 -227 90 -227 90 -234 c 0,27,28
 90 -250 90 -250 79 -260 c 128,-1,29
 68 -270 68 -270 40 -270 c 0,30,31
 -9 -270 -9 -270 -52 -251.5 c 128,-1,32
 -95 -233 -95 -233 -130 -203 c 1,33,-1
 -161 -183 l 1,34,35
 -192 -157 -192 -157 -216 -143.5 c 128,-1,36
 -240 -130 -240 -130 -268 -130 c 0,37,38
 -297 -130 -297 -130 -311.5 -144.5 c 128,-1,39
 -326 -159 -326 -159 -326 -180 c 0,40,41
 -326 -202 -326 -202 -309 -216 c 128,-1,42
 -292 -230 -292 -230 -261 -230 c 0,43,44
 -227 -230 -227 -230 -203.5 -213.5 c 128,-1,45
 -180 -197 -180 -197 -170 -167 c 0,46,47
 -168 -161 -168 -161 -165 -149 c 128,-1,48
 -162 -137 -162 -137 -162 -138 c 2,49,-1
 -162 75 l 1,50,-1
 -90 75 l 1,51,-1
 -90 -76 l 2,52,53
 -90 -109 -90 -109 -92.5 -133 c 128,-1,54
 -95 -157 -95 -157 -101 -178 c 1,0,-1
EndSplineSet
EndChar

StartChar: v
Encoding: 118 118 87
Width: 499
Flags: W
AnchorPoint: "Anchor-2" 515 76 basechar 0
AnchorPoint: "Anchor-1" 352 868 basechar 0
AnchorPoint: "Anchor-0" 566 726 basechar 0
LayerCount: 2
Fore
SplineSet
446 27 m 2,0,-1
 446 161 l 1,1,-1
 515 220 l 1,2,-1
 515 -2 l 1,3,4
 508 -4 508 -4 501.5 -5 c 128,-1,5
 495 -6 495 -6 489 -6 c 0,6,7
 468 -6 468 -6 457 1 c 128,-1,8
 446 8 446 8 446 27 c 2,0,-1
515 208 m 1,9,-1
 453 107 l 2,10,11
 439 91 439 91 410.5 76.5 c 128,-1,12
 382 62 382 62 341 62 c 0,13,14
 291 62 291 62 251.5 83.5 c 128,-1,15
 212 105 212 105 189.5 143 c 128,-1,16
 167 181 167 181 167 230 c 1,17,18
 167 230 167 230 168.5 240.5 c 128,-1,19
 170 251 170 251 172.5 264.5 c 128,-1,20
 175 278 175 278 177 288 c 0,21,22
 189 321 189 321 212 345.5 c 128,-1,23
 235 370 235 370 268 384 c 128,-1,24
 301 398 301 398 341 398 c 0,25,26
 392 398 392 398 431 376.5 c 128,-1,27
 470 355 470 355 492.5 317 c 128,-1,28
 515 279 515 279 515 230 c 2,29,-1
 515 208 l 1,9,-1
234 228 m 1,30,-1
 234 228 l 1,31,32
 234 179 234 179 263 149 c 128,-1,33
 292 119 292 119 341 119 c 256,34,35
 390 119 390 119 419.5 149.5 c 128,-1,36
 449 180 449 180 449 229 c 0,37,38
 449 279 449 279 419.5 309 c 128,-1,39
 390 339 390 339 341 339 c 256,40,41
 292 339 292 339 263 308.5 c 128,-1,42
 234 278 234 278 234 228 c 1,30,-1
295 229 m 1,43,-1
 295 229 l 1,44,45
 295 254 295 254 308.5 267 c 128,-1,46
 322 280 322 280 341 280 c 0,47,48
 361 280 361 280 374.5 267 c 128,-1,49
 388 254 388 254 388 229 c 256,50,51
 388 204 388 204 374.5 191.5 c 128,-1,52
 361 179 361 179 341 179 c 0,53,54
 322 179 322 179 308.5 191.5 c 128,-1,55
 295 204 295 204 295 229 c 1,43,-1
192 275 m 1,56,-1
 183 211 l 1,57,58
 146 222 146 222 115 249 c 128,-1,59
 84 276 84 276 65 319.5 c 128,-1,60
 46 363 46 363 46 421 c 0,61,62
 46 506 46 506 86 567 c 128,-1,63
 126 628 126 628 195 661.5 c 128,-1,64
 264 695 264 695 351 695 c 0,65,66
 420 695 420 695 480.5 674 c 128,-1,67
 541 653 541 653 587.5 613 c 128,-1,68
 634 573 634 573 660.5 515.5 c 128,-1,69
 687 458 687 458 687 384 c 0,70,71
 687 335 687 335 679 305 c 128,-1,72
 671 275 671 275 661 257 c 0,73,74
 653 241 653 241 641.5 234 c 128,-1,75
 630 227 630 227 616 227 c 0,76,77
 603 227 603 227 594 233.5 c 128,-1,78
 585 240 585 240 580 248 c 1,79,80
 591 271 591 271 602 302.5 c 128,-1,81
 613 334 613 334 613 383 c 0,82,83
 613 460 613 460 578 515 c 128,-1,84
 543 570 543 570 483.5 600 c 128,-1,85
 424 630 424 630 351 630 c 0,86,87
 283 630 283 630 230.5 604.5 c 128,-1,88
 178 579 178 579 149 532.5 c 128,-1,89
 120 486 120 486 120 423 c 0,90,91
 120 365 120 365 140.5 328.5 c 128,-1,92
 161 292 161 292 192 275 c 1,56,-1
EndSplineSet
EndChar

StartChar: w
Encoding: 119 119 88
Width: 657
Flags: W
AnchorPoint: "Anchor-1" 318 868 basechar 0
LayerCount: 2
Fore
SplineSet
495 671 m 1,0,-1
 495 671 l 1,1,2
 500 673 500 673 508.5 674 c 128,-1,3
 517 675 517 675 524 675 c 0,4,5
 544 675 544 675 555.5 669 c 128,-1,6
 567 663 567 663 567 644 c 2,7,-1
 567 -2 l 1,8,9
 560 -4 560 -4 552.5 -5 c 128,-1,10
 545 -6 545 -6 539 -6 c 0,11,12
 517 -6 517 -6 508.5 1 c 128,-1,13
 500 8 500 8 500 27 c 0,14,15
 500 50 500 50 500 58 c 128,-1,16
 500 66 500 66 500 69.5 c 128,-1,17
 500 73 500 73 500 82 c 2,18,-1
 495 96 l 1,19,20
 495 96 495 96 495 98.5 c 128,-1,21
 495 101 495 101 495 110.5 c 128,-1,22
 495 120 495 120 495 142.5 c 128,-1,23
 495 165 495 165 495 205 c 128,-1,24
 495 245 495 245 495 307.5 c 128,-1,25
 495 370 495 370 495 459.5 c 128,-1,26
 495 549 495 549 495 671 c 1,0,-1
508 156 m 1,27,-1
 513 72 l 1,28,29
 482 35 482 35 428.5 13 c 128,-1,30
 375 -9 375 -9 311 -9 c 0,31,32
 231 -9 231 -9 171.5 18.5 c 128,-1,33
 112 46 112 46 79 98 c 128,-1,34
 46 150 46 150 46 223 c 0,35,36
 46 279 46 279 63.5 319 c 128,-1,37
 81 359 81 359 108.5 386.5 c 128,-1,38
 136 414 136 414 166.5 429.5 c 128,-1,39
 197 445 197 445 222 451 c 1,40,-1
 266 397 l 1,41,42
 232 392 232 392 198 372 c 128,-1,43
 164 352 164 352 141 315.5 c 128,-1,44
 118 279 118 279 118 222 c 0,45,46
 118 176 118 176 139.5 138 c 128,-1,47
 161 100 161 100 206 78 c 128,-1,48
 251 56 251 56 320 56 c 0,49,50
 371 56 371 56 411.5 73 c 128,-1,51
 452 90 452 90 477 113.5 c 128,-1,52
 502 137 502 137 508 156 c 1,27,-1
296 343 m 1,53,-1
 296 343 l 1,54,55
 293 347 293 347 274.5 370.5 c 128,-1,56
 256 394 256 394 229 428 c 128,-1,57
 202 462 202 462 172.5 499 c 128,-1,58
 143 536 143 536 117 569 c 128,-1,59
 91 602 91 602 74.5 622.5 c 128,-1,60
 58 643 58 643 58 643 c 1,61,62
 63 654 63 654 69 662.5 c 128,-1,63
 75 671 75 671 83.5 675.5 c 128,-1,64
 92 680 92 680 101 680 c 0,65,66
 112 680 112 680 120 672.5 c 128,-1,67
 128 665 128 665 133 658 c 2,68,-1
 367 354 l 1,69,70
 364 346 364 346 358.5 339 c 128,-1,71
 353 332 353 332 345.5 328 c 128,-1,72
 338 324 338 324 328 324 c 256,73,74
 318 324 318 324 310.5 329.5 c 128,-1,75
 303 335 303 335 296 343 c 1,53,-1
EndSplineSet
EndChar

StartChar: x
Encoding: 120 120 89
Width: 689
Flags: W
AnchorPoint: "Anchor-1" 364 868 basechar 0
LayerCount: 2
Fore
SplineSet
557 27 m 2,0,-1
 557 671 l 1,1,2
 563 673 563 673 570.5 674 c 128,-1,3
 578 675 578 675 586 675 c 0,4,5
 606 675 606 675 617.5 669 c 128,-1,6
 629 663 629 663 629 644 c 2,7,-1
 629 -2 l 1,8,9
 622 -4 622 -4 614.5 -5 c 128,-1,10
 607 -6 607 -6 601 -6 c 0,11,12
 579 -6 579 -6 568 1 c 128,-1,13
 557 8 557 8 557 27 c 2,0,-1
576 175 m 1,14,-1
 581 87 l 1,15,16
 572 73 572 73 537 50 c 128,-1,17
 502 27 502 27 447.5 9 c 128,-1,18
 393 -9 393 -9 323 -9 c 0,19,20
 187 -9 187 -9 114.5 44.5 c 128,-1,21
 42 98 42 98 42 188 c 0,22,23
 42 271 42 271 96 315.5 c 128,-1,24
 150 360 150 360 253 373 c 0,25,26
 333 384 333 384 370 418.5 c 128,-1,27
 407 453 407 453 407 515 c 0,28,29
 407 568 407 568 378 595 c 128,-1,30
 349 622 349 622 309 622 c 0,31,32
 265 622 265 622 239 596 c 128,-1,33
 213 570 213 570 213 520 c 0,34,35
 213 504 213 504 216.5 490.5 c 128,-1,36
 220 477 220 477 228 460 c 1,37,38
 225 454 225 454 216.5 448 c 128,-1,39
 208 442 208 442 195 442 c 0,40,41
 177 442 177 442 165 453 c 128,-1,42
 153 464 153 464 147 483 c 128,-1,43
 141 502 141 502 141 526 c 0,44,45
 141 574 141 574 162.5 610 c 128,-1,46
 184 646 184 646 222 665.5 c 128,-1,47
 260 685 260 685 308 685 c 0,48,49
 353 685 353 685 392 666.5 c 128,-1,50
 431 648 431 648 455 610 c 128,-1,51
 479 572 479 572 479 511 c 0,52,53
 479 456 479 456 454.5 414 c 128,-1,54
 430 372 430 372 383.5 345.5 c 128,-1,55
 337 319 337 319 270 310 c 0,56,57
 200 301 200 301 159.5 273.5 c 128,-1,58
 119 246 119 246 119 186 c 0,59,60
 119 129 119 129 170 92.5 c 128,-1,61
 221 56 221 56 329 56 c 0,62,63
 396 56 396 56 447.5 76.5 c 128,-1,64
 499 97 499 97 532 125 c 128,-1,65
 565 153 565 153 576 175 c 1,14,-1
EndSplineSet
EndChar

StartChar: y
Encoding: 121 121 90
Width: 693
Flags: W
AnchorPoint: "Anchor-1" 349 868 basechar 0
LayerCount: 2
Fore
SplineSet
212 258 m 2,0,-1
 274 277 l 1,1,2
 246 258 246 258 237 231.5 c 128,-1,3
 228 205 228 205 228 182 c 0,4,5
 228 126 228 126 267 90 c 128,-1,6
 306 54 306 54 379 54 c 0,7,8
 435 54 435 54 477.5 79.5 c 128,-1,9
 520 105 520 105 533 138 c 1,10,-1
 553 71 l 1,11,12
 543 55 543 55 519.5 36 c 128,-1,13
 496 17 496 17 459.5 4 c 128,-1,14
 423 -9 423 -9 372 -9 c 0,15,16
 308 -9 308 -9 261 12.5 c 128,-1,17
 214 34 214 34 188.5 72 c 128,-1,18
 163 110 163 110 163 159 c 0,19,20
 163 178 163 178 166.5 193 c 128,-1,21
 170 208 170 208 177 220 c 128,-1,22
 184 232 184 232 193 241.5 c 128,-1,23
 202 251 202 251 212 258 c 2,0,-1
243 254 m 1,24,-1
 193 220 l 1,25,-1
 44 119 l 1,26,27
 29 126 29 126 18.5 140.5 c 128,-1,28
 8 155 8 155 8 168 c 0,29,30
 8 173 8 173 10 180 c 128,-1,31
 12 187 12 187 21 192 c 2,32,-1
 179 284 l 1,33,34
 182 292 182 292 188 295 c 128,-1,35
 194 298 194 298 194 298 c 1,36,-1
 333 387 l 1,37,38
 340 385 340 385 347 379 c 128,-1,39
 354 373 354 373 359 365 c 0,40,41
 365 355 365 355 367.5 349 c 128,-1,42
 370 343 370 343 371 335 c 1,43,-1
 243 254 l 1,24,-1
603 312 m 1,44,-1
 531 312 l 1,45,-1
 531 575 l 1,46,47
 509 594 509 594 459.5 612 c 128,-1,48
 410 630 410 630 345 630 c 0,49,50
 281 630 281 630 232 608 c 128,-1,51
 183 586 183 586 155.5 545.5 c 128,-1,52
 128 505 128 505 128 449 c 0,53,54
 128 399 128 399 153.5 358.5 c 128,-1,55
 179 318 179 318 221 301 c 1,56,-1
 173 262 l 1,57,58
 148 271 148 271 120.5 294.5 c 128,-1,59
 93 318 93 318 73.5 357 c 128,-1,60
 54 396 54 396 54 451 c 0,61,62
 54 525 54 525 90.5 580 c 128,-1,63
 127 635 127 635 193 665 c 128,-1,64
 259 695 259 695 345 695 c 0,65,66
 425 695 425 695 488.5 671.5 c 128,-1,67
 552 648 552 648 587 619 c 0,68,69
 599 608 599 608 601 595.5 c 128,-1,70
 603 583 603 583 603 566 c 2,71,-1
 603 312 l 1,44,-1
536 78 m 1,72,-1
 531 78 l 1,73,-1
 531 345 l 1,74,-1
 603 345 l 1,75,-1
 603 -2 l 1,76,77
 596 -4 596 -4 589 -5 c 128,-1,78
 582 -6 582 -6 576 -6 c 0,79,80
 554 -6 554 -6 545 1 c 128,-1,81
 536 8 536 8 536 23 c 2,82,-1
 536 78 l 1,72,-1
EndSplineSet
EndChar

StartChar: z
Encoding: 122 122 91
Width: 262
Flags: W
AnchorPoint: "Anchor-2" 608 76 basechar 0
AnchorPoint: "Anchor-1" 389 868 basechar 0
AnchorPoint: "Anchor-0" 628 726 basechar 0
LayerCount: 2
Fore
SplineSet
336 -9 m 1,0,-1
 336 -9 l 1,1,2
 281 -9 281 -9 236 13 c 128,-1,3
 191 35 191 35 164.5 79.5 c 128,-1,4
 138 124 138 124 138 191 c 0,5,6
 138 212 138 212 140 223 c 128,-1,7
 142 234 142 234 144 250 c 2,8,9
 144 250 144 250 146 259 c 128,-1,10
 148 268 148 268 150.5 277 c 128,-1,11
 153 286 153 286 153 286 c 2,12,13
 161 309 161 309 174.5 330.5 c 128,-1,14
 188 352 188 352 205 366.5 c 128,-1,15
 222 381 222 381 239 381 c 0,16,17
 252 381 252 381 259 376 c 128,-1,18
 266 371 266 371 269.5 363 c 128,-1,19
 273 355 273 355 275 345 c 1,20,21
 252 326 252 326 230 288 c 128,-1,22
 208 250 208 250 208 191 c 0,23,24
 208 141 208 141 226.5 110.5 c 128,-1,25
 245 80 245 80 274.5 66.5 c 128,-1,26
 304 53 304 53 337 53 c 0,27,28
 350 53 350 53 359.5 55 c 128,-1,29
 369 57 369 57 376 60 c 2,30,-1
 355 37 l 1,31,32
 352 81 352 81 349.5 122 c 128,-1,33
 347 163 347 163 347 228 c 0,34,35
 347 277 347 277 365 307.5 c 128,-1,36
 383 338 383 338 413 352.5 c 128,-1,37
 443 367 443 367 477 367 c 0,38,39
 514 367 514 367 543.5 352.5 c 128,-1,40
 573 338 573 338 590.5 309 c 128,-1,41
 608 280 608 280 608 236 c 2,42,-1
 608 -2 l 1,43,44
 601 -4 601 -4 593.5 -5 c 128,-1,45
 586 -6 586 -6 580 -6 c 0,46,47
 557 -6 557 -6 548 1 c 128,-1,48
 539 8 539 8 539 27 c 2,49,-1
 539 232 l 2,50,51
 539 271 539 271 521.5 288.5 c 128,-1,52
 504 306 504 306 478 306 c 256,53,54
 452 306 452 306 434.5 288.5 c 128,-1,55
 417 271 417 271 417 230 c 2,56,-1
 417 31 l 2,57,58
 417 19 417 19 412 11 c 128,-1,59
 407 3 407 3 393 -2 c 0,60,61
 384 -5 384 -5 369.5 -7 c 128,-1,62
 355 -9 355 -9 336 -9 c 1,0,-1
176 281 m 1,63,-1
 153 215 l 1,64,65
 125 226 125 226 101 250.5 c 128,-1,66
 77 275 77 275 61.5 313.5 c 128,-1,67
 46 352 46 352 46 403 c 0,68,69
 46 492 46 492 91 557.5 c 128,-1,70
 136 623 136 623 214 659 c 128,-1,71
 292 695 292 695 391 695 c 0,72,73
 476 695 476 695 545 670 c 128,-1,74
 614 645 614 645 663.5 600.5 c 128,-1,75
 713 556 713 556 739.5 497 c 128,-1,76
 766 438 766 438 766 370 c 0,77,78
 766 298 766 298 747 260.5 c 128,-1,79
 728 223 728 223 702 223 c 0,80,81
 689 223 689 223 679.5 230 c 128,-1,82
 670 237 670 237 665 245 c 1,83,84
 677 268 677 268 684.5 299.5 c 128,-1,85
 692 331 692 331 692 368 c 0,86,87
 692 448 692 448 651 507 c 128,-1,88
 610 566 610 566 542 598 c 128,-1,89
 474 630 474 630 391 630 c 256,90,91
 308 630 308 630 247 600.5 c 128,-1,92
 186 571 186 571 153 519.5 c 128,-1,93
 120 468 120 468 120 403 c 0,94,95
 120 360 120 360 134 328.5 c 128,-1,96
 148 297 148 297 176 281 c 1,63,-1
EndSplineSet
EndChar

StartChar: braceleft
Encoding: 123 123 92
Width: 279
Flags: W
LayerCount: 2
Fore
SplineSet
119 325 m 1,0,-1
 119 325 l 1,1,2
 152 308 152 308 171 273 c 128,-1,3
 190 238 190 238 190 185 c 2,4,-1
 190 54 l 2,5,6
 190 18 190 18 203 3.5 c 128,-1,7
 216 -11 216 -11 246 -11 c 1,8,9
 248 -17 248 -17 248.5 -22.5 c 128,-1,10
 249 -28 249 -28 249 -34 c 0,11,12
 249 -47 249 -47 240.5 -55.5 c 128,-1,13
 232 -64 232 -64 215 -64 c 0,14,15
 173 -64 173 -64 147 -34.5 c 128,-1,16
 121 -5 121 -5 121 55 c 2,17,-1
 121 179 l 2,18,19
 121 232 121 232 102 260.5 c 128,-1,20
 83 289 83 289 44 295 c 1,21,22
 40 300 40 300 38.5 309.5 c 128,-1,23
 37 319 37 319 37 325 c 0,24,25
 37 332 37 332 39 341 c 128,-1,26
 41 350 41 350 44 355 c 1,27,28
 83 361 83 361 102 390 c 128,-1,29
 121 419 121 419 121 471 c 2,30,-1
 121 587 l 2,31,32
 121 647 121 647 147 676.5 c 128,-1,33
 173 706 173 706 215 706 c 0,34,35
 232 706 232 706 240.5 698 c 128,-1,36
 249 690 249 690 249 676 c 0,37,38
 249 670 249 670 248.5 664.5 c 128,-1,39
 248 659 248 659 246 653 c 1,40,41
 216 653 216 653 203 638.5 c 128,-1,42
 190 624 190 624 190 588 c 2,43,-1
 190 465 l 2,44,45
 190 412 190 412 171 377 c 128,-1,46
 152 342 152 342 119 325 c 1,0,-1
EndSplineSet
Substitution2: "'salt' Stylistic Alternatives lookup 78 subtable" braceleft_alt
Substitution2: "'ss01' Style Set 1 lookup 77 subtable" braceleft_alt
EndChar

StartChar: bar
Encoding: 124 124 93
Width: 293
Flags: W
LayerCount: 2
Fore
SplineSet
162 642 m 2,0,-1
 162 310 l 1,1,2
 155 307 155 307 146.5 305 c 128,-1,3
 138 303 138 303 127 303 c 0,4,5
 108 303 108 303 98.5 312 c 128,-1,6
 89 321 89 321 89 343 c 2,7,-1
 89 675 l 1,8,9
 97 678 97 678 105 680 c 128,-1,10
 113 682 113 682 124 682 c 0,11,12
 144 682 144 682 153 673 c 128,-1,13
 162 664 162 664 162 642 c 2,0,-1
162 152 m 2,14,-1
 162 -180 l 1,15,16
 155 -183 155 -183 146.5 -185 c 128,-1,17
 138 -187 138 -187 127 -187 c 0,18,19
 108 -187 108 -187 98.5 -178 c 128,-1,20
 89 -169 89 -169 89 -147 c 2,21,-1
 89 185 l 1,22,23
 97 188 97 188 105 190 c 128,-1,24
 113 192 113 192 124 192 c 0,25,26
 144 192 144 192 153 183 c 128,-1,27
 162 174 162 174 162 152 c 2,14,-1
EndSplineSet
Substitution2: "'salt' Stylistic Alternatives lookup 78 subtable" bar_alt
Substitution2: "'ss01' Style Set 1 lookup 77 subtable" bar_alt
EndChar

StartChar: braceright
Encoding: 125 125 94
Width: 279
Flags: W
LayerCount: 2
Fore
SplineSet
160 325 m 1,0,-1
 160 325 l 1,1,2
 127 308 127 308 108 273 c 128,-1,3
 89 238 89 238 89 185 c 2,4,-1
 89 54 l 2,5,6
 89 18 89 18 76 3.5 c 128,-1,7
 63 -11 63 -11 33 -11 c 1,8,9
 32 -17 32 -17 31 -22.5 c 128,-1,10
 30 -28 30 -28 30 -34 c 0,11,12
 30 -47 30 -47 38.5 -55.5 c 128,-1,13
 47 -64 47 -64 64 -64 c 0,14,15
 106 -64 106 -64 132 -34.5 c 128,-1,16
 158 -5 158 -5 158 55 c 2,17,-1
 158 179 l 2,18,19
 158 232 158 232 177 260.5 c 128,-1,20
 196 289 196 289 235 295 c 1,21,22
 239 300 239 300 240.5 309.5 c 128,-1,23
 242 319 242 319 242 325 c 0,24,25
 242 332 242 332 240 341 c 128,-1,26
 238 350 238 350 235 355 c 1,27,28
 196 361 196 361 177 390 c 128,-1,29
 158 419 158 419 158 471 c 2,30,-1
 158 587 l 2,31,32
 158 647 158 647 132 676.5 c 128,-1,33
 106 706 106 706 64 706 c 0,34,35
 47 706 47 706 38.5 698 c 128,-1,36
 30 690 30 690 30 676 c 0,37,38
 30 670 30 670 31 664.5 c 128,-1,39
 32 659 32 659 33 653 c 1,40,41
 63 653 63 653 76 638.5 c 128,-1,42
 89 624 89 624 89 588 c 2,43,-1
 89 465 l 2,44,45
 89 412 89 412 108 377 c 128,-1,46
 127 342 127 342 160 325 c 1,0,-1
EndSplineSet
Substitution2: "'salt' Stylistic Alternatives lookup 78 subtable" braceright_alt
Substitution2: "'ss01' Style Set 1 lookup 77 subtable" braceright_alt
EndChar

StartChar: asciitilde
Encoding: 126 126 95
Width: 448
Flags: W
LayerCount: 2
Fore
SplineSet
312 282 m 1,0,-1
 312 282 l 1,1,2
 339 282 339 282 350.5 296.5 c 128,-1,3
 362 311 362 311 370 327 c 1,4,5
 392 327 392 327 407.5 315 c 128,-1,6
 423 303 423 303 423 283 c 0,7,8
 423 252 423 252 397 232.5 c 128,-1,9
 371 213 371 213 329 213 c 0,10,11
 289 213 289 213 255 223.5 c 128,-1,12
 221 234 221 234 192 244 c 128,-1,13
 163 254 163 254 136 254 c 256,14,15
 109 254 109 254 97.5 239.5 c 128,-1,16
 86 225 86 225 78 209 c 1,17,18
 56 209 56 209 40.5 221 c 128,-1,19
 25 233 25 233 25 253 c 0,20,21
 25 274 25 274 37 290 c 128,-1,22
 49 306 49 306 70.5 314.5 c 128,-1,23
 92 323 92 323 119 323 c 0,24,25
 160 323 160 323 194 313 c 128,-1,26
 228 303 228 303 257 292.5 c 128,-1,27
 286 282 286 282 312 282 c 1,0,-1
EndSplineSet
EndChar

StartChar: exclamdown
Encoding: 161 161 97
Width: 250
Flags: W
LayerCount: 2
Fore
SplineSet
89 -174 m 1,0,-1
 89 -174 l 1,1,2
 89 -152 89 -152 89.5 -112 c 128,-1,3
 90 -72 90 -72 91 -22 c 128,-1,4
 92 28 92 28 93 81 c 128,-1,5
 94 134 94 134 95.5 183.5 c 128,-1,6
 97 233 97 233 98 271 c 1,7,8
 104 276 104 276 112 278 c 128,-1,9
 120 280 120 280 130 280 c 0,10,11
 144 280 144 280 152.5 274 c 128,-1,12
 161 268 161 268 162 256 c 0,13,14
 163 231 163 231 164.5 187.5 c 128,-1,15
 166 144 166 144 167 90.5 c 128,-1,16
 168 37 168 37 168.5 -18 c 128,-1,17
 169 -73 169 -73 169.5 -121.5 c 128,-1,18
 170 -170 170 -170 170 -203 c 1,19,20
 151 -216 151 -216 127 -216 c 0,21,22
 89 -216 89 -216 89 -174 c 1,0,-1
184 412 m 1,23,-1
 184 412 l 1,24,25
 184 389 184 389 169.5 373 c 128,-1,26
 155 357 155 357 129 357 c 0,27,28
 104 357 104 357 89 373 c 128,-1,29
 74 389 74 389 74 412 c 256,30,31
 74 435 74 435 89 451 c 128,-1,32
 104 467 104 467 129 467 c 0,33,34
 155 467 155 467 169.5 451 c 128,-1,35
 184 435 184 435 184 412 c 1,23,-1
EndSplineSet
EndChar

StartChar: cent
Encoding: 162 162 98
Width: 522
Flags: W
LayerCount: 2
Fore
SplineSet
436 266 m 2,0,-1
 58 266 l 1,1,2
 55 273 55 273 53 280.5 c 128,-1,3
 51 288 51 288 51 298 c 0,4,5
 51 315 51 315 60.5 323.5 c 128,-1,6
 70 332 70 332 86 332 c 2,7,-1
 464 332 l 1,8,9
 467 326 467 326 469 318 c 128,-1,10
 471 310 471 310 471 301 c 0,11,12
 471 285 471 285 462 275.5 c 128,-1,13
 453 266 453 266 436 266 c 2,0,-1
210 135 m 1,14,-1
 210 135 l 1,15,16
 210 158 210 158 224.5 173 c 128,-1,17
 239 188 239 188 263 188 c 256,18,19
 287 188 287 188 301.5 173 c 128,-1,20
 316 158 316 158 316 135 c 0,21,22
 316 113 316 113 301.5 97.5 c 128,-1,23
 287 82 287 82 263 82 c 256,24,25
 239 82 239 82 224.5 97.5 c 128,-1,26
 210 113 210 113 210 135 c 1,14,-1
210 459 m 1,27,-1
 210 459 l 1,28,29
 210 482 210 482 224.5 497 c 128,-1,30
 239 512 239 512 263 512 c 256,31,32
 287 512 287 512 301.5 497 c 128,-1,33
 316 482 316 482 316 459 c 256,34,35
 316 436 316 436 301.5 421 c 128,-1,36
 287 406 287 406 263 406 c 256,37,38
 239 406 239 406 224.5 421 c 128,-1,39
 210 436 210 436 210 459 c 1,27,-1
EndSplineSet
EndChar

StartChar: sterling
Encoding: 163 163 99
Width: 504
Flags: W
LayerCount: 2
Fore
SplineSet
384 263 m 2,0,-1
 85 263 l 2,1,2
 74 263 74 263 65.5 270.5 c 128,-1,3
 57 278 57 278 57 296 c 0,4,5
 57 306 57 306 60 313.5 c 128,-1,6
 63 321 63 321 65 328 c 1,7,-1
 405 328 l 1,8,9
 408 321 408 321 410.5 313.5 c 128,-1,10
 413 306 413 306 413 296 c 0,11,12
 413 278 413 278 405 270.5 c 128,-1,13
 397 263 397 263 384 263 c 2,0,-1
145 219 m 1,14,-1
 145 219 l 1,15,16
 145 242 145 242 141.5 278 c 128,-1,17
 138 314 138 314 134 352.5 c 128,-1,18
 130 391 130 391 130 418 c 0,19,20
 130 490 130 490 157.5 534.5 c 128,-1,21
 185 579 185 579 231 600 c 128,-1,22
 277 621 277 621 332 621 c 0,23,24
 397 621 397 621 428 600.5 c 128,-1,25
 459 580 459 580 459 560 c 0,26,27
 459 552 459 552 453.5 540.5 c 128,-1,28
 448 529 448 529 436 522 c 1,29,30
 414 537 414 537 391.5 545 c 128,-1,31
 369 553 369 553 337 553 c 0,32,33
 273 553 273 553 241.5 517 c 128,-1,34
 210 481 210 481 210 407 c 0,35,36
 210 381 210 381 213.5 344 c 128,-1,37
 217 307 217 307 220 272.5 c 128,-1,38
 223 238 223 238 223 217 c 0,39,40
 223 164 223 164 209 127 c 128,-1,41
 195 90 195 90 168 66 c 1,42,-1
 461 66 l 1,43,44
 465 59 465 59 467 51.5 c 128,-1,45
 469 44 469 44 469 33 c 0,46,47
 469 17 469 17 461 8.5 c 128,-1,48
 453 0 453 0 440 0 c 2,49,-1
 100 0 l 2,50,51
 81 0 81 0 67.5 11.5 c 128,-1,52
 54 23 54 23 54 45 c 0,53,54
 54 54 54 54 55 60 c 1,55,56
 100 83 100 83 122.5 116 c 128,-1,57
 145 149 145 149 145 219 c 1,14,-1
EndSplineSet
EndChar

StartChar: currency
Encoding: 164 164 100
Width: 501
Flags: W
LayerCount: 2
Fore
SplineSet
89 355 m 1,0,-1
 171 355 l 1,1,-1
 171 8 l 1,2,-1
 133 0 l 2,3,4
 114 0 114 0 101.5 12.5 c 128,-1,5
 89 25 89 25 89 44 c 2,6,-1
 89 355 l 1,0,-1
133 0 m 1,7,-1
 133 70 l 1,8,-1
 458 70 l 1,9,10
 463 66 463 66 466 57 c 128,-1,11
 469 48 469 48 469 37 c 0,12,13
 469 20 469 20 460 10 c 128,-1,14
 451 0 451 0 436 0 c 2,15,-1
 133 0 l 1,7,-1
171 295 m 1,16,-1
 89 295 l 1,17,-1
 89 606 l 1,18,19
 94 608 94 608 104.5 610.5 c 128,-1,20
 115 613 115 613 127 613 c 0,21,22
 149 613 149 613 160 604.5 c 128,-1,23
 171 596 171 596 171 576 c 2,24,-1
 171 295 l 1,16,-1
EndSplineSet
EndChar

StartChar: uni0080
Encoding: 128 128 102
Width: 579
Flags: W
LayerCount: 2
Fore
SplineSet
450 304 m 1,0,-1
 450 304 l 1,1,2
 450 396 450 396 428 451.5 c 128,-1,3
 406 507 406 507 369.5 532 c 128,-1,4
 333 557 333 557 290 557 c 256,5,6
 247 557 247 557 210 531 c 128,-1,7
 173 505 173 505 151 449.5 c 128,-1,8
 129 394 129 394 129 304 c 0,9,10
 129 182 129 182 171.5 116 c 128,-1,11
 214 50 214 50 290 50 c 256,12,13
 366 50 366 50 408 116 c 128,-1,14
 450 182 450 182 450 304 c 1,0,-1
290 -13 m 1,15,-1
 290 -13 l 1,16,17
 220 -13 220 -13 167 21.5 c 128,-1,18
 114 56 114 56 84.5 126.5 c 128,-1,19
 55 197 55 197 55 304 c 0,20,21
 55 420 55 420 89 489 c 128,-1,22
 123 558 123 558 176.5 589 c 128,-1,23
 230 620 230 620 290 620 c 256,24,25
 350 620 350 620 403.5 588.5 c 128,-1,26
 457 557 457 557 490.5 487.5 c 128,-1,27
 524 418 524 418 524 304 c 0,28,29
 524 198 524 198 494.5 127.5 c 128,-1,30
 465 57 465 57 412.5 22 c 128,-1,31
 360 -13 360 -13 290 -13 c 1,15,-1
EndSplineSet
EndChar

StartChar: uni0081
Encoding: 129 129 103
Width: 352
Flags: W
LayerCount: 2
Fore
SplineSet
247 231 m 1,0,-1
 175 231 l 1,1,-1
 175 537 l 1,2,-1
 44 475 l 1,3,4
 31 479 31 479 23 488.5 c 128,-1,5
 15 498 15 498 15 512 c 0,6,7
 15 537 15 537 48 552 c 2,8,-1
 190 615 l 1,9,-1
 208 615 l 2,10,11
 226 615 226 615 236.5 604 c 128,-1,12
 247 593 247 593 247 575 c 2,13,-1
 247 231 l 1,0,-1
175 264 m 1,14,-1
 247 264 l 1,15,-1
 247 -1 l 1,16,17
 243 -3 243 -3 233.5 -5.5 c 128,-1,18
 224 -8 224 -8 213 -8 c 0,19,20
 194 -8 194 -8 184.5 0.5 c 128,-1,21
 175 9 175 9 175 25 c 2,22,-1
 175 264 l 1,14,-1
EndSplineSet
EndChar

StartChar: uni0082
Encoding: 130 130 104
Width: 506
Flags: W
LayerCount: 2
Fore
SplineSet
57 547 m 1,0,-1
 57 547 l 1,1,2
 57 564 57 564 80 581 c 128,-1,3
 103 598 103 598 141.5 609 c 128,-1,4
 180 620 180 620 225 620 c 0,5,6
 288 620 288 620 333.5 598.5 c 128,-1,7
 379 577 379 577 404 538 c 128,-1,8
 429 499 429 499 429 446 c 0,9,10
 429 391 429 391 398.5 338 c 128,-1,11
 368 285 368 285 293 215 c 2,12,-1
 128 61 l 1,13,-1
 429 61 l 1,14,15
 432 57 432 57 435 49 c 128,-1,16
 438 41 438 41 438 31 c 0,17,18
 438 18 438 18 430.5 9 c 128,-1,19
 423 0 423 0 409 0 c 2,20,-1
 56 0 l 1,21,22
 48 7 48 7 43 16 c 128,-1,23
 38 25 38 25 38 35 c 0,24,25
 38 49 38 49 43.5 61.5 c 128,-1,26
 49 74 49 74 60 85 c 2,27,-1
 244 261 l 2,28,29
 306 320 306 320 330 361.5 c 128,-1,30
 354 403 354 403 354 447 c 0,31,32
 354 496 354 496 320.5 526.5 c 128,-1,33
 287 557 287 557 221 557 c 0,34,35
 177 557 177 557 142 542 c 128,-1,36
 107 527 107 527 84 510 c 1,37,38
 74 514 74 514 65.5 523.5 c 128,-1,39
 57 533 57 533 57 547 c 1,0,-1
EndSplineSet
EndChar

StartChar: uni0083
Encoding: 131 131 105
Width: 504
Flags: W
LayerCount: 2
Fore
SplineSet
215 621 m 1,0,-1
 215 621 l 1,1,2
 308 621 308 621 367 579.5 c 128,-1,3
 426 538 426 538 426 455 c 0,4,5
 426 415 426 415 409 386.5 c 128,-1,6
 392 358 392 358 369 342 c 128,-1,7
 346 326 346 326 328 321 c 1,8,9
 355 313 355 313 381.5 293.5 c 128,-1,10
 408 274 408 274 426 243.5 c 128,-1,11
 444 213 444 213 444 170 c 0,12,13
 444 110 444 110 415 70 c 128,-1,14
 386 30 386 30 335.5 9.5 c 128,-1,15
 285 -11 285 -11 218 -11 c 0,16,17
 164 -11 164 -11 122 0.5 c 128,-1,18
 80 12 80 12 56 29.5 c 128,-1,19
 32 47 32 47 32 66 c 0,20,21
 32 80 32 80 39.5 89 c 128,-1,22
 47 98 47 98 58 104 c 1,23,24
 84 84 84 84 122 68 c 128,-1,25
 160 52 160 52 220 52 c 0,26,27
 288 52 288 52 330 81.5 c 128,-1,28
 372 111 372 111 372 171 c 0,29,30
 372 224 372 224 333 256.5 c 128,-1,31
 294 289 294 289 220 289 c 2,32,-1
 137 289 l 1,33,34
 133 294 133 294 130.5 302.5 c 128,-1,35
 128 311 128 311 128 320 c 0,36,37
 128 330 128 330 130.5 338 c 128,-1,38
 133 346 133 346 137 351 c 1,39,-1
 212 351 l 2,40,41
 288 351 288 351 321 380 c 128,-1,42
 354 409 354 409 354 455 c 0,43,44
 354 506 354 506 317 532 c 128,-1,45
 280 558 280 558 216 558 c 0,46,47
 168 558 168 558 131 543 c 128,-1,48
 94 528 94 528 70 511 c 1,49,50
 61 516 61 516 53 526 c 128,-1,51
 45 536 45 536 45 549 c 0,52,53
 45 566 45 566 67.5 582.5 c 128,-1,54
 90 599 90 599 129 610 c 128,-1,55
 168 621 168 621 215 621 c 1,0,-1
EndSplineSet
EndChar

StartChar: uni0084
Encoding: 132 132 106
Width: 543
Flags: W
LayerCount: 2
Fore
SplineSet
30 217 m 2,0,-1
 326 609 l 1,1,2
 335 611 335 611 345.5 612.5 c 128,-1,3
 356 614 356 614 364 614 c 0,4,5
 377 614 377 614 388 610 c 128,-1,6
 399 606 399 606 406 596.5 c 128,-1,7
 413 587 413 587 413 569 c 2,8,-1
 413 211 l 1,9,-1
 515 211 l 1,10,11
 518 207 518 207 520.5 199 c 128,-1,12
 523 191 523 191 523 182 c 0,13,14
 523 168 523 168 516 159 c 128,-1,15
 509 150 509 150 495 150 c 2,16,-1
 413 150 l 1,17,-1
 413 -2 l 1,18,19
 409 -3 409 -3 400.5 -5.5 c 128,-1,20
 392 -8 392 -8 382 -8 c 0,21,22
 363 -8 363 -8 353 0.5 c 128,-1,23
 343 9 343 9 343 24 c 2,24,-1
 343 150 l 1,25,-1
 50 150 l 1,26,27
 40 155 40 155 33.5 166.5 c 128,-1,28
 27 178 27 178 27 193 c 0,29,30
 27 202 27 202 28 207 c 128,-1,31
 29 212 29 212 30 217 c 2,0,-1
343 211 m 1,32,-1
 345 537 l 1,33,-1
 343 537 l 1,34,-1
 113 211 l 1,35,-1
 343 211 l 1,32,-1
EndSplineSet
EndChar

StartChar: uni0085
Encoding: 133 133 107
Width: 537
Flags: W
LayerCount: 2
Fore
SplineSet
200 608 m 1,0,-1
 172 552 l 1,1,-1
 155 358 l 1,2,3
 172 368 172 368 203.5 377 c 128,-1,4
 235 386 235 386 269 386 c 0,5,6
 328 386 328 386 376 364 c 128,-1,7
 424 342 424 342 453 298.5 c 128,-1,8
 482 255 482 255 482 190 c 0,9,10
 482 132 482 132 455.5 86 c 128,-1,11
 429 40 429 40 379 13.5 c 128,-1,12
 329 -13 329 -13 257 -13 c 0,13,14
 201 -13 201 -13 158 -0.5 c 128,-1,15
 115 12 115 12 91.5 31 c 128,-1,16
 68 50 68 50 68 67 c 0,17,18
 68 81 68 81 78 92.5 c 128,-1,19
 88 104 88 104 98 108 c 1,20,21
 120 89 120 89 160.5 69 c 128,-1,22
 201 49 201 49 259 49 c 0,23,24
 330 49 330 49 369.5 89 c 128,-1,25
 409 129 409 129 409 190 c 0,26,27
 409 254 409 254 368.5 289 c 128,-1,28
 328 324 328 324 263 324 c 0,29,30
 226 324 226 324 196.5 313 c 128,-1,31
 167 302 167 302 141 287 c 1,32,33
 116 289 116 289 100.5 302.5 c 128,-1,34
 85 316 85 316 85 337 c 0,35,36
 85 343 85 343 85.5 353.5 c 128,-1,37
 86 364 86 364 87 371 c 2,38,-1
 104 566 l 2,39,40
 106 586 106 586 116.5 597 c 128,-1,41
 127 608 127 608 146 608 c 2,42,-1
 200 608 l 1,0,-1
160 545 m 1,43,-1
 160 608 l 1,44,-1
 453 608 l 1,45,46
 456 604 456 604 459 596 c 128,-1,47
 462 588 462 588 462 579 c 0,48,49
 462 564 462 564 454.5 554.5 c 128,-1,50
 447 545 447 545 433 545 c 2,51,-1
 160 545 l 1,43,-1
EndSplineSet
EndChar

StartChar: uni0086
Encoding: 134 134 108
Width: 548
Flags: W
LayerCount: 2
Fore
SplineSet
452 563 m 1,0,-1
 452 563 l 1,1,2
 452 552 452 552 445.5 542.5 c 128,-1,3
 439 533 439 533 429 528 c 1,4,5
 409 539 409 539 381 547.5 c 128,-1,6
 353 556 353 556 320 556 c 0,7,8
 267 556 267 556 224 530.5 c 128,-1,9
 181 505 181 505 155.5 452 c 128,-1,10
 130 399 130 399 129 316 c 1,11,12
 148 336 148 336 190.5 359.5 c 128,-1,13
 233 383 233 383 296 383 c 0,14,15
 384 383 384 383 441 333.5 c 128,-1,16
 498 284 498 284 498 186 c 0,17,18
 498 124 498 124 471.5 79 c 128,-1,19
 445 34 445 34 398 10.5 c 128,-1,20
 351 -13 351 -13 287 -13 c 0,21,22
 221 -13 221 -13 168.5 17 c 128,-1,23
 116 47 116 47 85.5 112.5 c 128,-1,24
 55 178 55 178 55 285 c 0,25,26
 55 380 55 380 77.5 444.5 c 128,-1,27
 100 509 100 509 138 547.5 c 128,-1,28
 176 586 176 586 223.5 603 c 128,-1,29
 271 620 271 620 320 620 c 0,30,31
 354 620 354 620 384 613 c 128,-1,32
 414 606 414 606 433 593.5 c 128,-1,33
 452 581 452 581 452 563 c 1,0,-1
287 49 m 1,34,-1
 287 49 l 1,35,36
 347 49 347 49 385.5 85.5 c 128,-1,37
 424 122 424 122 424 189 c 0,38,39
 424 255 424 255 385 288 c 128,-1,40
 346 321 346 321 289 321 c 0,41,42
 231 321 231 321 189.5 296.5 c 128,-1,43
 148 272 148 272 124 237 c 1,44,-1
 127 246 l 1,45,46
 127 158 127 158 169 103.5 c 128,-1,47
 211 49 211 49 287 49 c 1,34,-1
EndSplineSet
EndChar

StartChar: uni0087
Encoding: 135 135 109
Width: 455
Flags: W
LayerCount: 2
Fore
SplineSet
53 608 m 2,0,-1
 414 608 l 1,1,2
 424 602 424 602 429.5 592.5 c 128,-1,3
 435 583 435 583 435 571 c 0,4,5
 435 553 435 553 424 531 c 2,6,-1
 169 -4 l 2,7,8
 165 -5 165 -5 159.5 -5 c 128,-1,9
 154 -5 154 -5 149 -5 c 0,10,11
 131 -5 131 -5 118.5 4 c 128,-1,12
 106 13 106 13 106 28 c 0,13,14
 106 39 106 39 110.5 50 c 128,-1,15
 115 61 115 61 122 74 c 2,16,-1
 353 545 l 1,17,-1
 33 545 l 1,18,19
 30 550 30 550 27 557.5 c 128,-1,20
 24 565 24 565 24 575 c 0,21,22
 24 589 24 589 31.5 598.5 c 128,-1,23
 39 608 39 608 53 608 c 2,0,-1
EndSplineSet
EndChar

StartChar: uni0088
Encoding: 136 136 110
Width: 567
Flags: W
LayerCount: 2
Fore
SplineSet
212 326 m 2,0,-1
 271 336 l 2,1,2
 346 350 346 350 383 378.5 c 128,-1,3
 420 407 420 407 420 454 c 0,4,5
 420 503 420 503 383.5 530.5 c 128,-1,6
 347 558 347 558 284 558 c 0,7,8
 223 558 223 558 185.5 530 c 128,-1,9
 148 502 148 502 148 455 c 0,10,11
 148 416 148 416 169 392 c 128,-1,12
 190 368 190 368 225.5 356.5 c 128,-1,13
 261 345 261 345 304 341 c 1,14,-1
 343 328 l 1,15,16
 385 320 385 320 422.5 299.5 c 128,-1,17
 460 279 460 279 483.5 245 c 128,-1,18
 507 211 507 211 507 160 c 0,19,20
 507 106 507 106 478.5 67 c 128,-1,21
 450 28 450 28 400 7.5 c 128,-1,22
 350 -13 350 -13 284 -13 c 0,23,24
 216 -13 216 -13 165.5 7.5 c 128,-1,25
 115 28 115 28 87.5 67 c 128,-1,26
 60 106 60 106 60 161 c 0,27,28
 60 210 60 210 82.5 244 c 128,-1,29
 105 278 105 278 140 298.5 c 128,-1,30
 175 319 175 319 212 326 c 2,0,-1
344 307 m 2,31,-1
 278 295 l 2,32,33
 214 285 214 285 173.5 251 c 128,-1,34
 133 217 133 217 133 160 c 0,35,36
 133 108 133 108 173.5 78.5 c 128,-1,37
 214 49 214 49 284 49 c 0,38,39
 352 49 352 49 393 78 c 128,-1,40
 434 107 434 107 434 161 c 0,41,42
 434 222 434 222 385 256.5 c 128,-1,43
 336 291 336 291 253 296 c 1,44,-1
 202 309 l 2,45,46
 144 325 144 325 109.5 361 c 128,-1,47
 75 397 75 397 75 455 c 0,48,49
 75 506 75 506 101.5 543 c 128,-1,50
 128 580 128 580 175 600 c 128,-1,51
 222 620 222 620 284 620 c 0,52,53
 381 620 381 620 437 575.5 c 128,-1,54
 493 531 493 531 493 453 c 0,55,56
 493 390 493 390 449.5 354 c 128,-1,57
 406 318 406 318 344 307 c 2,31,-1
EndSplineSet
EndChar

StartChar: uni0089
Encoding: 137 137 111
Width: 550
Flags: W
LayerCount: 2
Fore
SplineSet
82 47 m 1,0,-1
 82 47 l 1,1,2
 82 58 82 58 88 68.5 c 128,-1,3
 94 79 94 79 104 83 c 1,4,5
 123 72 123 72 154 61.5 c 128,-1,6
 185 51 185 51 228 51 c 0,7,8
 281 51 281 51 324.5 74 c 128,-1,9
 368 97 368 97 394.5 149 c 128,-1,10
 421 201 421 201 421 288 c 1,11,12
 413 278 413 278 392.5 262.5 c 128,-1,13
 372 247 372 247 340 235.5 c 128,-1,14
 308 224 308 224 265 224 c 0,15,16
 209 224 209 224 160.5 243.5 c 128,-1,17
 112 263 112 263 82 305.5 c 128,-1,18
 52 348 52 348 52 418 c 0,19,20
 52 482 52 482 80.5 527 c 128,-1,21
 109 572 109 572 156.5 596 c 128,-1,22
 204 620 204 620 261 620 c 0,23,24
 329 620 329 620 381.5 589 c 128,-1,25
 434 558 434 558 464.5 492.5 c 128,-1,26
 495 427 495 427 495 323 c 0,27,28
 495 200 495 200 461 126 c 128,-1,29
 427 52 427 52 367 19.5 c 128,-1,30
 307 -13 307 -13 227 -13 c 0,31,32
 168 -13 168 -13 125 3 c 128,-1,33
 82 19 82 19 82 47 c 1,0,-1
274 286 m 1,34,-1
 274 286 l 1,35,36
 328 286 328 286 369 313 c 128,-1,37
 410 340 410 340 423 372 c 1,38,-1
 422 359 l 1,39,40
 422 451 422 451 379.5 504.5 c 128,-1,41
 337 558 337 558 261 558 c 0,42,43
 203 558 203 558 164.5 521.5 c 128,-1,44
 126 485 126 485 126 420 c 0,45,46
 126 349 126 349 169.5 317.5 c 128,-1,47
 213 286 213 286 274 286 c 1,34,-1
EndSplineSet
EndChar

StartChar: uni008A
Encoding: 138 138 112
Width: 504
Flags: W
LayerCount: 2
Fore
SplineSet
384 263 m 2,0,-1
 85 263 l 2,1,2
 74 263 74 263 65.5 270.5 c 128,-1,3
 57 278 57 278 57 296 c 0,4,5
 57 306 57 306 60 313.5 c 128,-1,6
 63 321 63 321 65 328 c 1,7,-1
 405 328 l 1,8,9
 408 321 408 321 410.5 313.5 c 128,-1,10
 413 306 413 306 413 296 c 0,11,12
 413 278 413 278 405 270.5 c 128,-1,13
 397 263 397 263 384 263 c 2,0,-1
145 219 m 1,14,-1
 145 219 l 1,15,16
 145 242 145 242 141.5 278 c 128,-1,17
 138 314 138 314 134 352.5 c 128,-1,18
 130 391 130 391 130 418 c 0,19,20
 130 490 130 490 157.5 534.5 c 128,-1,21
 185 579 185 579 231 600 c 128,-1,22
 277 621 277 621 332 621 c 0,23,24
 397 621 397 621 428 600.5 c 128,-1,25
 459 580 459 580 459 560 c 0,26,27
 459 552 459 552 453.5 540.5 c 128,-1,28
 448 529 448 529 436 522 c 1,29,30
 414 537 414 537 391.5 545 c 128,-1,31
 369 553 369 553 337 553 c 0,32,33
 273 553 273 553 241.5 517 c 128,-1,34
 210 481 210 481 210 407 c 0,35,36
 210 381 210 381 213.5 344 c 128,-1,37
 217 307 217 307 220 272.5 c 128,-1,38
 223 238 223 238 223 217 c 0,39,40
 223 164 223 164 209 127 c 128,-1,41
 195 90 195 90 168 66 c 1,42,-1
 461 66 l 1,43,44
 465 59 465 59 467 51.5 c 128,-1,45
 469 44 469 44 469 33 c 0,46,47
 469 17 469 17 461 8.5 c 128,-1,48
 453 0 453 0 440 0 c 2,49,-1
 100 0 l 2,50,51
 81 0 81 0 67.5 11.5 c 128,-1,52
 54 23 54 23 54 45 c 0,53,54
 54 54 54 54 55 60 c 1,55,56
 100 83 100 83 122.5 116 c 128,-1,57
 145 149 145 149 145 219 c 1,14,-1
EndSplineSet
EndChar

StartChar: uni008B
Encoding: 139 139 113
Width: 385
Flags: W
LayerCount: 2
Fore
SplineSet
215 289 m 1,0,-1
 296 289 l 1,1,-1
 296 148 l 2,2,3
 296 88 296 88 273.5 53 c 128,-1,4
 251 18 251 18 214 3.5 c 128,-1,5
 177 -11 177 -11 134 -11 c 0,6,7
 78 -11 78 -11 51.5 2.5 c 128,-1,8
 25 16 25 16 25 38 c 0,9,10
 25 52 25 52 31 62 c 128,-1,11
 37 72 37 72 42 77 c 1,12,13
 57 70 57 70 78.5 64 c 128,-1,14
 100 58 100 58 122 58 c 0,15,16
 167 58 167 58 191 80 c 128,-1,17
 215 102 215 102 215 152 c 2,18,-1
 215 289 l 1,0,-1
296 265 m 1,19,-1
 215 265 l 1,20,-1
 215 606 l 1,21,22
 220 608 220 608 230.5 610.5 c 128,-1,23
 241 613 241 613 252 613 c 0,24,25
 274 613 274 613 285 604.5 c 128,-1,26
 296 596 296 596 296 576 c 2,27,-1
 296 265 l 1,19,-1
EndSplineSet
EndChar

StartChar: uni008C
Encoding: 140 140 114
Width: 690
Flags: W
LayerCount: 2
Fore
SplineSet
330 0 m 1,0,-1
 407 24 l 1,1,2
 470 -12 470 -12 512 -33 c 128,-1,3
 554 -54 554 -54 587.5 -68 c 128,-1,4
 621 -82 621 -82 658 -96 c 1,5,6
 660 -103 660 -103 660 -107.5 c 128,-1,7
 660 -112 660 -112 660 -116 c 0,8,9
 660 -135 660 -135 648.5 -146.5 c 128,-1,10
 637 -158 637 -158 616 -158 c 0,11,12
 584 -158 584 -158 532 -130.5 c 128,-1,13
 480 -103 480 -103 415 -58 c 2,14,-1
 330 0 l 1,0,-1
634 304 m 1,15,-1
 634 304 l 1,16,17
 634 200 634 200 596 129.5 c 128,-1,18
 558 59 558 59 492.5 23 c 128,-1,19
 427 -13 427 -13 344 -13 c 0,20,21
 262 -13 262 -13 196 23 c 128,-1,22
 130 59 130 59 92 129.5 c 128,-1,23
 54 200 54 200 54 304 c 256,24,25
 54 408 54 408 93 478.5 c 128,-1,26
 132 549 132 549 197.5 585 c 128,-1,27
 263 621 263 621 344 621 c 0,28,29
 426 621 426 621 491.5 585 c 128,-1,30
 557 549 557 549 595.5 478.5 c 128,-1,31
 634 408 634 408 634 304 c 1,15,-1
551 304 m 1,32,-1
 551 304 l 1,33,34
 551 423 551 423 494.5 487.5 c 128,-1,35
 438 552 438 552 344 552 c 0,36,37
 251 552 251 552 194.5 487.5 c 128,-1,38
 138 423 138 423 138 304 c 256,39,40
 138 185 138 185 194 120.5 c 128,-1,41
 250 56 250 56 344 56 c 0,42,43
 439 56 439 56 495 120.5 c 128,-1,44
 551 185 551 185 551 304 c 1,32,-1
EndSplineSet
EndChar

